<?xml version='1.0' encoding='utf-8'?>
<svg xmlns="http://www.w3.org/2000/svg" version="1.1" id="Layer_1" x="0px" y="0px" viewBox="0 0 5000 1008" style="enable-background:new 0 0 5000 1008;"> <g> <path d="M4998.8,798c-2.7-11-3.9-44.5-8.4-63c-2.5-10.4-10.5-50.4-15.7-57.2c-3-3.9-6.3-49.6-9.6-61.6c-1.8-6.8,0.4-35.8,0.7-89.5 c0.2-47.5,2.1-38.3,6.7-66.3c1.2-7.5,3.8-16.6,5.7-20.3c5.3-10.3,6.3-19.7,2.4-21.8c-3.4-1.8-8.1-13.7-9.8-24.9 c-1.1-7.2-9.8-17.2-14.9-17.2c-2.9,0-12.7-9.3-15.1-11.4c-3.4-34.5-6.5-53.4,2.8-74c13.7-30.4-11.2-78.3-44.8-86 c-2.8-0.6-11.1-4.1-18.6-7.7c-30.1-14.6-52.1-7.2-62.2-12.3c-6.4-3.2-28.9-2.1-36.8-4.6c-4.9-1.6-21.2-2.1-37.2-1.3 c-14.8,0.8-85.2-2-94.1-3.8c-9.5-1.9-25.2-1-75,4.3c-45.1,4.8-70.8,16.6-98.9,45.5c-21.6,22.2-23.8,27.6-24.4,60 c-1,54.8-4,25.7-4.7,75.1c-0.6,40.6-0.9,41.3-18.7,38c-15.9-2.9-55.9-2.2-78,1.5c-33,5.5-60.7,1.6-58.5-8.2 c1.3-5.6,4.1-28.9,6.9-39.4c2.9-11.1,0.4-43.3,4.2-54.7c3.3-10.2,3.3-20.1,6-31.4c7.9-33.4-1.2-24.7-9-47.9 c-4.2-12.5-18.1-30.8-23.5-30.8c-1.3,0-21.1-9.5-23.1-10.4c-10.6,0.7-53.6,3-64.1,5.3c-21.8,4.8-32.5,5-41.9,0.7 c-8.2-3.7-11.3-4.1-44.5-4.9c-70.2-1.7-70.8-10.1-102.9,15.3c-5.2,4.1-9.5,15.7-11.9,21.5c-33.6,0.4-57.3,0.1-72.4,3.5 c-24.1,5.5-23.3,5.7-31.8-5.5c-8.8-11.5-19.9-15.9-44.3-17.8c-33-2.5-28.4-7.2-45.3-1.3c-5.8,2-12,3.7-13.8,3.7 c-3.9,0-5.7,2-18,20.1c-14.9,21.9-17.6,21.2-26.4,39.9c-6.1,12.9-8.6,16.1-33.3,40.5c-31.8,31.5-34.9,32.5-27.2,8.7 c3.9-11.9,0.4-11.6,6-24.9c6.2-15-5.1-43.3-24.3-60.8l-8.2-7.5c-54.5,0-52.6,0.3-91.1,6.5c-9.1-5.8-10.3-7-31.7-16.7 c-2.9-1.3-7.7-2.4-10.7-2.4c-6.9,0-25.9-3-33.3-5.3c-5.2-1.6-18.8-1.8-48.7-0.6c-32.5,1.3-68.4,17.6-73.6,33.6 c-1.4,4.4-5.3,7.8-18.3,16.5c-24.7,16.4-21.9,16.2-3,36c-0.7,23.7-1.5,64.4-4.6,88c-4,30.5,0.9,26.2-3.5,39.4 c-4,12.1-0.1,14.8-3.2,25.2c-1.2,4-2.7,13.4-3.4,20.7c-2.6,29.1-10.2,52.5-17.9,54.5c-7.8,2.1-92,5.3-108.5,4.2 c-8.8-0.6-24.9-0.2-36,0.8c-51.3,4.9-190.1-2.1-278.6-2.6c-112.9-0.6-26.7-6.7-179.1-8.5c-121.6-1.4-110.2,0-115.4-14.3 c-7.5-20.5-5.6-43,5-61.7c8.8-15.4,12.8-21.4,18.2-27.3c13.6-14.8,17.7-32.4,10.2-43.8c-4.9-7.4-4.2-10.3,5.2-20.6 c13.7-15,14.8-18.3,10-31.8c-7.2-20.2-7.2-22.6-0.3-31.8c8.9-11.9,15.7-18.7,18.8-18.7c2.8,0,19.4-17.9,23.1-24.9 c2.9-5.5,1-18.9-5.1-35.4c-7.7-21-3.9-35.4,11.5-44.2c13.9-8,32.3-24.2,36.9-32.5c12.5-22.5,11.8-20.1,9.3-32.9 c-1.2-6.4-2.3-16.1-2.3-21.4c-0.1-10.9-5.9-26.9-13.2-36.1c-2.4-3.1-5.6-7.6-7.1-10c-6-10.2-19.2-15.7-35-14.6 c-24.5,1.6-72.1,12.7-75.2,17.5c-0.5,0.8-5.6,3.8-11.2,6.7c-10.2,5.1-27.9,22.5-37.9,37.1c-6.3,9.3-39.8,56.5-49.3,70.3 c-6.2,9-15.7,18.9-21.4,30.1c-2.2,4.3-5.2,8.8-6.7,10.1c-4.5,3.8-19.2,40.3-19.2,47.8c0,3.3-6.5,12.6-7.3,21.8 c-0.8,9.4-8.6,17.7-11.8,32.6c-4,18.8-5.8,11.4-10.1,38.3c-5.7,35.3-13.5,39.7-20.2,74.5c-4.5,23.4-12.4,37.8-13.6,44.3 c-2.4,13.1-10.3,60.8-15.6,63.6c-4.9,2.6-120.3,3.9-158.2,6.2c-36.6,2.3-355.7,1-382.4,5.1c-49.4,7.6-93.9,7.7-144,8.7 c-6.9-6.5-4.4-4.1-11.6-10.8c-0.4-45.4-1.2-54.1,5.7-85.4c3.6-16.4,5.6-37.6,7.7-46c8.4-33.5,3.3-81.1-9.2-85.9 c-1.3-0.5-3.9-6-5.8-12.3c-12-39.7-54.7-72-106.4-80.7c-13.1-2.2-57.4-5.6-59.1-4.5c-0.7,0.5-5.2,1.3-10,1.8 c-22.8,2.6-54.3,22.6-71.9,45.7c-4.1,5.4-9.3,7.1-11.3,3.7c-7.9-12.8-40-14-57.4-15.4c-42.4,20.4-68.8,31.3-62.7,58.1 c2.2,9.5,2.3,13.5,0.6,25.7c-2.3,16.3-2.6,31.6-0.9,40.6c1.4,7.4-2.9,10.5-6,4.4c-3-5.8-18.9-25.2-21.3-31.3 c-2.1-5.3-18.2-29.4-29.7-47.4c-10-15.5-15-18.9-23.8-34.8c-9.2-16.5-12.4-19.3-20.4-34.9c-11.9-23.4-39.8-37.5-52.8-26.7 c-1,0.8-5.1,2-9.2,2.6c-10.6,1.6-24.2,10.7-27.8,10.7c-4.3,0-15.2,6.6-19.2,11.5c-10.8,13.5-22.6,20.8-30.6,18.8 c-17-4.3-36.4,0.2-56.2,3.7c-3.5-3.3-7.5-6.5-10.8-13.9c-3.8-8.5-20.2-21.5-36.7-29.1l-13-6c-8.7,0.2-45.8,0.6-53.2,2.9 c-27.4,8.8-29,7.4-49.1,18.3c-25.4-19.7-31.3-25.7-104.4-9.5c-3.9,0.9-8.6,1.6-10.3,1.6c-8.9,0-14.7,25.3-16,69.5 c-0.3,10.1-1.8,26.7-3.3,36.8c-5.8,37.9-2.8,79-13.5,112.1c-3.2,9.8-6.4,24.4-8.5,33.5c-8.7,0.1-45.8,0.6-49.8,1.5 c-47.7,11.6-89.1-17.7-88.5-62.6c1.4-94.3,0.8-99.5-15-118c-23.1-27.2-17.7-26.4-38.5-36.6c-24-11.8-45.8-24.5-50.2-24.5 c-5.7,0-2.5-3-29.8-6.1c-80.8-8.9-139.3-25.9-244.4-4.1c-49.8,10.3-91.4,42.7-93.3,72.7c-0.7,11.5,3.7,43.6,7.9,58 c5.3,18-8.1,40.1-30.1,49.2c-33.6,14-41.3,21.5-47.5,46.4c-3.1,12.4-2.4,28.6,1.8,45.8c2.5,10.1,4.4,14.8,15,37.4 c7.2,15.4,15.6,38.9,15.6,43.8c0,2,0.7,6.4,1.6,9.8c6.6,25.4,11.2,67.3,8.5,78.5c-4,16.7-10.6,59.4-17.7,71.7 c-8.4,14.6-17.5,44-17.5,56.7c0,3.1-0.8,7.8-1.9,10.4c-7,17.7-10.5,76.1-5.4,88.8c5.9,14.5-4.6,12.6,16.4,24.8 c13.2,7.6,24.3,12.5,28.5,12.5c4.3,0,11.8,2.8,15.8,6c12.1,9.5,57.5,7.5,64.1,11c6.3,3.4,21.6,2.6,49.7,6.3c7.8,1,21.4,1.9,30.1,2 c19.3,0.1,62.7,3.9,75.4,6.6c5.1,1.1,13.7,1.6,19.2,1.2c12.7-1,22.6,3.2,22.6,9.6c0,9.9,16.3,36,22.5,36c1.2,0,4,1.4,6.1,3 c25.1,19.1,40.2-1.9,64.3-5.5c20.1-3,8.1-6.2,40.1-6c29.7,0.2,32.9-1.3,38.3,2.9c6,4.7,19.2,5.3,37,11.7c26.7,9.6,44,8.7,51.5-2.5 c14.2-21.4,15.3-30.5,8.6-67.9c-4.4-24.3-3.8-27.4,7.3-37.2c14-12.4,27.2-16.2,40.2-11.8c7,2.4,57.1,1.1,87.7-2.4 c14.1-1.6,140.3-4.2,171.2-3.5c4.6,0.1,12.4-0.6,17.3-1.6c22.1-4.4,111.8-5.6,134.1-7.5c29.1-2.5,147.6-3.5,159.3-1.5 c8.4,1.5,18.9,1.5,25.7,1.6c0,29.2-0.6,30.3,4.2,35c5.3,5.2,44,21.1,51.5,21.1c10.6,0,3.6,3.9,28.9,2c15.7-1.2,17.5-1,20.2,1.9 c3.5,3.8,5.4,3.9,51.7,2.2c106.8-3.9,43.8-7,134.7-8.6c60.1-1.1,60.7-1.1,138.9-7.6c40.3-3.3,51.3,2.6,61.2-2.5 c5.5-2.8,34.6-8,36.9-6.5c2.9,1.8,94.4,1.9,97.7,0.1c5.4-2.9,167.1-1.6,211.7-3.4c77.6-3.3,106.6-1.1,98.4,7.6 c-2.7,2.8-11.4,16.1-11.4,17.4c0,0.5-2.9,7.1-6.5,14.7c-12.6,26.6-14.5,51.4-4.9,62.4c12.9,14.6,15.7,15.2,80.9,16.6 c25.8,0.6,48.4,1.5,50.2,2.1c8.5,2.7,69.8,2,72.1,4.2c0.2,0,1.2,1.2,7.3,0.4c9-1.3,50.5-1.3,53.3-3c1.1-0.7,3.8-0.1,6,1.4 c3.4,2.2,5.9,2.3,17.2,0.7c21.7-3.1,28,1.6,39.2-2.4c11.9-4.2,87.2-3.1,94.4-5.8c2.3-0.9,6.7-0.9,10.7,0 c12.5,2.8,102.1-2.7,117.2,1.4c8.8,2.4,74.3-0.7,80.2-3.7c2.9-1.5,7.2-2.8,9.5-2.8c21.2,0,27.1-28.7,13-63.8 c-3.5-8.7-32.4-35.6-37.9-35.2c-6.2,0.4-9.1-3.5-5.6-7.6c1.5-1.8,4-2.2,9.7-1.4c30.5,4.3,74.7,4.8,85.4,1 c24.4-8.7,104.1,1.8,125.7-2c19.8-3.5,15.4,4.6,30.8,0.3c14.8-4.1,12.8,3,40.5,1.2c35.3-2.3,10.9,6.1,109.3,3.4 c6.8-0.2,22,4.6,26.3,2.4c5-2.5,35.2,2.7,57.4,1.4c12-0.7,60.5,7,71.2,5.3c2.8-0.4,18.2,0,34.3,1c24.8,1.5,30.3,1.4,36.4-0.7 c4.6-1.6,8.2-2,10-1c3.1,1.6,62.1,4.2,85.9,3.8c7.9-0.1,18.5,0.6,23.4,1.6c12.1,2.5,143.5,3.6,161.3,1.4 c15.1-1.9,36.6-6.2,42.2-8.4c5.1-2,8.9-12.9,14.1-19.9c2.7-3.7,6.3-25.5,6.5-38.8c0.1-6.2,25-8.9,99.6-10.9 c89.9-2.4,111.6,1.9,128.5-2c7.1-1.6,10.3-1.7,11.9-0.4c3.3,2.7,46.9,2.1,70.4,4.7c31.8,3.6,97.1-5.7,113-3.7 c11.2,1.4,31.7-3.2,49.4-2.7c6.5,0.2,13.8-0.5,16.4-1.4c4.7-1.8,20.1,0.3,23.8,3.3c3.1,2.4,49.4,1.7,54.4-0.9 c4.3-2.2,10.5-1.8,14.2,0.9c5.9,4.3,22.6,6.6,46.4,6.5c10.9,0,31.2,5.5,36.2,9.8c3.3,2.8,3.3,3.4,0.9,28.8c-4.3,45.2-3,55.2,9.1,72 c5.5,7.6,25.6,17.1,37.3,17.5c4.2,0.2,9.2,1.1,11,2.1c3.5,1.9,35.1,2.7,56.3,1.5c7.7-0.4,11.9,0,13.1,1.4c1,1.1,7.9,2.6,15.4,3.2 c12.8,1,20.6,0.4,54.7-4.5c34.4-4.9,38.2,3.7,44.1-2.1c1.6-1.6,6.7-3.2,12-3.7c12-1.2,16.9-5.6,18.5-16.6 c1.8-12.4,5.4-15.2,6.9-29.5c2.5-24.3,20.6-15.3,44-22.4c11-3.3,31-1.4,37.9-4.1c3.3-1.3,6.9-1.2,12.8,0.4c7.6,2,8.7,1.8,15-1.8 c7.5-4.3,20.9-3.9,30.3,1c6,3.1,31.1,1.5,38.7-2.5c4.9-2.6,19.4-3.6,51-3.6c20.3,0,38.9-4.7,65.8-10.7l4,4.6 C4981.7,886.3,5005.7,825.7,4998.8,798z M4965.5,392.6c1.9-15.3-0.6,5.6,2.9,7.7c0.9,0.6,1.7,2.1,1.7,3.4 C4970.1,408.9,4963.8,406,4965.5,392.6z M4304.9,252.2c3.3,0,3.3,6.7,0,6.7C4301.5,258.9,4301.5,252.2,4304.9,252.2z M4952.8,411.9 c-1.1,6.4-3,11.9-4.1,12.3c-2.2,0.7-2.7-0.4-4.5-8.6c-1.1-5.2,0.1-5.1-18.7-1.9c-15.3,2.6-10.9-5.1,6.9-11.8 C4955.2,393.3,4956,393.7,4952.8,411.9z M4820.7,453.5c7.9-3.2,24.5-1.2,30.6-4.7c4.8-2.7,19.4-3.3,20.9-0.8c1.6,2.5,3.9,2,4.5-1.1 c1.1-5.7,29.8-10.3,29.8-4.8c0,3.3-3.9,5.2-15.9,7.5c-3.1,0.6-46.3,12-103.8,16.9c-48,4.1-44.2,4-45.5,0.6 c-1.7-4.7-3.2-5.2-19.2-6.5c-18.2-1.4-22.9-7.4-6-7.7c10.3-0.2,16.7-1.7,17.5-4.2c0.4-1.2-4.7-1.5-16.2-1 c-14.4,0.7-16.8,0.4-16.8-1.8c0-8.9,46.1-4.6,94.6-10.2c62.4-7.1,73.9-5.5,95.9-10.2c16.1-3.4,32.1-3.5,32.1-0.2 c0,3.4-3,4.9-12.6,6.1c-34.5,4.7-48.4,10.9-71,13.2c-24.1,2.4-52.1,7.4-51.5,9.2C4789.1,456.3,4814.3,456.1,4820.7,453.5z M4709.5,467.3c-0.6,2.9-5.5,2.9-5.5,0C4704,463.2,4709.9,465.3,4709.5,467.3z M4931.2,392.1c0.6,4.1-0.6,4.7-17.2,9 c-12,3.2-46.1,8.3-55.2,8.4c-2.8,0-6.2,0.8-7.6,1.7c-3.7,2.5,1.1,5.2,7.5,4.2c17.6-2.6,34.3-2.8,34.3-0.3c0,2.8-3.3,3.2-43.5,6 c-13.3,0.9-27.6,2.4-31.8,3.3c-10.9,2.4-61.4,7.7-70.7,7.4c-12.1-0.4-17.1-1.9-21,1.7v0c-3.8,3.4-11.6,3.4-23.3-0.1 c-12.8-3.8-12.3-4.6,7.1-11.7c6.6-2.4,7.5-3.2,4.5-3.6c-3.1-0.4-3.7-1.3-3-4.3c1-4.1,2.3-3.8-45-8.7c-11.3-1.2-11.1-2.3-18.3-11.3 c45.4,6.2,109.1,0.7,115.3-2c13.6-5.8,115.7-8.6,121-3.4c2.3,2.3-15.4,7.7-31.5,9.6c-2.4,0.3-4.4,1.8-4.7,3.4 c-0.8,4.2,5.1,3.8,24.5-1.4c23.3-6.3,25.9-6.3,35.4-10.4C4918.1,385.4,4930.5,386.7,4931.2,392.1z M4655.9,420.9 c-3.6-3-13.1,1.3-13.1-3.1c0-1.9,3.2-2.8,13.8-3.7c7.6-0.6,14.4-1.5,15.1-2c1.5-0.9,29.2,2.2,30.5,3.4c2.6,2.5-6.8,5.6-16.9,5.6 c0-0.2-12,0.2-15.2,1.3C4665.7,424.1,4658.8,423.3,4655.9,420.9z M4667.7,440.4c-0.4,2-1.5,2.2-8.5,1.3c-8.1-1-6.6-4.1,1.7-3.5 C4664.8,438.6,4667.9,439.5,4667.7,440.4z M4647.9,448.3c4.6,2.1,5.1,4.2,1.8,8.5c0.2,0-4,6.4-7.7-0.4 C4639.1,450.8,4642.7,445.9,4647.9,448.3z M4644.6,424.6c4.3,0,2.6,7.9-1.4,3.9C4641.2,426.5,4641.9,424.6,4644.6,424.6z M4695.2,467.7c0.5,1.6-2.8,2.1-12.8,2.1c-11.1,0-13.5-0.5-13.5-2.6C4668.8,463.8,4694.1,464.3,4695.2,467.7z M4894.6,231.4 c1.7-1.1,10.2,5.2,10.2,7.5c0,2-5.1,1.9-8.8-0.3C4892.9,236.8,4892.1,232.9,4894.6,231.4z M4825.7,260.4c2.6-2.6,16.1,1,15.1,4 c-1,3-10,3.3-13.8,0.5C4824.4,263,4824.1,262,4825.7,260.4z M4877.2,303.3c17.5-3.9,24.3-4.8,24.2-3.2c-0.2,8.2-9.5,36.5-1.6,54 c5.7,12.5,6.7,12-24.7,10.8c-23.3-0.9-29.6-0.6-37.5,1.7c-5.2,1.5-13.3,2.8-18.1,2.8c-12.4,0-13.6,2.2-41.1,5.1 c-15.6,1.7-28.3,4.3-27.5,4.3c-15.1,3.8-87,2.2-101.3-2.2c-6.7-2.1-13.5-14.7-11.1-20.7c9.6-24.1,48.2-38.3,110.7-40.9 C4837.7,311.2,4844.7,310.6,4877.2,303.3z M4700.6,303.2c0-3.3,5-3.3,5,0C4705.7,306.6,4700.6,306.5,4700.6,303.2z M4715.6,288.3 c2.3-2.8,16-6.7,18.4-5.2c3.3,2,1.9,5.8-3.1,8.4C4721.8,296.2,4711,293.9,4715.6,288.3z M4771.8,278.3c11.6-2.4,12,4.5,0.6,10.1 c-9.7,4.7-21.5,6.7-21.5,3.6C4750.9,289.1,4765.2,279.7,4771.8,278.3z M4771.9,254.5c5.5-1.4,8.8,1.5,5.8,5.1c-1.2,1.4-3,2.5-4,2.4 C4766.6,261.6,4765.4,256.2,4771.9,254.5z M4796.6,240c7.6-2.5,13,3.9-0.4,6.5C4789,248,4789.3,242.4,4796.6,240z M4511.5,228.8 c14.4-5.7,19.6-17.5,46.9-19.5c11.9-0.8,24.8-2.1,32.6-3.2c10.5-1.4,56.3-0.9,70.2,0.8c18.9,2.3,16.5,1.2,48.8,2.5 c69.7,2.8,87.2-0.6,78.5,8.1c-1.7,1.7-7.6,3-17.5,3.7c-28.9,2.3-15.3,5.2-15.3,13.3c0,1.6,1.6,2.5,4.1,2.5c11.2,0,4,10-13.5,10 c-5.8,0-8,2-9.6,8.8c-1,4.3-1.6,4.6-10.3,4.6c-11.2,0-20.4,3.6-22.3,8.6c-3.1,8.5-44.8,12.3-31.1,22.3c4.1,3-4.5,6.1-21,7.5 c-9.6,0.8-12.6,1.6-12.6,3.5c0,5.2,12-1.9,13.7,2.7c0.4,1-4.1,4.7-9.9,8.1c-10.9,6.4-20.4,17.2-19.4,22.1c1,5.1,4.1,4,7.1-2.5 c3.6-8.1,25.4-20.8,27.3-15.9c0.7,1.8-0.7,4.1-3.8,6.8c-31.8,26.7-38.1,37-30.7,50.8c1.6,2.9,0.8,3.7-7.1,7.2v0 c-13.7,6-28.1,7-28.1,2c0-3.1-6.7-13.7-6.7-21.5c0-35-25-57.2-71.1-63.2c-5.5-0.7-12.2-2.1-14.8-3.2c-9.7-3.9-14.3,2.1-14.6-14.4 c0-2.8-1.2-6.5-2.5-8.3C4470.8,262.5,4489,237.7,4511.5,228.8z M4622.8,443c3.3,0,3.3,5,0,5C4619.5,448,4619.5,443,4622.8,443z M4612.5,435.9c-2.9-4.7,6.7-1.6,12-0.2C4622.3,436,4613.7,437.8,4612.5,435.9z M4599.6,396.7c-2.2-2.2-1.1-4,3.3-5.7 c5.6-2.1,8.5,0.3,4.7,4.1C4607.7,394.9,4603,400,4599.6,396.7z M4595.3,405.1c-2.8,3.4-6.7,3.5-8,0.1c-1.7-4.4,3.1-7.9,7-5.1 C4597.1,402.1,4597.2,402.8,4595.3,405.1z M4546.6,393.4c12.3-14,14-39.5,3.1-45.7c-2.6-1.5-4.7-3.2-4.7-3.8 c-0.1-5.9,17.5,1.2,20.2,8.2c1.8,4.6,1.6,6.9-1.7,25.2c-3.6,19.7-14,24.8-13.8,24.8C4540.2,407,4538.6,402.5,4546.6,393.4z M4504.3,395.4c9.6,3.1,23.1,1.5,23.1-2.7c0-1.8-3.4-2.9-12.9-4.1c-21.3-2.8-20.5-7.1,2-11c15.8-2.7,16.7-3.1,16.7-6.4 c0-5.6-6.1-3.4-1.3-7.3c5.8-4.7,3.2-5.7-12.6-5c-17.8,0.9-20.8-0.5-21.6-9.6c-0.6-7,5.4-7.8,13.1-1.8c3.7,2.9,6.8,3.4,19.3,3.4 c19.1,0,22,4.9,15.6,26.5c-3.9,13-9.5,17.9-29.8,26.1v0c-11.4,4.6-22.8,2.1-22.8-5.1C4493.1,393,4495.1,392.4,4504.3,395.4z M4496.5,368c0-3.7,0.5-4,5.3-3.1c7.3,1.5,10.4,4.2,7.9,7.1l0,0C4505.3,377.3,4496.5,374.6,4496.5,368z M4513,321.7 c6.6-4.1,31.8,10.5,26,14.9l0,0c-4.2,3.2-4.5,3.1-9.1-0.8c-2.1-1.8-5.3-3.3-7-3.3C4516,332.5,4508.6,324.5,4513,321.7z M4197.9,206.3c11.4-4.4,49.2,2.3,49.2,8.6l0,0c0,2.5-4,2.5-25.7-0.5C4195.4,210.9,4190.5,209.2,4197.9,206.3z M4207,220.6 c18.3,3.2,40.8,2.6,44.6,12.4c1.1,2.8,11.5,6.5,14,5c2.8-1.7,1.9-5.3-1.9-7.9c-5.1-3.4-3-8,3.5-8c7.6,0,10.4,5.5,9.8,19.4v0 c-0.6,13.4-0.8,13.5-14.7,7.4c-25.7-11.3-33.4-13.8-46.9-15.5c-17.4-2.1-43.8-2.4-52.3-0.5c-6,1.3-6.3,1.2-6.3-2.9 C4156.8,219.5,4177.9,215.5,4207,220.6z M4265.2,314.1c-0.7,5.7-6.7,6.1-16.7,0.8c-15.3-8.1-41.1-12.7-58.3-14.3 c-35.6-3.3-32.9-2.6-34-9.4c-1.5-9.2,1.8-11,13.3-7.3c2.7,0.9,14.6,2.7,26.6,4.1c18,2,24.7,3.6,38.9,9.3 c19.2,7.6,23.9,8.4,23.9,3.7c0-2.8-6.1-7-10.2-7c-3.6,0-26.1-13.4-48.1-13.4c-23.3,0-43.8-3.7-43.8-8c0-4.1,0.1-4.1,13-3.1 c35.1,2.6,44.8,1.7,58.2,7.2c28.1,11.6,46.1,13.9,40.4,27C4266.7,307.5,4264.9,314.1,4265.2,314.1z M4254.7,266.3 c-19-10.5-13.7-5.1-28.5-12.4c-15-7.5-12.8-3.3-23.4-7.7c-6.1-2.5-23.8-1.7-41.4,1.9c-3.9,0.8-4.6,0.4-4.6-2.6 c0-8.9,63.2-9.4,73.8-0.7c6.4,5.3,41.7,11.1,41.7,26h0C4272.2,275.3,4269.6,274.6,4254.7,266.3z M4237.5,272.1 c-10.8-5-14.1-9.1-5.9-7.2c7.4,1.7,20.2,7.5,22.3,10C4257.3,278.9,4249.1,277.5,4237.5,272.1z M4267.5,281.2c0.3-1.7,2-3.3,3.7-3.7 c2.2-0.4,2.9,0.3,2.5,2.5c-0.3,1.7-2,3.3-3.7,3.7C4267.8,284.1,4267.1,283.4,4267.5,281.2z M4157.4,256.8 c8.5-8.5,70.8-1.6,65.4,7.2c-1,1.6-14.6,2.3-16,0.9c-0.4-0.4-12-1.1-25.7-1.5C4155.9,262.7,4152.5,261.7,4157.4,256.8z M4155.1,314.3c0-12,17.2-12.7,61.5-2.7c9.5,2.2,1.6,3.3-22.6,3.3c-21.8,0-27.3,0.5-32.1,2.9 C4154.6,321.6,4155.1,321.9,4155.1,314.3z M4183.4,336.2c24.8,0.5,32.7,1.4,30.1,3.6c-3.6,3.2-58.4,2.5-58.4-0.7 C4155.1,335.7,4155.5,335.7,4183.4,336.2z M4156.3,324.5c3.8,0.7,3.9,5.3,0,6.1c-2.1,0.4-2.9-0.5-2.9-3S4154.3,324.1,4156.3,324.5z M4231.2,346.7l5.3,5.4c8.3,8.5,12.3,6.8,7.7-3.3c-2.8-6.1-7.1-7.9-19.3-8c-3.7,0-4.6-0.8-4.6-4c0-7.2-3-7.9-28.6-7.5 c-23.8,0.5-29.8-0.9-22-5.1c11.6-6.2,82.4,0.9,82.4,8.2c0,0.7,1.9,3.6,4.3,6.4c4.3,5.1,4.7,14,1.5,29.9c0.2,0.1-1.1,3.8-2.8,3.7 c-5.6-0.2-15.9-5.4-19.6-9.9c-8-9.7-15.3-8.6-82.8-7.6l-0.5-3.8C4151.4,346.9,4146.9,347.5,4231.2,346.7z M4235.9,388.8 c8.8,4.2,7.7,6.3-2.7,4.9c-40.4-5.4-68.2-5.5-73-0.3c-5,5.4-1.3,6.8,8.7,3.4c16-5.4,83.3,4.5,84.5,12.5l0,0 c1.4,9.6-7.3-4.8-73.7-4.8h-26.6l1-24.3C4185.5,380.4,4216.1,379.3,4235.9,388.8z M4173.9,369c4.3-1.5,16.3,0.7,16.3,3.1 c0,1.7-2.4,2.3-9.2,2.3C4172.2,374.4,4167.9,371.1,4173.9,369z M4196.9,361.7c0-3.3,23.6-2.9,24.7,0.5c0.5,1.6-2.6,2.1-12,2.1 C4199.3,364.3,4196.9,363.8,4196.9,361.7z M4247.1,386.1c-7.9-5.1-38.5-9.2-38.5-11.7c0-4.5,20.2-3.4,30.1,1.6 c8.9,4.5,15.1,5.9,15.1,9.2C4254.2,385.2,4253.3,390,4247.1,386.1z M4143.4,252.2L4143.4,252.2c0,6-3.9,6.3-13.5,1.3 c-14.7-7.6-21.5-4.7-46.1-12.2c-4.8-1.5-30.1,1.7-40.5,5.1c-10.6,3.5-14.5,2.8-14.5-2.5c0-5.8,9.5-8.2,37.5-9.1 C4105.4,233.4,4143.4,242,4143.4,252.2z M4063.4,404c0.9-2.9,13.5-4.2,40.6-4.4c23.3-0.1,30.3,1.2,26.6,4.9l0,0 C4126.8,408.3,4062.2,407.8,4063.4,404z M4111.2,393.6c-76.4,1.2-73.6,10-74.4,10c-2.4,6.3-9,0.3-9-8.2c0-4,0.5-4.3,8.4-4.3 c13.1,0,35.8-5.4,50.9-4.9c5.6,0.2,18.6-0.3,28.9-1c16.9-1.2,18.9-1,19.9,1.6C4138,392.1,4133.9,393.3,4111.2,393.6z M4053.7,406.8 c0,0.2-5.7,2.2-8-0.1C4039.3,400.3,4064.4,402.7,4053.7,406.8z M4131.1,373.2c4.7,3,0.2,5.8-9.2,5.8c-51.1-0.2-64.5,5.4-90.7,9.2 V383C4031.2,374,4119.1,365.4,4131.1,373.2z M4048,365.6c0-2.3,5.2-3.5,29.9-7.2c11.7-1.7,45.4,0.8,45.4,3.5 c0,3.4-6.9,4.1-36.8,3.9c-15.2-0.1-30.1,0.3-33.1,1C4049.2,367.6,4048,367.4,4048,365.6z M4123.3,352.6c-7.1-2.3-13.7-2.9-29.3-2.6 c-31.9,0.6-20.1-4.3-37.5-0.1c-38.3,9.2-41-4,13.1-9.7c8.9-0.9,13.6-3.2,11.3-5.5c-2-2-18.2-0.5-31.7,3 c-13.6,3.5-19.8,3.6-20.9,0.3c-2.7-8.2,51.1-15,75.3-9.5c7.3,1.7,10.8-0.3,7.4-4.1c-6-6.7,0.4-9.1,14.1-5.3 c12.4,3.4,15.8,12.4,11.8,30.8l0,0C4135.5,356.1,4134.6,356.3,4123.3,352.6z M4055.5,258.9c-21.3,5.9-26.3,6.2-25.7,1.4 c1.3-9,42.2-14.4,64.4-8.6c7.2,1.9,16.9,4.3,21.4,5.4c8.6,2,20.6,11.8,18.5,15.2c-1.4,2.3-2.7,2.1-8.4-1.7 C4106.4,257.7,4077.2,252.9,4055.5,258.9z M4100.7,275.6c-12.6-3.8-35.8-4.2-48.8-0.8c-14.4,3.7-19.3,3.4-18.7-1.3 c1.1-7.7,45.7-12.9,62.3-7.2c13.2,4.5,24.4,9.6,24.4,11.2C4120.2,277.5,4120.1,281.4,4100.7,275.6z M4106.1,284.2 c13.6,5.8,8.8,8.2-16.3,8c-9.7-0.1-25.4,1.1-35,2.5c-24.1,3.6-25.2,3.6-25.2-1.6C4029.6,281.5,4084.8,275,4106.1,284.2z M4123,301.8c10,6.4,5,7.4-37.3,8.1c-22.1,0.3-43.6,1.1-47.9,1.8c-7.9,1.2-10.7-0.2-9-4.6C4031.1,300.9,4114.3,296.3,4123,301.8z M4130.9,229.1c7.6,3.5,3.5,6.6-3,2.9C4123.4,229.4,4126,226.9,4130.9,229.1z M4031.8,221.2c12.1-7.9,65.1-8.2,77.7-0.5 c11,6.8,1.4,11.5-12.6,6.2c-5.7-2.2-56.3,1.7-61.6,2.7C4027.2,231.3,4024.9,225.8,4031.8,221.2z M3911.3,247.6 c8.2-8.2,59.4,0.1,80.4,13c4.4,2.7,9.9,5.4,12.1,6c4.5,1.1,5,2.6,2.4,7.5c-2.3,4.3-4.3,4-13.3-2c-10.7-7-20.4-9.6-52.6-14.1 C3912.1,254.1,3906.7,252.2,3911.3,247.6z M3995.6,381.3c-9.8,10.6-23.9,14.1-35.5,8.8c-3.2-1.5-7.9-1.9-13-1.3 c-18,2.2-5.8-8.8,3.8-21c2.3-2.9,4.9-6.3,5.9-7.4c3.4-4.3,15.9-3,15.9-11c0-4.1,8.5-11,14.5-20.5c8.6-13.6,17.4,1.8,17.2,30 l-0.1,13.1C3994.5,382.4,3995.6,381.1,3995.6,381.3z M3886.6,271.3c3.7,3.7,11.7,1.7,22.9,4.2c27.3,6.2,48.4,5,59.9,16 c6.8,6.5,11.2,5.8,9.4-1.6c-2.5-9.8-33.1-18.5-78.4-22.3c-10.6-0.9-15.2-4.2-11.2-7.9c2.5-2.4,20.2-1.1,34.2,2.5 c18,4.7,56.8,7.9,66.9,17.3c5.8,5.4,5.8,5.4-8.4,19.9h0c-13.2,13.5-17.5,15.7-17.5,9c0-9-21.4-20.1-47.7-24.6 c-18.1-3.1-18.2-5-30.4-5c-8.4,0-9-0.3-9-4.1C3877.3,269.7,3882.9,267.6,3886.6,271.3z M3876,249.1c4.4,0.6,6.2,7.7,2.7,9.9 c-4.5,2.8-6.4,1.2-6.4-5.6C3872.3,249.4,3872.9,248.7,3876,249.1z M3871.4,296.3c3.2,3.4,5.6,4.4,11.3,4.4 c23.2,0,51.6,11.1,56.9,22.3c3.5,7.3,5.2,7.7,9,1.9c7.3-11.1-26.7-28.4-62.1-31.6c-10.3-0.9-14.2-2.6-14.2-6.1 c-0.1-2.5,13.4-2.9,21.1-0.7c15.4,4.5,57.9,8.4,62.8,22.7c0.9,2.7,3.1,5.3,4.9,5.9c6,1.9,1.5,8.2-24.9,34.7l0,0 c-11.6,11.7-9.7,11.7-19.7-0.5c-13-15.9-24.6-19.9-58.1-20c-19.4,0-21-1.5-12.9-11.8c9.3-11.8,4.4-1.6,20.2-1.6 c15.9,0,58.7,13.7,62.6,20c3.4,5.5,8.9,0.6,6.5-5.8c-2.4-6.2-41.4-19.1-66.9-22.1c-10.8-1.3-11.7-2.2-8.2-9 C3863.4,291.9,3866.6,291.2,3871.4,296.3z M3887.3,379.1c-5-3.4-24.2-9.8-29.3-9.8c-2,0-7.3-1.1-11.9-2.5c-4.5-1.4-14.1-3-21.2-3.6 c-18.3-1.6-15.7-2.7,2-21.2l12.2,1.1c20.9,1.9,43.9,10.8,39.2,3.1c-2.3-3.7-27.8-3.1-27.8-8.1c0-2.8,10.4-3,27.3-0.6 c24.7,3.6,47.5,25.1,38.2,36.1c-0.1,0.2-7.5,8.8-7.3,8.8C3904.7,387.3,3898,386.2,3887.3,379.1z M3871.5,400.8 c-4.3-2.5-17.9-4.1-45.3-10.5c-19-4.4-29.3-5.4-29.3-2.8c0,2,3.5,3.2,13.3,4.5c12.3,1.6,14.8,5.7,3.5,5.7c-20.5,0-29.9-7.1-21.1-16 c5.7-5.7,19.9-4.8,62,4c28.6,6,34.3,8.5,32,14.4v0C3885.5,403.3,3876.3,403.6,3871.5,400.8z M3849.5,404.7 c-1.3,2-10.7,1.7-15.4-0.6c-6-2.9-3.4-5.5,4.8-4.9C3846.6,399.8,3851.1,402.1,3849.5,404.7L3849.5,404.7z M3777.4,402.3 c-2.7-2.7,1.2-6.5,5.7-5.7C3828.5,405.7,3783.3,408.1,3777.4,402.3z M3855.4,223.7c3.8,0,6.8,2.3,6.8,5.2c0,3.6-1.2,3.8-5.4,1.4 C3853.7,228.5,3852.7,223.7,3855.4,223.7z M3795.6,226.2c0.8-2.3,16.2-1,21.8,1.8c2.5,1.3,6.9,2.4,9.7,2.4 c7.3,0,22.1,7.8,21.5,11.2c-0.8,3.9-2.8,3.9-13.1-0.4C3814.7,232.6,3794.1,230.7,3795.6,226.2z M3786.1,236.1 c3.9-3,7.1-2.5,25.1,3.6c34.1,11.5,54.4,21.9,54.4,27.9c0,11.4-29.8-16.7-69.3-21.6C3784.7,244.4,3780.4,240.3,3786.1,236.1z M3779.3,249.5c4.8-3.5,51.7,10.2,55.4,16.1c0.5,0.8,4.5,3.1,8.8,5c22.8,10.1,15.5,20.6,8.5,11.2c-2.8-3.7-23-12.7-35.7-15.9 C3780.4,257,3771.4,255.3,3779.3,249.5z M3748.3,291.9c1.5,0.9,5.1,2.2,8,2.9c6.2,1.4,10.5,5.5,6.9,6.7c-4.2,1.4-25.1,2-25.8,0.8 C3734.4,297.3,3743.3,288.8,3748.3,291.9z M3722,322.7c7.5-9.3,6.1-8.9,21.4-5.9c9.4,1.8,6.2,6-3.6,4.7c-9.7-1.3-11.2,2.1-2.2,4.8 c23.2,6.8,36.6,7.9,35,2.7c-1.1-3.4-0.8-3.5,6.2-2.3c23.2,4.3,24.4-3.3-0.2-6.7c-21.8-3-33.2-7.5-26-10.3 c6.9-2.6,44.9,7.4,54.7,14.4c5.6,4,11.6,5.5,14.6,3.5c4.9-3.2-6.5-10.3-27.1-17c-14.9-4.8-16-7.2-2.5-5.8 c20,2.1,42.5,17.8,38.9,8.4c-1.3-3.3-33.2-15.5-43.9-16.8c-15.4-1.8-23.7-8.7-26.8-5.5c-2.1,2.1-1.9,2.4-6.6-6 c-13.1-22.8,30-2.7,65,8.2c4.5,1.4,9.3,4.5,11.9,7.6c4.8,5.7,9.9,5.7,9.9-0.1c0-5.9-22.8-17.5-53.5-27.2 c-13.3-4.2-17.7-6.3-18.2-8.7c-1.5-8.1,32.8,7.1,60.4,13.1c6.6,1.4,15.7,12,20.3,12.9c8.2,1.6,2,7.1-18.6,34.8 c-11,14.8-20.3,22.2-25.4,29.8c-0.2,0-3.6,5.4-5.7,5.3c-6.2-0.4-12.6-3.9-19.4-10.4c-8.7-8.3-20.7-11.8-47.3-13.8 C3714.1,335.3,3712.9,333.8,3722,322.7z M3700.8,349.8c3.8-1.4,43.8,2.8,52.4,5.5c5.9,1.9,8.4,1.9,13,0.3c5.2-1.9,6-1.7,10.3,2.3 c2.5,2.4,7.4,5.5,10.9,6.9c6.4,2.6,7.8,5.6,4.3,9.1l0,0c-3.1,3.1-6.7,2.4-12.6-2.3c-6.1-4.8-11.5-5.9-59.2-12.3 C3700.8,356.9,3692.9,352.8,3700.8,349.8z M3693,360.6c12.5,2.7,38.6,8.7,51.2,10.4c23.5,3.3,28,4.5,32,8.6 c8.2,8.2-1.3,12.6-8.2,7.4c-3.6-2.8-23-8.8-32.2-10c-22.1-2.9-46.2-10-45.6-13.5C3690.5,361.7,3691.7,360.4,3693,360.6z M3769.3,399.5c-1.8,5.5-6.6,7.1-11.1,3.5c-6.1-4.7-21.8-13.1-27-14.3c-6.8-1.6-10-11.1,18.8-0.7 C3766.7,394,3771.7,391.9,3769.3,399.5z M3664.3,356.4c2.3-10.8,1.6-11.2,1.9,2.5c0.1,5.8-0.2,10.5-0.7,10.5 C3663.3,369.3,3662.8,363.7,3664.3,356.4z M3682.3,370.7c1.2,0.3,32.3,8.7,33.5,8.7c0.5,0,0.8,0.8,0.8,1.7c0,1.1-5.9,1.3-16.6,0.6 c-19.1-1.2-24.8-0.2-19.5,3.7c1.8,1.3,6.3,2.4,10,2.4c14.5,0.1,49.5,10.7,49.5,15.1l0,0c0,2.8-20.5,1.6-30.1-1.8 c-13.5-4.7-24-6.7-33.1-9.3c-3-0.9-3.8-0.4-3.8,2.3c0,4.9-4.1,7.7-8.1,5.6C3658.3,396,3665.4,389.3,3682.3,370.7z M3574.8,245.5 c5.7,0,6.3,4.5,0.8,6.5c-7.5,2.8-14.3,3.7-15.4,2C3558.7,251.6,3569.2,245.5,3574.8,245.5z M3586.9,254.6 c20.1-7.4,64.4,2.6,64.4,14.5c0,11.4-12.9-13.8-72.8-1.3c0.2,0-20,4.2-23,5.3c-2,0.8-3.3,0.2-4-1.8 C3547.7,261.4,3567.1,261.9,3586.9,254.6z M3635.5,286.2c-13.2-7.1-43.7-7.6-77.6-1.2c-8.6,1.6-6.6-4.6,2.3-7.1 c40.4-11.7,94.7-6.5,89,8.4C3649.8,286.3,3646.3,292,3635.5,286.2z M3625.4,297.8c-14.6-3.9-15.9-3.9-43.3-2.2 c-15.6,1-28.7,1.4-29.3,0.8c-1.6-1.6,4.9-5.6,10.6-6.5c21.7-3.5,34.8-6.3,40.4-4.2c2.4,0.9,6.4,1.5,8.9,1.4 c6.5-0.4,28.8,7.2,30.5,10.5C3645.5,302.1,3641.7,302.1,3625.4,297.8z M3554.6,304.2c4.9-3,45.9-5.3,58.2-3.2 c21.1,3.6,41,13.1,22.6,10.8c-30-3.7-49.2-5.4-79.1,0C3549.7,313,3548.6,308,3554.6,304.2z M3548.6,393.6c0.4-1.1,9.9-1.5,26-1.1 c22.8,0.6,25.6,0.3,27.6-2.4c2-2.7,3-2.8,11.1-0.8c10.6,2.5,15.2,1.9,16-2c0.9-4.8-5.3-1.3-11.8-4.8c-4.6-2.4-44.3-1.6-66.8-1.4 c2.8-17.4,0.5-16.9,18.7-15.1c46.2,4.5,79.5-2.4-8-4.9c-17.8-0.5-9.8-8.5,8.6-8.5c13.4,0,17.7-3.2,7-5c-9.5-1.7-7.1-5.5,2.7-4.4 c16,1.8,44.1,3.1,50.5,5.8c5.2,2.2,7.8,1.4,7.8-2.4c0-5.6-46.9-11.6-79.5-10.1c-8.7,0.4-11.1-6.3-3-8.3c12.5-3.2,61.4-1.5,67.5,2.4 c6.4,4.1,14.1,5,13,1.6c-2.7-8.8-31.7-13.7-60.6-10.2c-21.5,2.6-26.7,1.5-18.4-3.9c5.8-3.8,74.3-4.1,81.2-0.4 c2.1,1.1,5.3,2.1,7.2,2.2c7.3,0.4,2.9,40.8-5.4,50c-3.3,3.7-2.9,10.6-2.9,28.8C3550.8,399,3546.4,399.9,3548.6,393.6z M3541.7,247.2c3.3,0,3.3,5,0,5C3538.4,252.2,3538.4,247.2,3541.7,247.2z M3447.7,217.1c10.3-3.4,45.9,2.3,52.1,8.4l0,0 c1.9,1.9-4.8,1.8-10.8-0.1C3481,222.9,3422.9,225.3,3447.7,217.1z M3423.9,220.4c3.3,0,1.3,3.5-3.1,5.2c-12.3,4.8-15.5,5-15.5,0.6 C3405.3,224.6,3418.7,220.4,3423.9,220.4z M3394,232.2c9.9-0.2-8.8,13.1-8.8,6.4C3385.2,236,3390.4,232.2,3394,232.2z M3462.6,232.1c41.3,2.6,70,14,76.3,30.3h0c1.2,3.2-6.2,0.9-18.1-5.5c-38.4-20.7-69.2-21.1-121.1-1.6c-21.3,8-18.8,7.5-20.1,4.2 C3374.6,246.7,3425.9,229.8,3462.6,232.1z M3538.2,291c-2.1,3.4-7.5-0.8-4.1-4.2C3536.2,284.7,3539.8,288.4,3538.2,291L3538.2,291z M3537.2,303.5c0.8,5.3-3.2,7.6-8.4,4.8c-22.5-11.7-90.7-15.7-130.9-7.7c-12.7,2.5-18.6,3.1-19.9,1.8c-4.1-4.1,8-8.2,34.1-11.7 c66.3-8.9,65.2-9,115.5,6.5C3534.2,299.4,3536.8,301,3537.2,303.5z M3496.8,263.9c-29.7-7.7-18.3-11.2-69.7,1.8 c-23.3,5.9-41.9,8.6-44.1,6.5c-2.4-2.3,0.5-5,5.3-5c2.5,0,12-2.7,21.2-6c25.1-9,25.2-9,48.5-10.6c20.4-1.4,22.5-1.2,33.5,2.4 c36.9,12.1,49,27.3,46,27.3c0,3-3.7,2.3-8.4-1.6C3522.4,273.1,3509.6,267.2,3496.8,263.9z M3421.2,274.8 c42.5-11.2,45.7-11.7,57.2-7.8c18.1,6.1,17.3,2.8,36.3,12.3c16.4,8.2,15.3,11.5-2,5.5c-6.6-2.3-17.4-5-24-5.9 c-17.3-2.5-15.8-4-32.5-1.6c-22.1,3.1-44.9,3.5-58.5,8.2c0.2,0-18.1,6.9-20.4,0.8C3374.5,278.7,3391.3,282.8,3421.2,274.8z M3395.3,308.6c52-8.8,83.2-7.2,133.9,7.1c2.9,0.8,4.3,2.5,4.7,5.7c0.6,4.9-0.6,5.2-8.9,2.7c-39.1-12-96.9-15-127.1-6.6 c-15.6,4.4-22.7,4.5-22.7,0.2C3375.2,312.8,3378.1,311.5,3395.3,308.6z M3519.9,339.9c-53.2-11.8-89.8-13.5-120.3-5.7 c-18.8,4.8-23.2,4.6-22.5-1.1c1.3-11.1,71.4-17.4,108.5-9.7c33.2,6.9,46.4,6.7,47.9,11.5C3535.4,340.7,3531.1,342.4,3519.9,339.9z M3533.3,353.5c0,10-25.7-5.7-70.3-5.9c-20.5-0.1-17.9-3.6-38.9-3.6c-14.3,0-18.1-1.6-12-4.9c4.4-2.4,67.2-1.1,73.5,1.5 c2.3,0.9,11.7,2.9,20.9,4.4C3530,348.7,3533.3,349.7,3533.3,353.5z M3394.4,403.7c26.6-0.1,28.5-0.3,29-3.2c0.6-3-0.5-3.1-23.4-2.3 c-25.4,0.9-28.2,0.6-28.2-2.8c0-2.9,58-4.8,68.2-2.3c8.5,2.1,18.9,0.5,18.9-2.9c0-4.1-7.6-4.7-46.7-3.7c-40.5,1-42,0.9-42-3.7 c0-6.8,18.6-8.9,47.6-5.4c13.8,1.7,18.2,1.2,17.2-1.9c-1.1-3.3-10.1-4.7-36-5.7c-24.8-1-25.6-1.1-25.1-4.5 c0.5-3.8,16.7-7.2,23.9-5.1c8.9,2.6,30.2,1,43.1,7.3c6.3,3.1,8.5,3.4,11.3,1.9c8.6-4.6-5.6-11.1-28.3-13 c-11.2-0.9-14.4-1.8-14.4-3.7c0-3.4,17.8-3.2,39.3,0.4c19.1,3.2,62.6,6.2,82.3,12.3c3.2,1,2.7,5.3,1.9,36.7 c-31.1,2-86.2,5.9-90.8,4.7c-2.1-0.5-6.3,1.1-11.2,4.3c-8.3,5.5-9.1,5.6-19.8,3.5c-9.9-1.9-44.3-3.2-44.6-5.2 C3365.6,403.9,3366,403.8,3394.4,403.7z M3365.1,415.9c33.6,2.3,36.8,2.2,36.8,5.1c0,1.4-32,4.8-35.1,3.8 C3364.7,424.2,3365.1,418.2,3365.1,415.9z M3363.5,429.6h44c2-2,11-12,13-10.8c2,1.3-4.5,14-7.9,15.3c-3,1.1-2.2,4.7-0.4,21.6 c-50.4-0.2-48.7,0.9-48.7-6c0-6,0.7-6.2,22.3-5.1c18.4,0.9,24.3-0.1,19.5-3.3c-2.5-1.6-3.9-1.8-18.4-2.3 C3360.2,438,3363.5,439,3363.5,429.6z M3397.7,466.5L3397.7,466.5c-1.2,2-10.9,2-14,0.1c-3.3-2.1-0.8-5.2,4.2-5.2 C3393.2,461.4,3399,464.4,3397.7,466.5z M3366.1,485.5c7.4-1.9,24.7,3.3,29.8,0.6c6-3.1-0.4-5.5-16.6-6.1 c-14.3-0.5-15.8-0.9-15.8-3.8c0-4.9,3.4-5.4,24.7-3.2c28.7,2.9,28.9,3,21.3,14.2c-6.3,9.3-1.1,9.5-12.2,23.4h0 c-9.8,12.3-12.4,13.8-22.9,13.1c-12.4-0.8-10.7,0.8-12.8-37L3366.1,485.5z M2601.8,321.7c-0.7,3.7-5.3,5.8-4.5,1.5 C2598,319.5,2602.6,317.4,2601.8,321.7z M2593.8,317.1c-19.1,15.9-22.3,8-4.2-10.4c15-15.2,19.5-17.2,20.5-8.9 C2610.6,302.6,2609,304.5,2593.8,317.1z M2684.2,91.7c-2.2,6.3-6.4,4-17.1,10.7c-7.3,4.6-9.9,5.1-9.9,2c0-2.2,11.4-11.5,30.5-25.1 c10.5-7.5,13.7-11.3,9.5-11.3c-7.5,0-26.7,21-26.7,13.6c0-2.1,23.3-22,25.9-22c10.1,0,9.2,13.3-1.4,20.9 C2690,84.3,2685.1,89.3,2684.2,91.7z M2711,74.8c5.4,0,3.6,3.5-7.4,14.5v0c-10.3,10.3-13.4,12.1-15.2,9.1 C2686.9,96.1,2707.3,74.8,2711,74.8z M2672.4,28.6c-2.6,3.2-7.4,3.6-6.4,0.6c0.4-1.2,2.5-2.4,4.7-2.7 C2674.2,26,2674.4,26.3,2672.4,28.6z M2630.5,37.3c0-6.6,34.4-21.4,37.6-16.2c0.5,0.8-1.5,3.2-4.5,5.3 c-17.5,12.1-56.8,48.8-75.5,63.9c-4.5,3.6-7.8,7.8-7.8,9.6c0,4.5,0.8,4.2,7.4-3c5.8-6.4,10.2-6.5,6.3-0.2c-3.8,6-0.4,5.6,6.2-0.8 c9.9-9.7,13.9-6.4,23.9-13.6c10.1-7.3,18.9-9.8,14.4-10.6c-5.5-1.1,17.9-27.2,30.3-33.6c2.4-1.3,7.9-5.2,12.2-8.8 c10.3-8.6,18.2-8.3,16.8,0.6c-0.3,2,0.3,2.6,2.1,1.9c8.6-3.3,2.3,17.3-6.7,21.9c-13.7,7.1-5,9.1-54.2,41.7 c-29.8,19.7-45.6,32.1-27.1,21.2c15.6-9.2,3.4,7.1-17.1,22.9c-2.7,2.1-4.5,4.1-4,4.6c1.4,1.4,18.2-10.7,29.9-21.6 c22.4-20.9,31.7-27.5,31.7-22.7c0,4-48,47.6-62.7,57c-4.2,2.6-7.6,5.9-7.6,7.3c0,3.3,4,3.3,6.8-0.1c1.2-1.5,6.4-5.5,11.5-9 c5.1-3.5,13-10.3,17.6-15c9.8-10.1,22.9-20.1,26.3-20.1c4.1,0,15.4-11.4,17.3-8.2c2.4,3.8-30.3,33.9-53.8,49.5 c-32,21.3-22.5,19.6-30,24.1c-12.3,7.5-25.9,20.8-25.9,25.2c0,3.8-2.3,6.5-12.1,14.2c-13.4,10.6-33.1,29.1-33.1,31.1 c0,9.2,31.6-25.5,34.9-25.5c0.9,0,6.4-4.7,12.3-10.5c5.8-5.8,13.2-11.6,16.5-12.8c15.6-6.2,59-57.4,61.6-39 c1.1,7.9-16.3,8.2-81.1,66.2c-22,19.7-18.4,22,6.2,3.9c7.8-5.7,17.6-12.4,21.8-14.9c9.2-5.3,13.7-9.9,8.3-8.5 c-10.2,2.7,2.1-8.9,28.8-27c16.6-11.3,19.6-12.1,19.6-5.4c0,6.1-19.5,22.8-26.6,22.8c-1.9,0-3.5,0.7-3.5,1.5c0,0.8-2.3,1.9-5.1,2.5 c-3.9,0.8-5,1.8-4.6,4.2c0.6,3.4-8.5,12.2-22.3,21.6c-11.7,8-18.2,18.9-31.1,27.1c-5.5,3.5-8.8,6.7-8.8,8.7c0,3.5,1.9,2.9,8-2.6 c5.2-4.7,10.8-7.1,26.5-19c6.3-4.8,13.4-9.7,15.7-10.8c11.2-5.7,38.5-27.8,38.5-31.2c0-3.5,11.7-15.3,15.1-15.3 c3.3,0.1,15.3,21.5,14.1,25.2c-2.4,7.7-32.6,31.2-51.5,47.9c-21.8,19.3-32.9,25.4-40.5,32.3c-13.4,12.1-33.9,21.4-29.7,28.3 c3.6,5.9,2.4,8.2-11.4,21.5c-16.2,15.5-44.1,47.1-42.7,48.5c1.4,1.4,58.5-57.4,71.5-67.7c21.4-16.9,32.7-26.9,43.5-31.6 c2.9-1.3,4.7-3.7,5.4-7.1c1-5.1,7.8-8,7.8-3.3c0,3.3-32.1,34.8-50.2,49.4c-35,28-56.9,48.8-56.9,53.9c0,2-3.4,6.7-7.9,11 c-16.6,15.7-5.7,12.8,11.8-3.2c19.6-17.8,32.8-25.4,50.6-37c12.9-8.5,14.8-14,20.7-14.1c2.4,0,6.2-1.1,8.5-2.5 c11-6.3,20-0.1,13.4,9.2c-1.9,2.7-4.5,5-5.6,5c-3,0-28.9,12.8-30.3,14.9c-0.6,1-4,3.3-7.4,5.1c-8.1,4.1-23.2,17.8-21.5,19.5 c0.7,0.7,3.7-0.9,6.7-3.7c25.6-23.6,58.5-38.2,35.4-15.6c-4.2,4.1-10.3,11.2-13.6,15.8c-7.2,10.1-39.1,43.9-49.9,52.7 c-7.2,6-10.9,13.3-23.6,26.8c-7.8,8.2-14.6,19.6-10.9,18.1c2.3-0.9,27.1-28,27.1-29.6c0-4.2,17.3-18.3,20.2-16.5 c2.3,1.5,4.1,0.9,8.9-3.1c8.9-7.3,16.1-12.1,16.1-14.8c0-3.1,9.5-11.6,11.6-10.3c4,2.5,1.9,10.5-3.8,14.8 c-9.3,7.1-32.9,31.1-32.9,33.3c0,1.2,1.7,0.1,3.8-2.3c4.7-5.6,27.8-24.9,29.8-24.9c3.5,0-2.9,17.6-7.5,20.7 c-11.1,7.3-72.9,66.5-72.9,69.9c0,3.8,15.4-7,30.1-21.1c15.1-14.4,35.9-25.5,41.4-31.1c5.8-5.8,18.9-0.7,18.9,7.3 c0,8.3-20.2,36.2-26.2,36.2c-4,0-17,10.9-34,20.3c-8.1,4.5-47.2,26.3-53.9,32.8c-2.6,2.5-4.7,4.2-4.8,3.8 c-1.1-8.6,1.9-47.4,5.1-65.1c0.9-5,1.6-17.4,1.6-27.5c0-41.7,7.2-55.3,9.1-83c1.4-21.1,8.6-37.9,17.9-75.3 c5.8-23.2,10.6-35.8,13.9-55.2c3.4-19.6,12.8-43.6,17-65.2c2.3-12.2,4.6-18.2,10.2-27.5c3.9-6.6,7.2-12.5,7.2-13.3 c0.1-3.2,15.3-31.9,20.3-38.2c3-3.8,7.5-9.9,9.9-13.5c8.5-12.7,49.9-54.5,59.2-59.8C2625,48,2630.5,42,2630.5,37.3z M2617.9,76.6 L2617.9,76.6c-8.5,5.5-10.6,3.6-3.3-2.9c19.4-17.6,27.4-26.6,29.9-24C2646.4,51.7,2628.8,69.5,2617.9,76.6z M2577.8,299.3 c-11.9,9.1-17.1,11.9-18.2,10c-1.6-2.5,23.6-23.7,28.1-23.7C2593.4,285.7,2590.7,289.4,2577.8,299.3z M2546,351.4 c-4.1,2.1-11.9,9.4-11.6,9.4c-6.3,6.5-11,8.7-11,5.2c0-3.2,35.6-31.8,37.2-31.8C2566,334.2,2555.5,346.6,2546,351.4z M2577.7,418 c-3,5.7-7.5,6.6-7.5,1.4c0-4.6,5.2-13.2,7.9-13.2C2581,406.2,2580.8,411.9,2577.7,418z M1663.5,281.3c1.1,9.9-7,5.1-7-1.8 C1656.5,271.9,1662.6,273.4,1663.5,281.3z M1657.4,304.6c4.2-1.6,6.6,2.1,4.8,7.4c-0.9,2.5-2.9,4.8-4.5,5.2 C1653.8,317.9,1653.5,306.1,1657.4,304.6z M1646.7,312.8c3.3-0.6,5.8,28.4,4,46.1c-0.6,6-1.1,22.5-1.1,36.7 c0.1,39.6-2.3,27.3-4,58.3c-1.4,26.5-4,29-0.5,34.5c2.8,4.5,2.4,53.8,1.3,53.8c-0.7,6.9-6.8,0.1-6.8-7.6c0-4.9-0.9-17.1-2.1-27.2 c-3.6-31.4-0.8-115.7,1.9-129.6c1.3-6.5,1.7-16.2,1.1-24.3C1639.4,336.4,1642.8,313.5,1646.7,312.8z M1627.1,256.6 c8.4-3.2,16,24.7,11.3,41.5c-0.4,0-1.1,8.1-6.6,4.6c-1.4-0.9-1.9-6.6-1.7-19.4c0.3-15.5,0-18.4-2.6-20.2 C1624,260.6,1623.8,257.9,1627.1,256.6z M1629.7,474.9c0.2,0-0.2,4.9-1.6,4.9c-2.1,0-4.1-7.6-2.6-10 C1627.3,466.8,1629.7,469.6,1629.7,474.9z M1625.9,338.5c1-25.6,0.5-22.8,8.6-22.8c-1.5,64.3-2.1,65.4-2.4,65.4 C1626.9,389.7,1624.6,374,1625.9,338.5z M1625,517c0.5-24.6,3.1-28.8,6.1-10.1c4.5,27.9,4.9,32.3,3.2,34.4 C1634.3,541.5,1624.2,555.9,1625,517z M1625.5,446.3c1.7,0,2.5,1.7,2.5,5c0,4.8-1.5,6.3-3.9,3.9 C1621.9,453.1,1623,446.3,1625.5,446.3z M1623.8,282.4c-1.4,2.2-3.7,1.9-14.1-1.9c-21.8-8-41.2-10.7-72.4-10.4 c-24,0.3-28.5-0.7-21.2-4.6c6.3-3.4,51.3-4.1,61.7-1c5,1.5,11.3,2.7,14,2.7C1597.7,267.2,1625.1,280.2,1623.8,282.4z M1511.3,252.6 c11.1-8.9,93.3-1.8,93.3,8c0,2-2,1.9-13.4-1c-15.8-4-48.1-6.2-59.4-4.1C1509.3,259.8,1503.4,258.9,1511.3,252.6z M1464.5,247.2 c11.4-5.6,19.2-11.4,23.8-11.6c7.1-0.2,41.7-14.1,67.9-8c5.9,1.4,15.3,3.4,20.8,4.5c12.7,2.6,38.2,12.7,41.4,16.4 c7.2,8.4,3,11.5-7.4,5.5c-30.8-17.9-93.1-17.9-141.6,0l0,0C1453.2,259.9,1449.3,254.6,1464.5,247.2z M1449.4,278.5 c0.9-2.7,10.5-6.1,17.7-6.2c8.2-0.1,5.8,3.5-4,6.1C1452.6,281.2,1448.5,281.2,1449.4,278.5z M1459.8,289.4c7.4-0.2,14.9-1.1,16.7-2 c4.7-2.2,33.5-6.7,54.6-8.5c40.5-3.6,90.1,8.1,90.1,21.2h0c0,4.4-2.1,4.7-8.5,1.3c-4.3-2.3-18.3-5.4-41.1-9.2 c-15.9-2.7-38-0.4-65.9,1.2c-34.7,2.1-59.4,1.6-59.4-1.1C1446.4,290.4,1449.2,289.8,1459.8,289.4z M1619,315.5 c-1.7,2.7-7,2.2-17.7-1.6c-7.3-2.6-17.4-3.7-49.4-5.3c-56.1-2.8-54.9-9.5,1.7-8.7C1589.1,300.5,1623.3,308.6,1619,315.5z M1441.4,302.4c1.7-2.7,9.2-2,9.2,0.8c0,1.4-0.7,2.5-1.5,2.5c-0.8,0-2.7,0.4-4,1C1442.3,307.8,1439.9,304.9,1441.4,302.4z M1465.4,313.9c3,1.9,1.5,2.6-11.2,5.9c-13.6,3.5-15.3,3.4-15.3-0.6C1438.9,314,1459.2,309.9,1465.4,313.9z M1439.2,332.4 c4.6-2.5,134.7-0.8,148.6,1.9c19.6,3.8,20.1,3.8,20.1,1.2c0-7-13.7-9.4-62.8-10.7c-39.8-1-46-2.2-46-8.4c0-3.6,3.2-2.1,64.8,1.1 c48.4,2.5,61,9.9,53,30.8h0c-1.2,3-4.2,3.4-6.8,0.9c-8.7-8.7-122.3-13.4-156-6.5c-8.6,1.8-16.3,2.8-17.2,2.3 C1434,343.1,1435.5,334.4,1439.2,332.4z M1616.5,543.6c-52-1.1-52.9-1.9-53.2-2.3c-1.2-2,1.1-4.8,3-3.6c2.6,1.6,33.4-1.1,32.3-2.8 c-0.5-0.8-8-1.5-16.6-1.5c-16.9,0-21-0.8-21-4.2c0-4.9,19.6-5.8,32.4-1.5c8.3,2.8,16.9,2,15.7-1.5c-0.7-2.1-23-5.9-35.9-6.1 c-7.4-0.1-10.5-2.5-7.4-5.6c3.2-3.2,29.9,3.2,32.5,0.6c2.6-2.6-1.9-3.8-18.1-4.7c-13.6-0.8-15.8-1.4-15.8-3.9c0-4.4,3-4.8,23.5-3.1 c12,1,19.5,1,20.5,0c3.2-3.2-5.9-5.5-23.4-6c-18.1-0.5-22.2-2.2-18.9-7.5c1.1-1.8,4.6-1.9,18.7-0.4c18.7,2,20.4,1.7,16-2.7 c-3.3-3.3-9.2-2.9-42.1-2.9v-8.4c28.7,1,33.3,0.6,46.8,6.1c6.5,2.6,12,4.8,12.3,4.8c0.3,0-0.1,0.9-0.8,2.1 C1615.2,491.3,1616.4,537.5,1616.5,543.6z M1556.1,462.9c0-4.6,0.6-4.6,29.9-3.1c31.9,1.7,28.2,0.4,28.9,10.6c0.6,8.5-2,12-4.9,6.9 c-2.3-4-24.1-8.1-37.2-6.9C1561.3,471.4,1556.1,469.1,1556.1,462.9z M1450.6,377c13.7-1.1,59.6-1.1,71.5,0 c10.1,1,15.4-1.6,11.5-5.5c-4.8-4.8-78.9-5.4-87.5-0.7c-6.2,3.4-10.9,2.5-10.3-1.8c1.7-12.1,30.5-6.9,65.4-11.4 c10.6-1.4,16.1-1.4,19.9-0.1c15,5.2,15.1-1,16.6-7c25.2,1.6,32.7,1.4,48.8,7.4c7.6,2.8,16.3,5.5,19.4,6c11.3,1.8,8.7,8.9,8.7,44 c-1.4,56.2,1,29.4-40.7,32.8c-16,1.3-32.1-1.6-35.5-6.6c-11.3-16.2,49.4,5.2,49.4-3.6c0-5.7-59.4-13.1-62.6-7.8 c-1.2,1.9-15.3-2.4-29.3-4.8c-10.3-1.8-12.4-3.1-10.2-6.7c1.4-2.3,46.2-3,79.4-1.2c5,0.3,6.8-0.3,7.2-2.3c1.3-6.7-26.5-5-78.7-6.4 c-6.1-0.2-2.6-4.5,5.9-7.3c17.6-5.8,20.9-6.2,40.2-4.5c24.8,2.2,26.4,2.2,26.4-0.8c0-10.4-124.3-9.1-125.8,1.3 c-0.8,5.4-6.4,5.9-6.4,0.5C1433.9,383,1440.2,377.9,1450.6,377z M1267.9,544.1c-21.4,2-24.1-4.7-5.7-14.1c9.6-4.9,11-6.2,11-10.3 c0-12.7,20.4-5.5,28.4-9.8c4.3-2.3,78.6-3,86.3-4.1c2.8-0.4,18.6-1.9,35.1-3.4c61.2-5.5,74.3-8.5,107.3-24.4 c19.6-9.4,24.8,0.6,20.9,40.3c-0.6,6-1.8,10.9-2.7,10.9c-3.4,0.1-5.9,2.8-5.9,6.7c0,6.7-0.2,6.7-133.3,6.9 C1416.5,542.7,1280.3,543,1267.9,544.1z M1274.9,499.4c0-2.9,10.8-6.7,15.1-5.4c3.7,1.2,4.4,3.9,1.2,4.9 C1284,501.2,1274.9,501.4,1274.9,499.4z M1373.6,465.4c0.3,0-0.4,2.5-2.2,3.2c-3.1,1.2-6.8-1.4-5.4-3.7 C1367.6,462.2,1373.6,462.6,1373.6,465.4z M1373.6,456.4c0-2.2,6.7-2.2,6.7,0C1380.3,458.6,1373.6,458.6,1373.6,456.4z M1381.4,468.2c11.5-4.9,46.8-10.1,51.1-7.5c4.8,3-6.4,9.5-27.8,16.2l0,0c-13.3,4.1-52.8,7.9-52.7,5 C1352,480.1,1370.1,473,1381.4,468.2z M1421.1,446.1c1.7-0.3,3.5,0.3,3.8,1.3c0.8,2.4-5.8,4.2-7.2,2 C1416.5,447.4,1417.1,446.8,1421.1,446.1z M1476.4,439.4c1.5,2.4-2.6,4.7-13.8,7.5c-11.9,3-17,3.4-17,1.2 C1445.6,442.9,1473.6,434.9,1476.4,439.4z M1464.8,399.4c-1.3-2.1,3.3-4.1,5.8-2.5c1.2,0.7,1.3,2.4,0.8,2.7 C1470.2,401.6,1466.1,401.6,1464.8,399.4z M1493.7,468.3c-4.4-0.1-7.9-0.8-7.9-1.5c0-2.5,14.9-13.8,15.9-12 c2.2,3.6,20.7-2.1,20.9,6.7c0.4,16.7-52.1,22.1-69.6,24.6c-5.2,0.8-9.1-2-6.2-4.4c4-3.3,21.1-8.4,30.7-9.2c6-0.5,13.9-1.6,17.6-2.4 C1503.9,467.9,1504.3,468.5,1493.7,468.3z M1517.3,445.5c-15.8-4.9-25.2-12.7-15.1-12.6c13.8,0.2,37.6,14.5,38.5,23.1 c0.7,6.8-5.7,7.8-7.3,1.2C1531.9,451.6,1528.2,448.9,1517.3,445.5z M1500,446.3c-0.6,0.9-2.5,1.7-4.2,1.7c-4.1,0-6-3.1-2.6-4.4 C1496.6,442.3,1501.3,444.2,1500,446.3z M1491.1,451.6c-2.1,2.1-5.6,2.6-11.7,1.7c-7.2-1.1-3.7-3.7,4.9-3.7 C1491.1,449.7,1492.7,450.1,1491.1,451.6z M1483.1,460c-1.5,2.4-22,11.4-26,11.4c-1.8,0-5.4,1.1-8.1,2.5 c-5.6,2.9-22.1,5.1-23.9,3.3c-2.6-2.7-1.1-5.2,4.2-7c3-1,10-3.7,15.5-6C1460.5,457.6,1486.3,454.8,1483.1,460z M1413.6,490.3 c-6.2,4.6-34.9,6.5-34.9,2.3c0-3.5,5.7-3.7,15.9-7C1414.9,479.2,1425.1,481.7,1413.6,490.3z M1353.8,488.2c8.7,0,10,0.4,9.5,2.9 c-0.7,3.4-28.1,5.5-28.1,2.1C1335.1,490.3,1343,488.2,1353.8,488.2z M1443.1,402.9c9.3-0.1,9.7,2.2,1.7,8.8 c-9.7,8.1-12.6,8.1-12.6-0.2C1432.2,406.3,1436.5,402.9,1443.1,402.9z M1443.3,430.6c13.4-3.5,24-3.6,24-0.2 c0,3.5-6.4,5.6-20.6,6.9c-18.1,1.6-17.8,5.4-35.5,6.8c-6.4,0.5-12.5,1.5-13.4,2.2c-1.9,1.4-12,3.2-20.9,3.6 c-3.2,0.2-7.3,1.3-9.2,2.5c-3.4,2.3-17.9,3.1-19.8,1.1c-3.8-3.8,3-4.1,28.2-9C1384.8,442.8,1417.3,437.5,1443.3,430.6z M1370.4,348.5c1.1,0.7,3.5-0.7,5.5-3.2c7.2-8.9,52.6-2.1,48.6,7.2c-1.4,3.4-1.5,23.1-1.5,27.8c-4.1,0.3-11,1.2-15.9-1.6 c-5.1-3-18.3-2.5-24.8-2.6c-10.5-16.6-8.7-17-29.8-17.4c-7.6-0.2-14.3-0.8-14.9-1.3C1334.2,353.9,1365.6,345.5,1370.4,348.5z M1334.2,319.5c0.8-2.7,3.5-3.8,12.1-5.3c16.3-2.8,19.1,2,4.9,8.4v0C1340.2,327.6,1332.1,326.2,1334.2,319.5z M1425.2,335.5 c-2.7,2.7-5,2.5-9-0.5c-2.7-2.1-2.9-2.7-0.8-4.1c6.5-4.3-8.8-10.2-26.4-10.2c-6.7,0-10.6-0.8-12-2.4c-3.2-3.8-0.5-6,6.3-5.2 c16.7,2.1,39,2.6,37.9,0.8c-2.2-3.6-9.7-4.9-28.5-5.1c-17.7-0.1-19.2-0.4-19.2-3.3c0-4.8,6.3-5.6,28.4-3.5c10.9,1,21,1.9,22.5,1.9 C1427.9,304.1,1428.5,332.2,1425.2,335.5L1425.2,335.5z M1410.9,331.6c-0.3,2.2-2.2,2.4-7.2,0.9c-8.4-2.7-50.2,0.4-39.8-6.1 C1370.5,322.4,1411.7,326.9,1410.9,331.6z M1422.2,396.3c0,1.9-6.8,1.8-10.3-0.2c-1.5-0.9-9-2.2-16.7-2.9 c-16.9-1.5-23-10.2-6.4-9.2C1401.3,384.8,1422.2,392.5,1422.2,396.3z M1397,401.1c18.4,3.6,25.7,7.3,27,13.6 c1.7,8.3,0.9,8.9-17.4,12.2c-26,4.7-23.9,5.4-25.4,5.4c-18.2,5.1-8.4,0.6-21.9-7.8c-7.2-4.4-6.8-7.4,1-7.7c9-0.4,50.5,2.4,54.7,3.7 c3,0.9,3.8,0.5,3.8-2.3c0-7.1-50.7-13.5-68.8-8.7c-14.5,3.9-18.8-0.6-8-8.4C1351.6,394.2,1361.8,394.2,1397,401.1z M1346.8,417.9 c6.7,0,2.7,8.8-5.2,11.5l0,0c-8,2.8-9.8,2.1-9.8-3.5C1331.8,422.5,1340.5,417.9,1346.8,417.9z M1349.4,432.9c3.5,0,3,4.6-0.8,6.6 c-4.6,2.4-10.2,2.2-10.2-0.5C1338.5,436.7,1345.2,432.9,1349.4,432.9z M1368.6,270.5c51.2,1.2,63.6,0.2,57.6,15.8 c-1.3,3.3-4,3.2-16.6-1c-11.4-3.8-15.6-3-41-1.5V270.5z M1409.4,291.3c14,4.2,11.9,4.6-25.1,5.2c-18.3,0.3-35.2,1-37.6,1.7 c-5.4,1.5-7.4-1.1-3.5-4.6C1349,288.4,1394.5,286.9,1409.4,291.3z M1351.5,272.9c8.7-1.7,6.9,3.5-2.9,8.5c0.5,0-15.1,7.4-15.1,2.6 C1333.5,281.5,1345.4,274.2,1351.5,272.9z M1333.1,362.7c2,3.2,2.4,3.2,8.1,0.8c14.7-6.2,24.3-1.8,11.4,5.2 c-14.2,7.7-25.8,6.1-25.8-3.6C1326.8,358.6,1329.8,357.4,1333.1,362.7z M1273,376.5c8.9,9.6,16.2,16.9,22,30.4 c1.7,4.1,5.1,8.7,7.5,10.2c2.4,1.5,4.3,4.1,4.3,5.6s1.1,4.3,2.5,6.1c7.1,9.3,4.3,11-18.8,11.5c-7.8,0.2-6-5.6,2.9-9.1 c8.2-3.2,10.4-7.9,3.3-7c-4.2,0.6-15.1,5.7-23,13.6c-2.9,4.8-26.1,5.3-25.2,0.6c0.3-1.6,3.5-3.9,7.2-5.2 c28.2-9.9,40.3-15.8,38.3-18.9c-3.7-5.9-46,22.8-45.9,6.3c0-2.5,23.1-11.1,29.8-11.1c5.7,0,8.4-2.6,5.6-5.5 c-3.3-3.3-49.5,12.3-56.1,18.9c-2.4,2.4-6,2-6-0.8c0-5.8,19.3-17.5,36.3-22c18.4-4.9,22.8-6.8,21.4-9.1c-3.3-5.4-27.4,5-47.7,9.2 c-2.5,0.5-6.4,3.8-9.5,8c-10.6,14.7-17.2,18.1-17.2,9c0-9.9,27.4-27.9,56.4-37L1273,376.5z M1232.1,436.7L1232.1,436.7 c-6.1,6.5-13.8,4.6-12.2-3c0.5-2.3,10.8-7.3,15.2-7.4C1237.9,426.2,1236.1,432.4,1232.1,436.7z M1131,444.5c0,2.2-3.2,2.7-13.1,2.1 c-9.4-0.5-12.8-7-4.5-8.4c1.8-0.3,9.7-3.4,17.6-7c16.3-7.3,14.3-6.4,62.4-8.7c17.6,17.2,22,19.4-14.8,21.4 c-25.5,1.4-31.8-4.3-7.8-7c13-1.5,15.5-2.3,15.5-4.9C1186.2,423.6,1131,438.7,1131,444.5z M1083.2,432.8 c-1.7-2.7,5.4-9.3,16.7-15.6c32.4-18,32.7-18.2,47.8-19c22.9-1.2,23.4-6.8,0.7-7.3c-12-0.2-14.6,0.3-23.7,5 c-10.4,5.3-16.1,5.4-15.1,0.4c0.6-3.3,18-9.8,33.3-12.5c10.3-1.8,11-2.2,9.7-5.5c-1.7-4.5-11.6-6.4-20-4c-7.7,2.2-8.4,2.2-8.4-0.8 c0-1.7,1.7-2.5,5.4-2.5c15.7-0.1,24.7-11.8,27.4,5.3c0.8,4.8,1.8,6.5,4.1,6.5c1.7,0,4.4,1.9,6.1,4.3c15.9,22.5,28.5,32.5-3.7,30.4 c-13.1-0.9-27.2,2.2-34.8,7.5c-4.5,3.1-9.6,3.1-9.6-0.1c0-4.9,13.5-7.7,32.4-13c15.4-4.3,26.2-3.1,21.8-7.3 c-7.3-7-46.9,3.6-67.6,18.2l0,0C1097.3,428.9,1084.3,434.6,1083.2,432.8z M1099.2,442.8c0,5.4-6.7,3.8-6.7,1c0-1.4,0.3-2.5,0.7-2.5 C1095.8,441.3,1099.2,437.6,1099.2,442.8z M1078.2,364.4c-5.2-0.2-4.7-2.8-9.7-3.7c-2.9-0.5-2.9-0.9,0.6-5.2c2-2.6,3.3-5.7,2.8-7 c-2.5-6.5,19.1-14.3,39.5-14.3c13.8,0,16.1-1.7,10.1-7.6c-6.2-6.2-41.4,0.8-56.9,11.3c-6.8,4.6-9.9,4.3-8-0.7 c0.5-1.3,3.9-4.1,7.5-6.1c9.2-5.2,8.9-9.1-0.4-5.3c-7.8,3.2-9.1,0.1-24,15.1c-6.4,6.5-12.6,11.8-13.7,11.8c-4.1,0-4.1-3.8,0.1-8.2 c2.4-2.5,4.4-5.4,4.4-6.5c0-2.8,12.8-7.9,16.7-11.3c5.5-4.8,44.5-19.3,54.6-20.3c22.5-2.2,20.8,19.5,23.9,19.5 c2.4,0,20.2,29.4,20.2,33.3c0,0.9-2.8,2.1-6.3,2.7c-30.6,4.8-36.8,6.6-54.7,15.8c-16.2,8.3-18.3,9.9-18.5,13.9h0 c-0.3,5.9-3.7,9.7-5.2,5.7c-0.6-1.5-2.4-2.8-4.1-2.8c-8.1,0,6.2-19,21-27.9C1081.5,364.5,1081.5,364.5,1078.2,364.4z M1044.8,350.5 c-3.6,13.9-0.9,27.8-9.9,17.1c-5.9-7-5.6-10.3,1.5-16.5C1043.9,344.6,1046.4,344.4,1044.8,350.5z M1021.4,335.7 c-1.2,5.5-5.3,6.9-7,2.5c-1.1-2.8,5.2-10.5,7.1-8.7C1022.6,330.7,1021.2,335.7,1021.4,335.7z M1019.7,324.1L1019.7,324.1 c-8.6,9.7-18,6.1-10.4-3.9c5.8-7.5,44.5-29.5,52-29.5c4.6,0,0.6,4.3-8,8.7C1045.1,303.6,1024.4,318.8,1019.7,324.1z M1099.5,386.4 c-2.5,2.5-4.5-1.9-2.4-3.9C1099.6,380,1101.6,384.3,1099.5,386.4z M1088.6,402.2c6.7-3.5,9.1-0.8,4,4.6c-1.9,2.1-3.5,5.3-3.5,7.1 c0,5.8-9.4,13-13.3,5.7C1072.3,413.1,1075.1,409.2,1088.6,402.2z M1159.8,334.2c2.5-0.1,1.2,6.2-1.8,8.9c-3.8,3.5-5.1,3.5-6.5,0 C1150.6,340.7,1156.5,334.3,1159.8,334.2z M1184.4,375.3c44.8-28.3,65.3-28.2,43.2-17.7c-10.1,4.8-28.2,16.6-30.2,19.8 c-1.1,1.7-7.7,6.3-7.9,6.3c-6.9,4.3-8.7,4.9-10.5,3C1176.1,383.8,1178.3,379.1,1184.4,375.3z M1265.7,366 c8.9,9.8-13.5,3.9-33.8,17.6c-0.7,0-8.9,7.6-13.6,2C1213.4,379.7,1260.5,360.2,1265.7,366z M1256.9,360.4 c-1.6,0.5-10.2,3.9-19.1,7.5c-17.9,7.2-17.1,6.9-18.7,5.4c-4.7-4.7,19.3-17.1,32.8-17.1C1259.8,356.2,1262.5,358.5,1256.9,360.4z M1233.1,333.3c4.5-5.4,20,5.9,20,14.6c0,4.3-7.7,4-10.4-0.3c-3.7-5.9-28.9,0.9-39.8,10.9c-6,5.5-11.8,7.2-19.5,13.5 c-7.8,6.3-9.6,1.8-2-5c22.1-19.7,28.6-24.3,38.9-27.7C1226.3,337.3,1232,334.6,1233.1,333.3z M1222.7,302.3 c10,14.2,9.6,15.4-6,20.2c-7.2,2.2-15.2,5.9-18,8.4c-7.7,6.8-26.1,17.6-32.5,23.2c-0.9,0-5.6,7-8,0.8c-0.7-1.9,0.7-4.2,4.7-7.4 c12.9-10.5,23.3-22.4,23.3-26.7c0-5.5-6.2-5.6-13-0.2c-8.2,6.5-22.9,15.4-25.3,15.4c-3.7,0-1.8-4.2,3.6-8c3-2.1,8.6-6.1,12.5-8.8 c7.5-5.2,9-8.9,4.4-10.7c-7.9-3,18.6-17.6,32.6-18C1212.8,290.2,1215,291.4,1222.7,302.3z M1204.2,277.5c0.4,2.1-1.4,2.9-8.5,3.6 c-16,1.7-47.7,21.2-55.9,34.6h0c-3.9,6.3-10.4,3-10.4-5.2c0-5,2.6-7.5,20.1-18.8C1171.6,277.3,1202.6,269.3,1204.2,277.5z M1193.7,265.6c0,1.7-1.4,2.3-4.5,2c-7-0.8-20.6,8.1-24.8,8.1c-4,0-29.2,14.7-34.2,20c-0.5,0-6.1,7.8-9.9,4 c-9.5-9.5,38-36.1,65-36.4C1191.8,263.1,1193.7,263.7,1193.7,265.6z M1126.5,253.6c2.7-3.5,26.1-16.4,29.9-16.4 c6.1-0.1,4.5,3.5-2.9,6.7c-4.3,1.8-10.9,5.5-14.8,8.2C1127.6,259.9,1121.1,260.7,1126.5,253.6z M1185.7,249.8 c1.4,3.6-1.4,5.1-16.2,8.4c-6.9,1.6-14.6,3.9-17.1,5.1c-8.3,4-12.6,1-8.3-5.7C1148.9,250.1,1183.3,243.6,1185.7,249.8z M1118.9,238.7c11-11.8,46.9-21.4,48.6-13c0.4,2.2-1.3,2.9-8.3,3.5c-10.5,0.9-25.7,10.1-25.7,10.3 C1110.9,252,1106.6,251.8,1118.9,238.7z M1116.4,274.7c5.1-1.3,5.7,0.1,2.7,6.7h0c-2.4,5.2-7.5,5.6-9,0.7 C1108.7,278,1110.2,276.2,1116.4,274.7z M1097.4,254.2c0.9-3.3,2.4-4.6,5.9-5c7.5-0.9,9.3,2.6,3.8,7.4 C1099.7,262.9,1095.4,261.8,1097.4,254.2z M1089,281.8c2.3-2.3,6.2,0.9,4.5,3.7C1090.6,290.1,1085.9,284.9,1089,281.8z M1105.1,294.7c7.5,5.5-2.4,0.9-39.4,17.6h0c-21.1,9.5-20.1,9.2-20.1,6.4C1045.7,303.4,1091.7,284.9,1105.1,294.7z M1069.7,274.3 c12.5,0.7,12.6,3.2,0.1,6.5c-19.9,5.4-28.7,13-31.6,8.3C1035,284,1057.1,273.6,1069.7,274.3z M1046,265.3c3.5-0.1,7.1-0.3,8-0.4 c5.2-0.5,1,3.9-9.3,9.8c-6.5,3.7-13.6,8.1-15.9,9.7c-7,5-9.3,3.2-5.6-4.5C1026.7,272.8,1037.8,265.6,1046,265.3z M999.5,278.7 c4.3-10.1,16.4-18.9,27.6-20.1c8.8-0.9,7.8,2.3-2.8,9.1c-8.4,5.4-16.3,12.7-16.3,12.9C998.9,290,995.1,289.2,999.5,278.7z M978.9,309.6c2,0.5,3.7-0.1,4.2-1.5c1.4-3.7,3.9-2.8,3.9,1.4c0,11.9,25.2,36.4,43.1,72.4c4.1,8.3,8.2,15.3,9.1,15.7 c7.2,2.7,20.7,40.6,16,44.9c-0.5,0-3.7,6.3-35.7,3.9c-20.1-1.5-27.6-8.4-32.5-30.2c-6.2-27.4-11.6-33.7-17.2-41.9 C971.4,321.2,971,307.6,978.9,309.6z M888.1,211.6c1.9-1.9,13.3-4.2,28.2-5.7c10.1-1,27.3,3.3,27.3,6.8c0,3.5-4.1,4.3-11.1,2.4 c-8.2-2.3-30.6,0-38.5,1.3C888.3,217.4,885,214.7,888.1,211.6z M871.6,219.6c2.5,1.5-0.6,3.5-0.1,3.5c-2.6,3.1-6.6,3-6.6-0.2 C864.9,219.9,868.9,217.9,871.6,219.6z M878.8,232.8c3.8-0.5,10.4-2.4,14.5-4.1c32.1-13.4,75.4-5.4,72.9,13.5 c-0.7,5.4-0.3,8.6,1.5,10.9c3.1,4.1,3.2,11,0.3,18c-3.3,8-6,68.5-5.8,68.6c-0.3,9.2-3.6,10.3-13,4.5c-5.3-3.3-14.9-5.6-34.2-8.4 c-19.7-2.8-26.2-5.2-46-5.5c-25.1-0.3-19.6-6.9,10-11.9c8.4-1.4,13-3.8,11.6-6.1c-1.3-2.1-16.9-0.6-31.1,3 c-10.1,2.6-13.5,2.1-12-1.8c1.8-4.7,16.9-7.3,42.9-7.6c5.6-0.1,7.6-3.4-3.1-3.4c-8.6,0-10.6-5.4-2.4-6.4c2.3-0.3,6.2-1.3,8.7-2.3 c7.5-2.9,48.2,5.9,48.2,10.5c0,2.1,14.7,9.2,16.1,7.8c2.8-2.8-1.5-9.8-8.1-13.3c-23.9-12.5-47.1-16-72.1-10.8 c-19.7,4.1-33.4,0.7-14.9-3.7c12.2-2.9,28.3-10.1,64.7-3.1c14.6,2.8,20.9,2,16.8-2.1c-2.3-2.2-27.4-5.7-44.3-6.1 c-7.8-0.2-15.2-0.4-16.3-0.5c-4.2-0.4-1.9-3.6,5-7.1c3.9-2,7.7-4.4,8.3-5.5c2-3.1,21.7-1.8,32.1,2.1c10.7,4,15,4.5,14,1.5 c-2.2-6.6-19.7-9.9-42.3-7.9c-42.8,3.8-45,2.8-17.1-8.4c22.5-9,9-0.3,29.5-2.3c8.6-0.8,32.8,1.9,41.6,4.7c5.9,1.9,5.1-5-0.8-7.2 c-17-6.3-45.6-6.4-78.2-0.2c-19.1,3.6-20.9,3.8-20.9,1.6C854.8,241.4,871.1,233.9,878.8,232.8z M854.8,339.2c-4.4,0-4.4-5,0-5 C859.3,334.2,859.3,339.2,854.8,339.2z M858.2,348.4c0,2.6-2,3.3-3.9,1.4C850.3,345.8,858.2,344.1,858.2,348.4z M930.1,361 c12.1,3.9,13.6,7.5,2.5,5.9c-4.4-0.7-14.1-1.5-21.6-1.8c-35.5-1.6-29-8.3-47,0.6c-12.5,6.2-13,6.3-16,2.7 C834.9,352.6,888.7,347.8,930.1,361z M945.2,389.1c-21-5.4-29.3-8.6-45.2-7.6c-12,0.7-21.8-1.8-21.8-5.8c0-9.9,56.4-8.1,70.4,2.3 c7.5,5.6,12.5,2.5,5.5-3.4c-2.9-2.5-5.5-6-5.9-7.8c-0.8-4.3-19.4-13.6-29.9-15c-24.2-3.2-33.5-7.6-16.1-7.6 c33.6,0,45.7,8.2,57.1,14.2C961.7,393.4,963.9,394,945.2,389.1z M948.5,400.4c-7.5-4-32.8-7.9-52.5-8.1 c-14.8-0.1-19.4-0.7-19.4-2.4c0-5.2,32.1-6.5,46.9-1.9c20,6.3,34,7.4,34.8,11.8h0C958.9,403.4,954.6,403.7,948.5,400.4z M859,381.6 c-7.7,3.7-10.8,3.6-10.8-0.3c0-3.3,4.2-5.2,12.1-5.2C866.6,376,866,378.2,859,381.6z M857.5,405.6c-5.2,4.5-9.1,5-10.5,1.4 C843.6,398,870.1,394.8,857.5,405.6z M870.3,439.9c-9-0.3-10.5-0.8-10.5-3.5c0-4.4,3.5-6.8,7.5-5.1c10.6,4.3,16.5,1.6,19.9-8.9 c0.7-2.3,1.7-2.6,3.9-1.5c4.1,2.2,25.4,2.7,41.4,7.1c27.1,7.4,26.3-0.8,16.4-2.6c-3.5-0.6-12.6-2.7-20.3-4.6 c-13.8-3.4-42.7-3.8-50.7-0.6c-4.3,1.7-5.3-3.8-1.4-8c4.4-4.7,32.8-5.1,44.9-0.6c10.4,3.9,21.4,1.7,26.5,5.3c7,4.9,8.3-4.6-7.5-6.7 c-14.2-1.9-23.6-5.8-39.5-5.8c-9.9,0-11.2-0.4-10.7-2.9c1.2-6.3,43.4-1.8,60.7,6.5c11.1,5.3,16.6,28.2,9.5,39.7 c-14.1,3.5-88,3.7-93.9,1.4c-10.2-3.9-8.6-7.5,3.7-8.2C884,440.1,884.5,440.4,870.3,439.9z M857.8,264.3c13.9-2.5,14,1.9,0.3,8.9 c-10.4,5.3-13.3,5.3-13.3,0.2C844.8,268,847.4,266.2,857.8,264.3z M832.2,334.9c-13-4.3-30.3-5.1-49.4-2.5 c-13.6,1.9-14.3,1.8-16.5-1.5c-2.3-3.5-10.3-4.8-10.3-1.7c0,0.9,0.8,1.7,1.7,1.7c3.3,0,1.6,4.7-2.1,5.6c-1.4,0-16.4,5.4-11.7-8.5 c1.5-4.4,2.2-4.7,14-5.5c21-1.4,17.3-5.8-5.2-6.1c-22.7-0.3-22.1-0.3-21.4-2.6c0.8-2.5,10.6-6.1,16.8-6.3c3.3-0.1,5.1-1.3,6.2-4.3 c3.1-8.1,41.2-9.9,59.4-2.8c11.5,4.5,18.6,6.3,25.1,8.2C840.3,323.6,843.1,338.5,832.2,334.9z M741.9,443.1c4-3.9,80.6-2.1,85.7,2 c2.3,1.8,2.8,7.3,0.8,8.5c-5.2,3-17.1,2.8-20-0.4c-2.9-3.1-5.8-3.4-33.9-4.2C745.2,448.2,738,446.9,741.9,443.1z M768.6,457.8 c-1.9,1.8-31.8,3.8-36.5,2.5c-9.7-2.8-1.6-6.3,15.6-6.7C764.9,453.1,772.1,454.5,768.6,457.8z M776.2,435.5 c-2.9,0-27.6,1.4-33.2,2.4c-12.5,2.3-12.5-4.1,0-6.9c4.1-0.9,8.5-3.2,10.1-5.3c3.5-4.5,43.2-5.4,56.7-1.3 c25.1,7.7,39.4,17.9,20.4,14.5C808.2,435,800,434.5,776.2,435.5z M763,351.1c-23.6,2-29.3,1.4-25.2-2.6c7.3-7,78.7-9.9,94.4-3.8 l6.7,2.6c0,24.6,1.9,26.9-15.9,20.3c-9-3.3-54.3-5-58.9-2.2c-2.2,1.4-29.8-1.2-29.8-2.8c0-9.7,100.4-3.2,100.4-7.7 C834.7,349.4,803.2,347.7,763,351.1z M753.1,378.5c-13,1.9-16.9,1.3-14.7-2.3c4.6-7.4,77.8-8.9,79.2-1.6 C818.6,379.4,780.4,374.5,753.1,378.5z M728.4,344.2c-1.4-2.2,2.2-6.6,5.3-6.6c1.3,0,2.3,1.1,2.3,2.5 C736,343.2,729.9,346.6,728.4,344.2z M729.7,386.7c4.3-4.3,82.7-6.6,89.6-2.6c6.6,3.8,3,4.2-30.3,4.1c-10.9-0.1-44.8-0.2-55.5,4 C731.1,393.1,727.9,388.6,729.7,386.7z M744.8,397.3c3.5-9.1,93.3-3.7,93.3,5.6c0,5.1-1.5,5.8-7.5,3.4c-8.3-3.4-37.4-5.1-59.4-3.6 C747.6,404.2,742.6,403.2,744.8,397.3z M838.1,388.2c0,2.2-1.6,2.9-3.8,2.8c-8.6-0.3-10.3-3.3-3.8-6.3c2.3-1,4.2-3.1,4.2-4.5 c0-1.4,1.2-2.5,2.7-2.5C841.5,377.7,838.2,381.9,838.1,388.2z M816.8,237.2c8.7,4.5,12.4,2,6.2-4.2c-7.6-7.6-36.5-11.3-59-7.6 c-16.6,2.7-19.7-1.8-6.6-9.5c10-5.9,42.2-6.9,51.5-1.6c20.1,11.5,29.6,20.4,29,27.6l0,0c-0.9,10.4-1.6,5.2-33.1,2 c-24.7-2.5-29.1-5.8-44.2-4.6c-8.3,0.7-11.4,0.3-12.9-1.5C740,228.6,799.5,228.1,816.8,237.2z M837.3,260.7c0,5.6-3.3,5.6-16.4-0.1 c-10.5-4.5-13.4-4.9-36.8-5.7c-24.7-0.8-33.6-3.4-24.1-7C773.3,242.8,837.3,253.4,837.3,260.7L837.3,260.7z M813,265.8 c16.6,7.8,25,4.8,25.1,12.5h0c0.1,4.3-16.8,3.1-23.7-1.8c-2.1-1.5-7.2-2.7-11.4-2.7c-11.9,0-35.6-3.3-38.1-5.4 c-3.4-2.8-21.5,1.1-22.8-1C737.2,259.6,796.8,258.2,813,265.8z M742.5,282.2c12.3-5.8,58.5-4.9,72.2,1.5c3.2,1.5,9.6,3.1,14.2,3.6 c7.2,0.8,8.4,1.5,8.9,4.9h0c2.3,16.6-23.3-12.4-70.8-2.9c-13.6,2.7-23.4,3.7-30.5,6.7C722,301.8,727.6,289.2,742.5,282.2z M728.1,323.7c0.9-2.7,6.6-2.7,7.5,0c0.4,1.3-0.9,2.1-3.8,2.1C729,325.8,727.6,325.1,728.1,323.7z M731.4,411.4 c22.4-9.1,107.5-2.2,106.4,8.7h0c-1.6,16.3-16.6-10.3-79.5-3.6C727,419.8,715.8,417.7,731.4,411.4z M541.6,358.2 c0.7,3.7-4.7,4.1-4.7-0.7C536.9,353.4,540.8,354,541.6,358.2z M538.2,313.8c0.9,2.6-4.6,2.9-4.6-0.7 C533.5,310.2,537.1,310.7,538.2,313.8z M515.8,373.9c-10.2,59.3,3.7,69.4-22.5,58.4c-26.3-11.1-38.5-20.8-38.5-30.6 c0-6.1-3.5-13.8-6.8-14.8c-5.7-1.8,6.5-14.8,20.2-21.6c3.2-1.6,11.5-8.7,18.4-15.8C522.4,312.8,525.8,315.7,515.8,373.9z M440.2,418.9c-0.8,5.5,16.3,9.3,29.1,21.1c3.8,3.5,8,6.3,9.4,6.3c3,0,6.7,4,5.2,5.6c-1.4,1.4-4.1,1.3-7.2-0.5 c-1.4-0.8-6.8-2.7-12.1-4.4c-12.7-4-21.8-10.5-30.8-15.5c-4.6-2.6-5.4-11.1-1.5-16.3C435.1,411.3,440.9,413.9,440.2,418.9z M437.9,390.5c3.5-3.5,7.3,2.6,4.4,7.2C439.5,402.3,431.5,396.9,437.9,390.5z M469.5,245.5c7.8,0,35.6,18.8,35.6,24v0v0l0,0 c0,4.1-16.2-2.8-23.8-10c-3.9-3.8-8.9-7.8-10.9-8.8C465.9,248.4,465.4,245.5,469.5,245.5z M120.1,240.8 c26.4-15.5,13.7-11.7,54.9-24.7c40.7-12.8,157.9,2.4,200.3,7.7c39.8,4.9,40.4,9.9,54.1,10c8.2,0,24.2,6.2,23.2,9 c-0.4,1-1.3,1.8-2.2,1.6c-0.8-0.1-4.3-0.7-7.7-1.3c-16.5-2.9,2.3,6.4,20,9.9c5.6,1.1,13.9,6.7,13.9,9.3c0,2.6-10.8,1.7-22-1.8 c-12.8-4-14.8-4.1-14.8-0.9c0,1.4,0.4,2.5,0.9,2.5c3.3,0,26.2,3.8,32.1,5.3c6,1.5,12.2,6.9,12.2,10.6c0,1.5-4.6,1-12.1-1.4 c-22.2-7.2-33.7-2.9-8.5,2.5c29.6,6.4,36,18.4,38.3,16.1c1.5-1.5-1.2-5.8-5.1-7.9c-4.5-2.4-7.2-11.6-3.9-13.6 c2.5-1.6,3.8-0.8,13.9,8.2c11.9,10.6,4.2,6.3,4.1,15.4c-0.1,8.8-2.4,9.7-11.5,4.7c-18.7-10.4-42.8-16.8-42.8-11.3 c0,1.8,2.5,2.8,8.7,3.6c9.6,1.2,29.4,8.4,35.4,12.9c5.5,4.2,3.4,10.6-6.1,18.3c-11.4,9.2-36.9,34.7-52.1,38.8 c-7,1.9-13.7,10.6-31.9,32c0,17.7,2.1,39.9-13.4,31.6c-2.4-1.3-4.2-1.4-5.3-0.3c-2.2,2.2-53.6,0.8-61.8-1.7 c-6.6-1.9-16.3-0.5-13.8,2c4.9,4.9,72,8.3,89.8,4.5c5.2-1.1,6.3-0.9,6.3,1.3c0,3.3-7.8,6.4-13.4,5.3c-3.7-0.7-13.9,1.6-13.3,1.6 c-16.7,4.3-56.3,3.3-66.3-1.8c-4.5-2.3-9.1-4.2-10.2-4.2c-3.5,0-4-3-1.1-5.9c2.8-2.8,1.9-4.4-3.5-6.3c-0.9-0.3-0.3-2.4,1.3-4.6 c4.2-6.1,1.4-7.8,5.9-13.4l3.1-3.8c14.6,8,20.3,10.2,15.3,15.2c-6.8,6.8,56.6,8.6,69,2c4.6-2.4,3.2-6-1.9-5.2 c-32.3,5.3-75.7-2.4-54.7-9.7c7.9-2.8,3.9-5.4-4.9-3.2c-11.3,2.9-16.7-1.3-21.7-0.5c-4.4,0.7-6.7-8.7-6.3-25.6 c0.4-14.5-0.1-17.8-3.6-25.7c-2.2-5-4-10.1-4-11.4c0-54-109.6-46.9-163.6-45.7c-9.5-10.8-10.9-11.5-9.7-18.3 c3.4-19.2-0.2-23.9-7.4-9.4c-3,6.1-4.2,11.2-4.2,18.7c-0.1,13.4-1,13.9-8.3,5C95.5,269.8,99.5,252.9,120.1,240.8z M416.6,469.4 c-2.3,3.7-12.3,4-17,0.6c-3.8-2.8-6.2-3-26.8-1.8c-26.7,1.5-46.9,0.4-46.9-2.7c0-8,60.6,0.6,86.4-9.2 C417.8,454.2,420.6,463,416.6,469.4z M417.7,480.9c-0.7,3.4-3.1,4.3-6.2,2.4c-3-1.9-0.9-5.2,3.4-5.2 C417.2,478.1,418.1,479,417.7,480.9z M353.3,480.8c-1,2.7-6.5,3.2-8.1,0.7c-1.5-2.4,0.6-5,4-5C356.1,476.4,352.9,480.8,353.3,480.8 z M315.4,456.6c5.6,1.9,8.6,7.9,5.1,10.1c-7,4.5-18.9-2.5-14.9-8.7c3.1-5-1.4-8.2,0.3-15c1.4-5.4,7.4-5.8,8.1-0.6 c0.6,4.2,8.3,6.4,28.7,8.1c26,2.2,17.9,5.9-10.8,4.9C314.6,454.9,311.2,455.1,315.4,456.6z M376.2,451.7c0-8.4,26.7-6.9,33.9-9.7 c3.6-1.4,5.8,5.5,2.7,8.6h0C408.4,455,376.2,455.9,376.2,451.7z M264.7,348.8c-2.9,4.6-5.7,4.5-5.7-0.1c0-5,2.8-7.3,5.5-4.6 C265.9,345.4,266,346.8,264.7,348.8L264.7,348.8z M162.1,364.9c-7.6-5.3-23.3,0.6-34.9-5.6c-9.9-5.3-15.5-1.7-15.5-6.1 c0-2.3,1.2-2.5,7.1-1.6c11.9,1.8,47.4,3.2,52.2,2c7.1-1.8,3.3-4.9-4.7-3.8c-5.2,0.7-7.8,0.2-10.7-2.2c-5.7-4.7-4.8-7.1,2.2-5.8 c9.8,1.8,7.6-3.2,15-4.6c6.6-1.2,3.7-5.5-4.2-6.4c-8-0.9-9.5-3.5-3-5.3c5.2-1.5,1.6-1.8-15.8-1.4c-16.1,0.3-31.4-3.4-31.4-7.7 c0-2.3,26.7-2.2,42,0.2c2.5,0.4,7.2-0.9,10.9-2.9c5.7-3.1,10.6-3.7,38.3-4.9c45.2-1.9,45.2-0.9,0.9,25.9 C166.1,361.7,173.1,372.6,162.1,364.9z M112.3,367.1c8,1.8,8.4,2.1,6.2,4.7c-2.4,2.8-11,3.4-12.6,0.7 C104.1,369.8,108.2,366.3,112.3,367.1z M114.5,335.9c7.2,0,24.2,5.3,23.5,7.3c-1,2.9-25.8,2-28.9-1 C106.8,339.8,110.1,335.9,114.5,335.9z M196.6,352.2c8.2-5,15.6-12.1,27.3-19.1c25.3-15,28.5-20.1,28.5-15.2c0,1.4-1.1,2.9-2.5,3.4 s-2.5,2.8-2.5,5.1c0,5.3-5.5,8.3-19.7,19.5c-5.3,4.2-11.9,9.2-14.6,11.1c-6.1,4.2-23.3,6.7-25.2,3.7 C186.6,358.8,187.7,357.6,196.6,352.2z M224.5,355.6c1.5-0.9,8.5-6.2,15.5-11.9c16.8-13.7,16.5-13.6,19.7-12.4 c4.2,1.6,3.4,4-4.6,12.5c-4,4.3-7.8,9.5-8.5,11.6c-0.6,2-2.4,4-4,4.5C228.2,363.9,215.3,360.8,224.5,355.6z M42.8,439.4 c2.9,12.6-2.7,14.8-8,3.2c-9.7-21.4,5.9-41.6,36.6-47.4c35.4-6.7,24.7-8.1,98.2-11.7c36.8-1.8,59.2-3.6,63.4-5.1 c3.6-1.3,8.5-2.3,10.9-2.3c5,0,24-5.1,35.7-9.5c4.3-1.6,8.3-2.5,8.8-2c3.6,3.6-0.6,92.6-5.1,108.2l-2.5,8.8 c-7.4-0.1-19.6-0.1-27.4-1.9c-9.7-2.1-92.4-4.3-98.2-5.7c-2.1-0.5-15.3-1.6-29.2-2.3c-37.2-2-22.6-2.8-49.1-13.4 c-33.1-13.2-19.2-33.4-25.9-36C43.5,419.5,40,427.2,42.8,439.4z M71.6,505.7c0-5.1,0.4-0.3,38.9,2.5c23.1,1.7,28.7,2.7,27.1,5.3 C133.6,519.9,71.6,512.6,71.6,505.7z M104.3,526.6c-4.7,0-5.9-0.6-5.9-3.3c0-1.8,0.7-3.3,1.6-3.3 C104.4,520,117.6,526.6,104.3,526.6z M82.4,683.3c-6.3-4.4-17.5-5.2-17.5-1.3c0,4.8,3.3,4.4,3.3,7.9l0,0c0,2.4-5.2,3.1-9.6,1.3 c-3.1-1.2-2.6-11.5,0.7-14.2c2.8-2.3,19.6-2.3,23.2,0c0.9,0.6,6.7,1.1,12.8,1.1c12.1,0,13.7,0.6,12.1,4.8 C106.1,686.4,87.4,686.8,82.4,683.3z M98.4,694c0,4.3-5.9,4.9-15.1,1.4c-3.3-1.3-3.7-1.9-1.7-2.9C84.7,690.9,98.4,692.1,98.4,694z M58.2,515.6c0-3.1-1.2-11.2-2.8-18.2c-3.2-14.4-2.9-15.1,5.1-13.6c5.6,1.1,5.8,1.3,5.7,8.6c-0.1,4.2,0.8,8.4,1.8,9.5 c3.1,3.1,2.3,4.6-2.2,4.6c-5.9,0-5.2,2.4,2.5,8.6c5.2,4.2,6.3,5.9,4.8,7.6C68.5,528.2,58.2,523.2,58.2,515.6z M250.4,873.8 L250.4,873.8c-2.2,4.9-6.5,7.1-6.5,3.3c0-5.1,7-25.7,8.8-25.7C254.9,851.3,253.2,867.7,250.4,873.8z M262.4,883 c0,0.9-1.5,2.5-3.3,3.4c-4.2,2.2-4.2,1.5,0.2-11.8c4-12.2,7.3-16.8,10.9-15.5C277.2,861.9,260.3,883,262.4,883z M283.3,864.7 c6.6,0-3.2,24-5.1,24.4c-6.1,1.5-7.6-8.2-3.1-20.3c1.4-3.7,2.9-11.4,3.5-17.1c1.1-11,4.2-15.9,7.7-12.4c2.8,2.8,1.5,13.6-2.3,18.9 C280.1,863.6,280,864.7,283.3,864.7z M281.3,811.6c2.4,0.8,4.3,9.8,3.2,15.4c-0.8,4.4-4.6,5.8-5.8,2.1 C277.4,825.1,279.4,811,281.3,811.6z M290.8,858.2c0-9.4,10.6-12.1,6.6-0.5C295,864.5,290.8,864.8,290.8,858.2z M315.3,807.8 c-2.2,6-6.7,8.6-8.1,4.7c-1.2-3.6,5.5-21.4,8.1-21.4C318.2,791.1,318.2,799.6,315.3,807.8L315.3,807.8z M308,753.3 c-4.3,4.3-4.7-5.7-2.3-5.7C307.6,747.6,309.4,751.9,308,753.3z M303.8,798.9c-3.6,3.6-4.2-6.9-1.1-21.1 C308.2,751.9,309.5,793.2,303.8,798.9z M300.9,821.2c0,6.8-6.3,1.8-4.2-1.7C298.4,816.7,300.9,817.7,300.9,821.2z M301.8,886.3 c-2.1,3.4-9.3,2.2-9.3-1.5C292.5,878.2,304,882.7,301.8,886.3z M301.6,874.4c0.4,0-5.8,7.6-5.8,0.7c0-3.5,4.5-10.4,6.8-10.4 C305.1,864.7,304.5,870.3,301.6,874.4z M304.2,837.2c0-1.9,4-9.3,5-9.3c2.5,0,3,2.2,1.3,6C309,837.3,304.2,839.7,304.2,837.2z M324.9,863.3c-3.8,8.5-4.1,10.3-2.3,14.6c1.6,3.9,1.3,6.6,1,6.7c-1.4,2.2-13.1,1.8-15.9,1.8l0.6-8c0.6-8.9,16.7-42.3,20.9-43.6 C332.8,833.7,330.1,851.6,324.9,863.3z M326.3,830.3c0-1.3-8.2,18.6-11.3,10.4c-1.7-4.3,2.1-14.2,8.8-22.8 C336.1,802,337.5,809,326.3,830.3z M328.7,801.5L328.7,801.5c-5.7,3.7-5.2-2.6,0.8-12.9c3.4-5.8,5-6.9,6.9-5 C337.7,784.9,331.1,799.9,328.7,801.5z M333.8,771.3L333.8,771.3c-7.3,15.9-12.9,20.7-12.8,10.7c0.1-5.4,12.1-26.8,15.4-27.5 C340.7,753.8,340.1,757.4,333.8,771.3z M335.2,735.7c1.3,6.1-2.8,11.7-2.4,11.7c-3.5,6.8-5.7,8.3-7.6,5.2 c-1.4-2.3,1.1-60.3,2.6-60.3c2.9,0,6.5,7.8,6.5,13.8c0,12.4,5.7,8.4,1.9,18.8C335.1,728.2,334.6,733.1,335.2,735.7z M333.3,688.9 c-2.2-6.7-6.5-8.4-8.2-3.2c-0.6,2-0.7,4-0.2,4.5c0.5,0.5,0.1,2-0.9,3.2c-2.1,2.6-3.9,29.5-3.4,51.2c0.7,30.4-7.1,33.7-7.4,19.4 c-0.7-31-4-27.5-11.2-26.1c1.4-22.5,2-25.8-1-25.2c-5.2,1-6.1,11.7-2.1,27.7c4.3,17.5,4.7,29.2,1.1,32.2 c-3.7,3.1-1.5,13.9-4.4,21.2c-3.8,9.3-2.1,26.1-6.6,26.9c-3.8,0.7-5.8-34.4-3-51.5c1.4-8.5,1.5-12.5,0.2-13.7 c-5.5-5.5-8,9.2-5.5,32.6c1.6,15,1.5,16.8-1.5,20.9c-5.9,8.4-2.8,31.1-8.3,38.7c-6.5,8.9-9.1,4.5-4.7-7.8 c6.3-17.3,7.2-59.8,1.2-58.7c-6.5,1.3,4.5,64.6-10,62.9c-4.2-0.5-4.4-1-4.9-11.9c-0.9-20-5.9-15.1-7.3,7.2 c-0.5,7.6-6,50.9-13.6,49.9c-13.4-1.7-27.4-3.2-44.7-4.6c-50-4.1-42.3-8.5-59.1-8.5c-21.4,0-32.8-10-40.2-10 c-6.1,0-14.8-3.5-14.1-5.6c1.6-4.6,31.3-0.9,53.6,6.7c9.4,3.2,15.7,0.6,6.8-2.8c-2.7-1-9.8-3.8-15.8-6.1 c-12.3-4.8-45.4-7.6-55.3-4.8c-4.8,1.4-5.9,1.1-9.3-3c-8.7-10.1-4.1-11.2,41.6-9.9c27.9,0.8,57.4-3.2,34.3-4.6 c-50.7-3.1-74.9-5.4-82.5-7.8c-10.2-3.2-12.3-6.6-3.1-5.1c8.7,1.4,6.3-2.8-2.4-4c-9.1-1.2-11.3-3.4-8.3-8.1c2.4-4,1.7-4,21.4,1.5 c14.2,4,92.5,5.4,94.7,1.7c2.2-3.6-1.7-4-38.6-4.4c-41.5-0.4-38.2-0.7-51.8-7.1l15.5-0.1c11.5,0,22.1-2.5,15.1-3.5 c-0.2,0-10.4-0.7-22.5-1.6c-24.4-1.7-28.9-3.1-28.9-9.3c0-4.9-2-4.8,22.6-1.4c20.7,2.9,65.9,2.2,71.2-1.1c5-3.1-1.4-4.1-26.6-4.3 c-38.2-0.3-67.5-6.9-63-14.1c1.3-2.1,2.1-2.1,44.3,2c32.8,3.2,61.9,2.7,61.9-1.1c0-1.5-1.5-2.5-3.8-2.5 c-18.9-0.1-62.1-3.9-74.9-6.5c-24-4.9-25.1-5.5-25.1-13.4c0-7.7,3.4-9.8,11.1-6.7c15.8,6.3,63,10.4,64.8,5.7 c0.8-2,4.4-2.5,17.9-2.5c26.1,0,21.8-3.8-6.1-5.4c-30.7-1.7-76.3-6.4-79.8-8.2c-7.5-4-1.1-11,8.4-9.1c2.5,0.5,8.3,1.3,12.9,1.8 c63.7,7.2,65.6,9.5,68.9,5c2.2-3,22.9-2.8,33.6,0.2c3,0.9,3.8,0.4,3.8-2.3c0-3.8-4.6-4.4-51.9-6.3c-30.1-1.2-64.6-5.4-70.8-8.6 c-8-4.1-2.9-7.9,8.9-6.5c5.1,0.6,18.7,1.8,30.2,2.7c43.9,3.2,46.4,4.6,47.9,0.9c1.9-4.8-1.3-5.9-21.6-7c-32.9-1.9-29.1-7.3,5.1-7.3 c13.6,0,26.4-0.5,28.5-1c7-1.9,3.9-4-5.9-4c-21,0-37.2-2-37.2-4.6c0-2.8,35-1.6,43,1.4c7.1,2.7,12.2,1.9,12.2-1.8 c0-2.8-1.1-3.3-7.1-3.4c-13,0-49.4-7.9-77.8-11.7c-13.4-1.8-22.2-5.5-22.2-9.3c0-4.1,4.5-4.7,14.7-1.8c10.6,2.9,67,8.7,68.7,7 c2.3-2.3-4.1-3.8-21.1-4.7c-19.7-1.1-38.8-4.1-38.8-6.1c0-2.1,19.8-2.9,33.5-1.5c32.2,3.4,36.8,3.6,36.8,1.7c0-3-5.7-4.5-25.1-6.7 c-35.6-4.1-50.5-6.7-53-9.1c-2.5-2.5,1.9-3.7,9-2.6c29.1,4.8,77.5,9,77.5,6.6c0-1.4-7.6-2.7-25.1-4C115,634.7,76,628.5,72,626 c-2.7-1.7-3.8-4-3.8-8.2c0-6.2,3.1-8,4.5-2.6c1.6,6.1,19.6,10.1,60.3,13.6c28.2,2.4,31.4,4.8,30.3,1.5c-1-3-18.5-5.3-36.9-8.3 c-12.7-2.1-15-4.9-4.2-5c6.3-0.1,6.7-0.3,3.1-1.7c-7.2-2.9-1.4-5,15.9-5.6c28.8-1,32.5-6.6,5.3-8.1c-26.9-1.5-47.9-9.6-55-9.6 c-3.1,0-4.3-2.5-1.8-3.8c0.7-0.4,16.7,0.2,35.6,1.3c37,2.2,39.6,1.8,31.6-4.1c-12.2-9-88-7.9-74.3-17.9c3.2-2.4,18.1-2,46.7,1.3 c31.4,3.6,8.6-1.9,29.7-1.9c17.8,0,11.2-4-8.8-5.4c-88.2-6-86.9-5.8-86.9-13.1c0-4.4,2.4-5.3,9.6-3.4c9,2.4,40.1,4.6,49.8,6.9 c10.9,2.6,55.1,6.6,56.5,5.1c7.9-7.9-48.6-5.6-93.1-19c-9.8-3-12.3-3.2-17.1-1.4c-6.4,2.3-9,1.4-9-3.1c0-6,4-7.3,14.5-4.4 c39.8,10.9,85,6.8,113.8,11.2c12.8,2,20.6,1.1,20.6-2.5c0-2.1-14.9-3.6-68.6-7.1c-16-1-23.4-3.1-20.7-5.8 c1.3-1.3,19.6-0.3,48.3,2.8c7,0.7,9.5,0.5,8.4-0.7c-2.4-2.5-23.5-3.1-25.9-3.6c-0.4-0.1,0.2-1,1.3-2.1c1.3-1.3,10.5-2.3,25-2.9 c21.9-0.9,32.4-4.1,14.2-4.4c-4.4-0.1-10.6-0.9-13.8-1.9c-7.9-2.5-23.4-2.9-42.7-6.2c-21.4-3.7-38.2-5.3-45-9.4 c-2.9-1.8-6.6-3.2-8.2-3.2c-4.1,0-3.1-5-1.7-5c19.9,0,91.7,14,128.8,6.8c9.2-1.8,10.9-1.7,14.9,1c5,3.3,29.4,3.7,89.4,1.4 c100.5-3.7,158.5-1.3,139.8,5.8c-9.2,3.5-24.3,2.2-24.3,6.3c0,2.6,0.7,2.6,22.7-1.5c16.1-3,24.7,1.2,15.5,7.6 c-2.8,2-6.6,2.3-17.6,1.5c-9.2-0.7-14-0.4-14,0.8c0,2.6,4.3,3.8,14.2,3.8c11.2,0,14.6,3.1,9.2,8.4c-3.7,3.7-10.8,3.9-18.9,0.7 c-2.4-1-3-0.6-2.5,1.8c0.3,1.7,3,3.8,5.9,4.8c11.9,4.1,8,10.2-5.7,8.8c-6.7-0.7-8.8-0.4-8.8,1.3c0,2.6,3.7,4.2,9.5,4.2 c5.9,0,4.9,7.3-1.1,8c-8.3,1-9.5,2-5.9,4.7c3.7,2.7,3.2,2.7-1.8,11.5c-15.7,0.4-41.7,1.4-64.3-0.8c-34.5-3.5-58.1-2.2-59.6,3.1 c-3.5,12.1-14.5,16.1,5.2,25.6c12,5.8,19.2,15.7,19.2,26.2c0,2.7,0.7,7,1.5,9.7c2.1,6.7,4.7,27,7.6,37.7 C342.3,691.8,337.6,702.1,333.3,688.9z M69.7,601.5c2.4-2.4,7.9,2.5,6.2,5.3c-1.7,2.7-5.9,2.2-7.1-0.8 C68.3,604.6,68.7,602.5,69.7,601.5z M95.3,596c11.3,1.4,19.9,4,19.9,6.1c0,4.4-26.6-0.2-28.1-4.9C86.4,595.4,88.1,595.1,95.3,596z M449.1,477c10.5,1.4,13.4,5.2,19,5.2c2.2,0,4.4,1,4.7,2.1c0.8,2.5-29.8,2.8-35.9,0.4c-4.6-1.9-7.2-6.7-7.2-13.3 c0-5.2,0.9-5.8,8.4-5.2c6.6,0.6,12,6.7,5.9,6.7C438.2,473.1,442.1,476.1,449.1,477z M483.3,563.7c11.6-0.7,14.2,0.6,9.5,4.5 c-3,2.5-22.1,5-24.9,3.3C463,568.6,471.2,564.4,483.3,563.7z M483.6,551.2c3.9-0.2,5.6,0.5,5.6,2.3c0,3-10,4.5-11.7,1.7 C475.8,552.4,477.3,551.5,483.6,551.2z M464,556.7c-0.5-0.9-0.5-2.4,0-3.3c1.5-2.5,5.9-2,5.9,0.7 C469.9,556.9,465.4,558.9,464,556.7z M473.9,527.5c-1.2,3.3-7.3,3.2-7.3-0.1C466.6,522.4,476,522,473.9,527.5z M447.1,576.1 c-4.5,0.9-9-1.4-9-4.6c0-3.1,8.3-6.8,10.8-4.8c4.6,3.8,9.3-5.6,13-1.9c2.9,2.9-1.7,10.3-6.3,10.3 C455.9,575.2,451.9,575.2,447.1,576.1z M452.8,552.1c1.6,0.3,2.9,1.6,2.9,2.9c0,2.6-3,4.1-4.7,2.4 C448.7,555.1,449.9,551.5,452.8,552.1z M565.6,826.2c1.2,47.9-2.2,43,0,69.2c3.2,37.7,3.1,56.2-0.3,58c-9,4.8-39.9,1.9-62.8-5.9 c-35.7-12.2-46.6-12-89.5,1c-13.4,4.1-35,8.3-36.5,8.1c-16.7-2.5-31.4-21.9-30-39.6c1-13,6-46.9,7.8-53.1 c9-30.7,10.9-51.2,10.9-118.8c0.1-45.1-0.4-55.6-2.9-66.5c-1.6-7.1-2.9-15.7-2.9-19.1c0-10.4-10.2-42-18.5-57.4 c-12-22.2-6.3-13.2,54-12.8c23.1,0.2,24.4,0.5,21.4,6c-3.3,6.2-0.1,6,5.6-0.2l5.5-6c15.9-0.6,47.5-1.3,62.5-4.5 c30.3-6.5,44.6-10.1,48.5-12.2c6.9-3.6,3.7,0.4,19.4-8.1c27.6-14.9,16.4-7.4,13.3,78.7C568.7,710.1,562.4,699.9,565.6,826.2z M505.1,542.4c0-3,3.6-2.4,4.6,0.7C510.6,545.6,505.1,546,505.1,542.4z M518.5,523.3c0-2.5,0.9-3.4,2.9-3c1.6,0.3,2.9,1.7,2.9,3 C524.3,526.1,518.5,528.7,518.5,523.3z M546.9,518.3c5.8,0,8.2,3.7,5,7.6C544.8,534.4,533.1,518.3,546.9,518.3z M556.4,528.2 c3.3-3.3,10.9,5.4,11.2,12.7c0.2,6.9-3.3,9.8-6.9,5.5C557.5,542.4,554.6,530,556.4,528.2z M575.9,807c-1.3-3.4,0.6-8,3-7.2 c3.9,1.3,5.8,6.3,3,8h0C578.5,810.1,577,809.9,575.9,807z M611.9,824.5c-6.6-3.4,0.2,0.8,0.2,4.6h0c0,3.5-13.2,1.8-21.7-2.8 c-3-1.6-4.3-1.7-4.7-0.3c-1.4,4.2-8.7,2.1-8.7-2.5c0-3.8,0.6-4.2,4-3.4c3.4,0.9,4.1,0.3,5-4c3.1-15.3,15.1,3.4,18.4,3.4 c2.3,0-10.8-14.4-15.8-17.4c-4.9-2.9-14.9-19.9-14.9-25.2c0-4.2,7.4-3,11.8,1.9c19.5,21.3,51.9,44.1,62.6,44.1 c3.7,0,5.9,0.8,5.9,2.1C654,827.9,617.6,827.4,611.9,824.5z M1241.8,821.3c-3.2-0.1-2.5-5.3,1.4-9.5c1.9-2,3.2-4.9,2.9-6.4 c-0.4-1.9-2.8,0.1-7.7,6.4c-8,10.2-12.2,12.4-17.6,9c-2.7-1.7-6.8-2-15.4-1.1c-31,3.1-7.6-7.4-21.4-3.4c-10.1,2.9-27-0.4-36.5,4.4 c-5.1,2.6-13.9,2.9-89.4,3c-46,0.1-84.5,0.6-85.4,1.2c-1.3,0.8-50.8,2.2-51,2c-247.6,4.9-113.8-0.1-213.8-0.5 c-31.5-0.1-37.4-0.5-38.3-2.7c-0.7-1.8-3.6-2.5-10.8-2.5c-16.8,0-59.8-27.4-68.5-43.6c-2.8-5.3-0.6-4,17.9,10.3 c48,37,67.5,25.2,84.2,30c8,2.3,32.1,4,37.4,2.7c8.3-2.1,4.4-4.4-7.7-4.5c-16.6-0.2-27.3-3.3-45.6-3.9 c-37.1-1.2-59.7-23.5-83.3-40.7c-4.4-3.2-7.9-6.8-7.9-8.1s-1.4-3-3.1-4c-5.6-3-7.9-55.9-3.4-78.8c2.1-10.8,2.4-63.7,5.1-107.1 c3.3-51.3-11.2-72-53.8-76.8c-15.4-1.7-23.8-3.1-40.2-6.3c-5.3-1-8.4-3.6-8.4-6.8c0-6.6,63.8,9.8,91.2,9.4c11-0.2,10.5-0.3-8.4-2.5 c-22.7-2.6-82.1-13.6-86.6-15.9c-6.1-3.2-3.1-5.2,6.3-4c13.9,1.7,11.4-1.8-2.9-4c-16.8-2.6-42.6-11.8-47.3-11.8 c-6.4,0-8.6-4-7.7-13.8c0.4-4.5,10.8-1.7,27.9,7.4c6.8,3.6,33,10.6,41,14.9c16.5,8.8,48.1,17.2,75.3,20c8.7,0.9,21.4,3.2,28.2,5.1 c11.8,3.3,16.1,3.2,12.7-0.2c-0.9-0.9-9.1-3.2-18.3-5.2c-21.7-4.6-23.1-5.2-15-6.6c5.9-1,6.1-1.2,1.7-1.4 c-14.8-0.9-55.6-16-60.8-14.8c-1.6,0.3,1.7,1.9,7.2,3.4c33.4,9.4,43.7,14.5,29.1,14.5c-13.8,0-59.2-15.4-59.2-20.1 c0-1.8,1.7-2.4,6.3-2.1c7.6,0.4,8.1-0.8,1.3-3.1c-14.4-5-2.7-5.3,16.7-0.4c12.7,3.2,15.4,1.4,24.9,4.7c9.6,3.4,43.2,7.8,64.3,11.9 c31.1,6.1,193,3.5,197.9-3.2c2.6-3.6,4.2-3.6,4.2-0.1c0,2.1,1,2.5,4.6,1.5c11.1-2.8,33-4,79.9-4.4c77.3-0.6,65.4-2.7,178.2-3.9 c110.1-1.1,180.2-7.6,244.9-7.7c14.6,0,6.7,5.7-9.4,6.9c-10.2,0.7-15.3,1.8-16.7,3.6c-3,3.8-17.3,2.6-54.8,7.1 c-33.2,3.9-101.8,2-91.5,6.7c2.9,1.3,69.8,0.2,100.7-1.7c21.8-1.3,27.8,4.6,6.7,6.6c-39.2,3.8-39.7,5.2-72,12.3 c35.2,0.6,26.3-3.6,60.2-6.2c17.6-1.4,47-7.8,54.8-12c5.2-2.8,14.4-0.2,27.6-4.6c12.4-4.1,36.3-6.3,38.1-3.5 c4.4,7.2-38.1,22.4-69.8,25.1c-66.7,5.6-68.1,8.2-92.5,8.4c-13.8,0.1-33,3.1-35.5,5.7c-2.4,2.4,1.6,3,9.1,1.2 c15.1-3.5,53.6-2.9,78-7.1c22.4-3.8,20.3,1.6-3,7.8c-39.9,10.5-42,15.2-26.2,56.6c2.8,7.2,6.2,14.4,7.6,16 c3.5,3.8,4.2,9.6,15.8,33.8c8.8,18.3,14.7,40.3,13,48.5c-0.5,2.4-0.2,5.1,0.5,5.9c4.7,4.9,9.2,65.2,5.4,72.1 c-3,5.4-2.6,23.4,0.5,24.6c2.8,1.1,2.4,9.6-1.7,34.8C1259.1,829.1,1259.1,822,1241.8,821.3z M1242.4,528.7 c-12,9.6-10.4,18.9-16,12.2c-5.6-6.7,7-20.9,18.5-20.9C1249.8,520,1248.8,523.6,1242.4,528.7z M1329.7,650.8 c60.6,0.9-13.8,5.3-6.7,5.3c-49.8,4.4-55.8,3.8-52.5-4.8C1272,647.5,1279.9,650,1329.7,650.8z M1308.4,630.6c0-0.9,0.7-2.1,1.6-2.6 c2.2-1.4,28.6,1,27.7,2.5C1336.5,632.3,1308.4,632.5,1308.4,630.6z M1299.1,637.3c-1.7,2.8-32.5,1.8-33.6-1c-1.7-4.5,0.8-8,4.9-6.8 C1280.2,632.4,1301.6,633.2,1299.1,637.3z M1271.9,835.9c-2.1,0.7-6.2-4.4-4.7-5.9c1.4-1.4,6.3,1.5,6.3,3.7 C1273.6,833.7,1273.3,835.4,1271.9,835.9z M1287.8,877.1c-3.5-3.5-0.9-5.8,5.9-5.3c5,0.4,7.1,1.3,7.1,3 C1300.8,877.4,1290,879.3,1287.8,877.1z M1335.9,874.7c-1.4,2.2-7.5,2.2-7.5,0C1328.4,872.5,1337.3,872.5,1335.9,874.7z M1401.7,886.1L1401.7,886.1c-2.2,2.2-6.4,2.7-6.3,0.8C1395.4,884.7,1408.7,879.1,1401.7,886.1z M2036.3,856.5 c-17.4,3.7-228.4,0.7-299.6,5.5c-113.2,7.6-132.8,3.7-157.7,8.6c-22.7,4.5-47.7,1-65.7,4.2l0,0c-13.7,2.4-60.6,3.4-77,1.6 c-33.2-3.6-65.6,1.7-59.3-5.9c4.7-5.7-61,1.9-62.4-8c-0.6-4.1-1.3-3.5-38.6-2.6c0.6-4.2,1.4-13.4,4.4-16.4c1.9-1.9,2.1-3.2,0.7-5.4 c-3.6-5.8-0.5-8,13.3-9.2c28.8-2.5,26.8-5.5,65-5.7c50.7-0.4,105.3-5,1.2-5.4c-61.5-0.2-78.9-3.3-29.6-5.3c5.7-0.2,9.9-1.1,9.6-2.1 c-0.9-3.6-53.2-0.2-56.5,0c0-11.1-4.8-11.9,51-12.5c38.3-0.4,40.1-2,56.5-4.5c15.5-2.3,5.3-3.2-32.6-2.9 c-54.5,0.4-71.9-0.7-72.9-4.4c-1.9-7.3,0.5-7.9,34.3-9c33.3-1.1,78.3-5.6,78.3-7.9c0-2.5-2.6-2.7-11.7-1c-11.6,2.2-84.9,2-102.1,2 c0-11.1-1.7-12.5,24.2-12.6c26.3-0.1,81.7-3.7,92.8-6c9.6-2-0.3-3.4-14-2c-8.3,0.8-34.1,1.3-57.5,1c-50.4-0.6-47.1-0.4-47.1-15.2 l23,1c35.4,1.5,85.8-3.5,85.8-8.5c0-1.7-1.1-2.1-3.8-1.4c-16.3,4.5-104,5.3-106.7,1c-1.9-3-2.2-10-0.4-10.1 c37.1-0.7,65.2-1.7,72.4-2.5c32.9-3.7,42.7-1.3,42.7-6.6c0-4.5-1.8-3.2-21.8-0.7c-25.4,3.2-81.3-1.5-90.9,1.4 c-5.4,1.6-5.5,1.5-5-2.9c0.7-6,5.7-6.7,52.4-6.9c41.5-0.2,59.6-1.6,60.7-4.8c0.6-1.7-2.9-1.9-17.4-0.8c-22,1.6-73.1,1.3-95.1,1.3 l-1.1-7.5c13.5,0,97.7,1.2,107-7.2c5.4-4.9,26.3-1.4,26.3-6.1c0-2.9-0.3-2.9-49.4-0.2c-48.3,2.7-82,1.4-82,3.6 c0,2.5-6.2,1.9-7.2-0.6c-2.4-6.3,0.5-6.7,51.8-7.9c30.6-0.7,51.5-1.9,54.1-3c3.3-1.5,0.6-1.6-12.1-0.8c-16,1-52.5-0.6-50.8-2.2 c5.5-5.5,94.8-5,97.2-7.3c3.9-3.8-2.5-4.7-26.7-3.4c-33.7,1.8-28.8-1.5-22.5-1.7c26.4-0.9,19.2-3.2-9.8-3.2 c-38.5,0-33.5-2.7,6.8-3.8c19.7-0.5,35.9-1.7,38.8-2.8c8.3-3.3,2.7-5-11.6-3.4c-17.5,1.9-59.4,2-59.4,0.2c0-2.3,11.7-5.1,25.1-5.9 c18.5-1.2,20-6.1,35.9-6.1c10.6,0,14.3-2,7.7-4.2c-1.8-0.6-12.5-0.2-23.8,0.8c-39.8,3.5-103,3.3-106.2-0.3c-4.7-5.2-1-6.4,15.4-4.7 c58.7,6.2,1.2-6.3,5-6.7c6.5-0.6,45.6-0.8,86.7-3.4c13.6-0.9,26.6-1.6,28.9-1.6c2.6,0,4.1-1,4.1-2.7c0-2.3-1.3-2.6-8-1.7 c-11.7,1.6-76,2.2-88,3.7c-12.3,1.6-41.3-0.9-41.3-3.5c0-4.2,25.3-0.8,30.8-6.3c4.4-4.4,11.5-1.7,39.5-4.7 c34.7-3.7,71.6,0.6,66.3-8c-2-3.2-69-2.7-70.2,0.6c-1,2.7-19.5,3.8-19.5,1.1c0-2-44.4-3.1-49.8-4.6c-3.9-1.1-5.3-5.7-1.7-5.7 c1.2,0,18.7-0.4,38.9-0.9c66.6-1.6,150,1.1,151-2c0.7-2.1-41.9-4.3-56.7-3c-13.2,1.2-27.6-1-26.9-4.1c0.4-1.6-0.6-1.9-3.3-1 c-13.4,4.3-111.8,1.1-111.8-3.6c0-1.2,1.8-2.2,4.1-2.2c2.2,0,4.6-0.8,5.2-1.7c1.4-2.3,27.9-1.3,110.4-1.6 c87.4-0.4,89.5,0.1,116.3,2.6c39.1,3.6,46.3,3.6,53.6-0.6c8.9-5.1,2.6-1.7,133.6-1.8c24.4,0,57-9.2,97.7-8.6 c38.4,0.6,102.6-1.2,106-3c6.8-3.6,153.7-6,218.3-3.6c25.7,1,204.6-2,217.6-3.6c31.2-3.9,75.6-1,84.4-5.5c7-3.6,7-3.6,8.2,22.7 c4.5,95.8,18.2,116-25.4,116c-34.4,0-23.9,0.5-42.4,9.8c-23,11.7-16.1,24.1,13.7,24.3c34.4,0.3,41.9,30.1,12.8,50.3 c-11.1,7.7-13.2,10.6-23.7,13.3c-12.1,3.2-37.7,15.4-44.4,21.2c-14.2,12.2-22,10-65.5,54.9c-14.2,14.6-14.6,14.9-18.9,12.7 C2210.1,850.5,2057.6,852,2036.3,856.5z M1327.6,680.6c1.4-2.2,7.5-2.2,7.5,0C1335.2,682.8,1326.2,682.9,1327.6,680.6z M1346.4,678.8c8.9-0.3,21.6-2.2,23.1,0.1c1.3,2-6.7,2.1-5.3,2.1c-16.6,0.9-20.8,0.8-21.6-0.6 C1342.1,679.6,1343.8,678.9,1346.4,678.8z M2563.9,678.7c-5.6,3-16.6,4.2-18,1.9c-0.9-1.5-5.9-1.7-19.4-0.8 c-16.3,1.1-18.3,0.9-19.3-1.7c-2-5.3,2.8-6.1,30.3-5.1C2564.3,674.1,2570.2,675.4,2563.9,678.7L2563.9,678.7z M2604.9,929 c-11.1,2.3-41.3,2.3-44.2,0.1c-1.7-1.3-4.5-2.4-6.2-2.4c-12.5-0.2-29.3-7.3-34.8-14.8c-3.1-4.2-6.3-8.5-7.1-9.6 c-1-1.3-0.1-3.8,2.3-7.1c3.3-4.5,3.6-5.8,1.9-10.6c-2.7-7.7-2.4-11.3,1.5-16.2c1.8-2.3,3.3-5.7,3.3-7.4c0-4.1,6.6-6.7,18.4-7.2 c14.6-0.6,30.1-2.9,31.1-4.5c1.8-2.9,5.4-1.3,7.1,3.1c0.9,2.5,5.1,13.9,9.3,25.3C2602.3,917.8,2614.7,927,2604.9,929L2604.9,929z M2461.4,962.6c6,7.2-13.8,8.6-19.4,3.4c-3.3-3.1-6.9-4.1-18.3-5c-13.3-1.1-14.3-1.4-15.2-5.4c-2.2-8.7,1.5-9.7,33.4-9.8 c33.1,0,33,0,33-3.1c0-3.4-3.6-4.3-22.8-5.5c-17.3-1.1-20-2.3-15.4-6.9c1.1-1.1,3.5-2,5.2-2c6.9,0,15.9-3.9,17.6-7.6 c1.4-3.1,3.9-4.2,14-5.8c27.6-4.6,21.3-9.2-12.5-9.2c-24.8,0-31.4-2.8-20.2-8.4c6.9-3.4,4.9-5.5,19.9-6.2c18-0.8,16.5-5.4-2-6 c-16.9-0.6-19.9-3-11.8-9.2c5.3-4.1,6.1-4.2,21.4-3c21,1.6,25.8,4.2,21.7,11.7c-2.9,5.5,0.3,17.4,5,18.5c3.3,0.8,4.1,1.9,3.7,5.5 c-0.5,5,1.4,5.2,12.1,9.7c-5.3,4.8-17.2,16.1-23.8,19c-4.4,1.9-5.4,3.4-5.4,7.4c0,5-5.6,8.6-13.4,8.6 C2463.3,953.4,2458.8,959.5,2461.4,962.6z M2366.8,905.6c-0.9-0.4-12.5-0.9-25.8-1.1c-25.7-0.5-29.4-1.8-20.8-7.5 c4.8-3.2,52.1-4.3,63.1-1.6c4.8,1.2,5.9,5.6,2.4,9.1l0,0C2383.9,906.4,2370.7,907.1,2366.8,905.6z M2368,918.8 c-1.7,1.5-4.5,2.6-6.3,2.4c-1.8-0.2-12.2-0.8-23.3-1.3c-17.3-0.8-20.1-1.3-20.6-3.8c-1-5.1,6.7-6.4,30.8-5.2 C2371.9,912.1,2374.3,913.1,2368,918.8z M2342.9,884.1c0.8-5.7,50.9-13.1,56.6-8.4c1.4,1.2,4.8,2.3,7.5,2.7c5.7,0.6,7.6,5.3,3,7.4 C2402.4,889.3,2342.4,887.8,2342.9,884.1z M2381.4,847.1c-4.3,0.5-9.8,1.3-12.1,1.6c-6,0.9-8.9-1.3-7.7-6.1 c1.6-6.3,34.6-16.5,34.6-10.7C2396.1,839.1,2389.3,846.1,2381.4,847.1z M2384.4,865.5c-0.8,0,2.5,2.6-7.7,2.6 c-8.7,0-9.5-3.1-1.4-5.3C2381.3,861.1,2384.4,862.1,2384.4,865.5z M2442.2,729.9c4.5-2.5,7.2-5.4,8.3-8.9 c2.6-8.5,51.4-9.2,54.6-0.8c2.6,6.9,8.9,1.3,10.8,7.3c1.3,4.2-0.2,6.7-4.1,6.7c-4.7,0-8.5,1.8-7.4,3.6c2.3,3.8-5.2,6.1-9.7,6.1 c-4,0.2-10,0.8-13.5,1.3c-6.2,1-9.1-2.4-4.6-5.2c3.7-2.3,1.6-5.9-3.3-5.9c-3.3,0-5-0.8-5-2.5c0-2.1,3-2.5,16.7-2.5 c12.8,0,22.9-2.1,16.3-3.4c-7-1.4-38.7-1.4-41.3,0c-4.8,2.6-4.6,9.4,0.3,10.7c6.8,1.8,0.8,4.1-12.1,4.7 C2432.5,741.8,2429.8,736.8,2442.2,729.9z M2440.7,702.1c1.2-1.9,5.7-1.9,5.7,0.1h0c0,1.8-4.3,3.6-5.6,2.3 C2440.2,704,2440.2,702.9,2440.7,702.1z M2489.5,843.4c-1.7-8.8-42.9,5.9-41.2-6.1c0.5-3.3,2.1-3.7,24.8-5.5 c25.7-2.1,29.2-1.5,25.5,4.5c-3.1,5-2.5,6.4,3.8,9.1c8.8,3.7,7.9,8.4-2.1,10.9c-18.9,4.7-5.5,10.9-36,8.6 c-15.4-1.2-16.5-3.5-2.9-6.5c7-1.6,10.1-3.1,10.9-5.4c0.9-2.9,9.6-6.6,15.6-6.6C2489.1,846.3,2489.8,845,2489.5,843.4z M2469.9,751.2c10.2-0.3,19.1,0,19.8,0.8c2.8,3.2-3.3,22.5-7.7,24.1c0,0.3-6.9,1.6-14.8,1.6h-10.7c-0.9-3.3-3.5-12-3.5-15.3 c0-5.7-2.1-8.1-7-8.1c-10.5,0-16.2-7.6-6-8c3-0.1,9-0.7,13.4-1.3c9-1.2,10.9,1.3,2.9,4C2448.7,751.7,2449.9,751.8,2469.9,751.2z M2434.3,860.9c0.4,3-0.3,3.8-3.5,3.8c-4.9,0-6.3-1.2-6.3-5.4C2424.6,854.4,2433.6,855.9,2434.3,860.9z M2420.5,704.1 c-1.1-1.8,4.2-5.1,8.1-5.1c3.6,0,5.3,3.4,2.5,5.2h0C2428,706.2,2421.7,706.1,2420.5,704.1z M2434.2,692.9 c-6.6,1.8-16.3,0.4-16.3-2.4c0-3.8,11.2-6.3,17.4-3.9C2439.2,688.1,2438.6,691.8,2434.2,692.9z M2476,961 c4.4-0.6,11.3-1.8,15.5-2.7c7.7-1.8,13.4,1.5,13.4,7.7c0,1.4,1.5,1.8,4.4,1.3c3.5-0.7,4.2-0.3,3.8,2.2c0,1.1-1.3,3.1-2.3,3.3 c-5.2,0.8-29-2-32.1-3.8c-2-1.1-5.2-2.1-7.1-2.1C2464.3,966.8,2468,962,2476,961z M2549.4,815.9L2549.4,815.9 c-0.8,1.4-25.2,2-30.3,0.8c-7.4-1.8-11.3-23.8-5-29c1.4-1.1,2.5-4.3,2.5-6.9c0-6.8,7.4-7,9.1-0.3c1.2,4.9,12.2,21,19.8,29.2 C2548.1,812.5,2549.9,815.2,2549.4,815.9z M2507,695.7c2.5,0,6.4-0.9,8.7-1.9c10.5-4.8,35.1,4.3,29.7,10.9v0 c-2.8,3.4-3.5,3.4-8.4,0c-8.5-5.9-42,3.6-42-4.8C2494.9,697.5,2500,695.7,2507,695.7z M2478.9,689.9c0.2,0-18.4,0.9-23.7,1.5 c-6,0.6-7.2-0.1-7.2-4.2c0-5.8-4.9-7.5-22.4-7.5c-14.4,0-16.9-0.4-17.4-2.8c-0.7-3.6,3.3-4.4,13.9-2.7c12.8,2,15.1-2,64.8-2 C2502.2,687.5,2505.8,688.5,2478.9,689.9z M2269.8,841.5c-16.5,17.4-65.3,79.8-70.4,80.1c-2.9,0.1-18.4,29.5,22.6,36.1 c10.8,1.7,26.6,9.2,33.4,9.2c4.5,0,7.9,3.4,5.6,5.7l0,0c-1.6,1.6-29.5,1.1-32.1-0.5c-1.3-0.8-8.7-1.5-16.4-1.5 c-19.8,0-35.6-7.3-35.6-16.4c0-8.5,13.2-32.3,18-32.4c2.5-0.1,2.8-6.1,0.4-7.6c-3.3-2-1.6-8.7,3.5-13.5c2.8-2.7,6.4-7.3,7.9-10.2 c6.4-12.3,50.2-55.4,69.5-68.5c11.8-8,15.9-17.5,25.6-22.4c2.6-1.3,6.6-4,8.9-6c3.9-3.4,39.8-22.4,42.3-22.4 c4.6,0-0.2,6.9-8.2,11.8c-10.8,6.7-29.1,21.3-29.1,23.3c0,1.2-3.5,3.7-16.7,11.8C2285.3,826.3,2280.3,830.3,2269.8,841.5z M2287.7,928.6c0.6-5.1-4.2-4.7,46.5-3.5c27.8,0.7,30,1.2,30.1,7.2c0,5.3-2.5,0.4-37.6,0.8c-11,0.1-22.7,0.5-25.9,0.9 C2290.5,935.1,2287.1,933.7,2287.7,928.6z M2311.2,946.6c22.6-0.1,28.4-9.5,35.5-1.7c2.6,2.9,5.6,3.4,22.4,3.8 c18.1,0.4,19.5,0.7,19.5,3.8c0,3.5,0.1,3.4-21.5,7.3c0.2,0-9.6,1.7-12.6,2.5c-1.5,0.4-5.1-0.7-8-2.5c-4.1-2.5-9.8-3.4-26.4-4.3 C2293.7,954.3,2286.2,946.8,2311.2,946.6z M2491.5,988.6c-19.6,0.1-53.6,2.2-77,3.7c-30.4,1.9-92.5-2.8-91.7-6.9 c0.7-3.5,54.9-4.9,61.1-1.6c5.1,2.7,39.9,0.9,55.6-2.9c10.1-2.4,13.3-2.6,19.6-0.9c4.1,1.1,8.3,1.5,9.3,0.9 c2.2-1.3,55.9-1,60.2,0.4C2541.3,985.1,2524.5,988.5,2491.5,988.6z M2530.9,956.8c-2.9-4.7,6.5-7.5,5.5-2.3h0 C2535.8,957.9,2532.4,959.3,2530.9,956.8z M2740,985.2c-12.6,0-20.6,1-20.6,1.5c-5,2.6-15.9,3.2-27.9,1.4c-21-3.1-154.8-0.5-156-4 c-2-6,79.7-3.6,99.1-7.2c24.2-4.6,59.1-5.4,111-2.5C2779.2,976.2,2774.5,985.2,2740,985.2z M2642.1,945.7c0-3,3.6-2.4,4.6,0.7 C2647.6,949,2642.1,949.3,2642.1,945.7z M3606.8,876.2c-1.4-2.3,1.8-5.5,4.2-4.1C3616.4,875.5,3608.5,878.9,3606.8,876.2z M3693.8,786c3.3,18.4,3.3,21-0.5,26.4c-2.8,4-3,6-1.7,16.2c5.3,42,3.7,47.4-14.3,47.9l0,0c-14.4,0.4-29.2,1.5-33.5-0.2 c-4.9-1.9-11.6,1.2-13.4-1.6c-1.8-2.9-0.4-3.6,8-4.2c7.7-0.5,11.2-1.8,11.2-4c0-1.3-55.2-2.4-55.2,1c0,1.4-2.3,2.1-6.5,2.1 c-4.9,0-6.7,0.8-7.3,3.1c-1,3.9-29.3,3.2-32.2-0.8c-2.2-2.9-12.6-1.2-12.6,2.2c0,3.1-4.1,2.9-6.7-0.2c-2.6-3.2-4.9-3.2-8.4,0 c-4.9,4.4-16.5-0.7-101.2-1.9c-182.8-2.5-123.5-6.2-173.2-6c-55.4,0.3-26.6,3.7-69.5,3c-290-5.3-269.3-7.2-403.8-12.7 c-70.2-2.9-44.9-3.7-94.9-37.6c-24-16.3-27.1-20.3-35.4-23.3c-18.3-6.6-60.2-37.6-71.6-44.3c-14.6-8.6-22.1-22.9-20.6-39.1 c1-10.1,3.7-13,13.2-14c21.3-2.3,28.2-4.3,32.5-9.3c7-8.3,4.9-16.6-5-20.6c-6.8-2.8-168.9-3.3-169-3.3c0.3-23.5,1.1-50.9-1.7-90.4 c-3.3-47-1.6-60.6-2.4-97.4c-0.5-24.4,0.6-18.6,11.9-59.9c5.3-19.5,14.3-47,16.6-62.8c4.1-27.6,7.2-35,17.4-75.3 c6.6-26.1,10.3-26.9,11.9-43c2.2-22.2,27.7-76.9,44.2-95c2.5-2.8,6.6-9.2,9.1-14.4c7.3-15.1,14.5-20.4,20.8-31.6 c10.9-19.5,32.2-31,47.1-44.4c8-7.2,18.4-12.9,21.4-11.7c3.1,1.2-1.9,7.6-6,7.6c-3.9,0-46,42.5-59.4,60 c-14.7,19.1-16.6,22.3-30.4,49.5c-6,11.9-12,22.8-13.2,24.3c-2.9,3.4-7,16.6-9.3,30.2c-3.6,21.1-16.8,50.5-16.8,61.7 c0,8.7-3.9,11.1-15.1,60.4c-8.7,38.5-11.6,36.5-16.7,82.8c-3.7,33.8-8.6,43.1-7.2,69.2c0.6,10.3,0.2,19.7-1,24.5 c-2,8-4.2,36-6.9,90.4c-2.9,57.6-5.2,58.3-0.7,57.5c9.8-1.9,3.6-50.1,10.9-56.3c2.1-1.8,3.2-4.9,3.2-9.5 c0-10.2,18.6-25.2,50.2-40.4c10.6-5.1,20-11.5,26.5-15.8c20.3,0.4,104.7,2.3,121.6,2.4c18.4,0.1,46.4-2.4,49-4.4 c4.2-3.3,48.2-4.3,54.1-1.1c3.8,2,14.2,2.1,18,0.1c1.6-0.8,7.2-0.9,12.7-0.1c18,2.5,83.7,3.5,150.8,5.9c48.3,1.8,15-1,61.1,0.4 c84,2.4,254.4,1.5,284.5,1.3c32.6-0.2,36.5-0.5,41.4-3.5c4.8-2.9,6.1-3,10.9-1.1c8.4,3.4,24.6,5.5,34.2,4.3 c15.1-1.8,22.3,5.4,30.1,2.4c7.1-2.7,95.6-0.5,135.3,3.4c19.3,1.9,39.7,3.9,45.2,4.4c25.3,2.4,6.2,3.9,52.7,5 c31.4,0.7,40.9,1.3,50.3,3.2c4.3,0.8,9.3,0,18.4-3c50.7-17,17.8,2.7-3.3,116.8C3687.9,700.4,3688.1,754.9,3693.8,786z M3574.3,499 c32.8,2.3,41.6,3.8,37.4,6.5c-2.3,1.5-29.1,1.5-53.6,0.2c-19.7-1.1-22.2-0.9-22.2,1.4c0,2.2,2.1,2.7,11,2.7 c10.2,0,15.8,1.9,15.8,5.4c0,0.8-3.4,1.5-7.5,1.5c-7.7,0-9.1,1.1-5.6,4.6c1.5,1.5,1.3,2.2-0.8,3c-11.3,4.3,3.2,4.8,23.2,0.8 c15.1-3,38.4-0.5,38.4,4.1c0,3.8-1.4,3.3-19.4,2.2c2.1,8.3,2.8,8.7-2.6,8.5c-5.6-0.2-34.6-3.9-52.5-6.6 c-17.6-2.7-23.3-1.2-42.7-3.4c-8.3-0.9-21.6-0.9-35,0.1c-26.2,2-25.5,2.4-24.9-15.4c0.3-7.6,0.6-19.2,0.7-25.6 c0.3-15.8,4.6-20.2,12.5-12.8c6.3,5.9,34,2,56.7,8.6c6.4,1.9,14.1,3.4,17,3.4c7.1,0,10.6,1.5,9.6,4.1 C3528.6,495.3,3533.6,496.1,3574.3,499z M3555.1,489.1c8.2-1.2,10.9-0.4,10.9,3.4c0,1.7-1.8,2.4-6.3,2.2 C3546,494.2,3543.2,490.9,3555.1,489.1z M3660.3,533.3c-2.1,1.9-25.6,3.2-26.7,1.5c-1.2-1.9,3.8-2.9,9-4.9 C3651.2,526.4,3664.9,529.1,3660.3,533.3L3660.3,533.3z M3609.5,517.5c0-4.7,28.4-8.4,37.5-4.9c4.3,1.7,3.3,7.4-1.3,7.4 c-2.2,0-6.1,0.3-8.8,0.6C3626.6,521.7,3609.5,519.9,3609.5,517.5z M3652.6,498.8c-3.9,0.6-8.6,1.3-10.5,1.7 c-4.7,0.9-33.3-1.4-35.7-2.9c-8-4.9,23.9-9.6,45.3-6.7C3662.5,492.3,3663,497.3,3652.6,498.8z M3725.4,516.6c-1.8-0.1-7.6-3.5-10-6 c-1.8-1.8-11.6-3.1-32.9-4.5c-17.7-1.1-6.1-7.8,14.4-8.3c20.3-0.5,29.8,3.6,29.8,13C3726.6,509.9,3726.7,516.6,3725.4,516.6z M3731.4,522.8c9.2-4.5,11.4,2.2,4.3,13.1c-4.6,7-12.4,5.5-12.4-2.4C3723.3,527.8,3724.6,526.1,3731.4,522.8z M3692.8,517.5 c21.6-1.4,24.1,5.1,3.7,9.9c-6,1.4-12.3,2.4-14.2,2.3C3658.5,528.1,3666.1,519.3,3692.8,517.5z M3710.1,801.5 c-2.8-0.9-2.3-9.9,0.6-11c3-1.2,19.6,4.3,19.5,6.4C3730.1,798.6,3713.1,802.5,3710.1,801.5z M4181,796.9 c-6.4,0.7-13.4,1.9-15.7,2.8c-5.4,2.1-102.5,7.4-111.9,5c-5.8-1.5-246.8-3.4-258.2-6.8c-3.2-1-10.5-1.7-16.2-1.7 c-12.9,0-36.4-10.3-50.9-22.3c-9.8-8.1-11.5-9-11.5-5.9c0,5.6,10.5,14.6,23.3,20c7.4,3.2,13.5,6.3,13.5,7c0,3.2-5.7,2.8-19.5-1.4 c-25.6-7.7-24-6.5-24.3-17.3c-0.7-25.3,0.6-29.6,7.2-24.8c25.4,18.3,61.9,34.8,82,37.2c4.9,0.6,11,1.7,13.6,2.5 c6.5,2.1,5.7-0.8-0.8-3c-40.6-13.9-47.8-14.3-75.9-49c-11.3-13.9-15-22.6-16.5-38.7c-0.7-7-2.3-14.2-3.6-15.9 c-3.7-4.7-1.3-2.7,0.8,20.4c1.8,19,5.3,26.8,19.2,43c16,18.6,14.1,20.2-8.2,6.8c-21.9-13.2-27.3-55.9-12.7-100.8 c7.1-21.7,4.3-20.2,7.4-26.5c3.4-6.9,1.8-11.7,10.2-31.3c9.2-21.3,6.6-25.4,13.4-42.6c10.9-27.8,5.5-45.7-18.4-61.9 c-21.9-14.8-83-21.9-186-21.8c-58.1,0.1-60.7-0.3-59.3-7.5c0.2-0.8-3.2-1-7.5-0.4c-17,2.3-20.5-10.7-4.1-15.4 c10.5-2.9,53-3.7,85.3-1.5c23.9,1.6,23.3-1.2-0.8-4c-41.8-4.9-80.2-2.3-92.7,6.2c-9.2,6.3-14.5,3.6-7.3-3.7 c1.6-1.6,3.7-4.5,4.6-6.3c4.7-9.5,41.7-10.6,96.2-2.9c26.1,3.7,36.8,4.3,36.8,2.1c0-1.8-34.2-5.6-63.6-9.7 c-50.4-7-79.5-0.3-86.3,19.9c-3.4,10-7.3,10-10.5-0.1c-1.2-3.9-2.9-7.1-3.8-7.1c-2.5,0-1.7-9,1.2-13.1c6-8.5,17.3-7.7,45.9-10.5 c33.7-3.2,145.5-2.3,217.6,1.9c104.5,6.1,323.7,1.1,352.3,6.3c19.6,3.6,111.8,2.2,138.1-2.1c5.5-0.9,9.3-0.5,14.2,1.5 c5.6,2.4,13.3,2.7,52.7,2.5c88.8-0.5,136.9,0.9,163.2-0.5c38.8-2.1,35.7,5.4,54.8-1.7c8.9-3.3,12.8-3.8,25.6-3.3 c27.6,1.3,62.5-8.1,71.4-19.2c4.5-5.6,8.5-6.3,12-7.3c-0.3,5.3-1.4,31.7-3.9,34.7c-1.5,1.8-1.3,3.2,0.7,6.1 c4.4,6.3,3.5,14.8-1.5,14.8c-4.3,0-6.1,5.3-2.5,7.5c2.9,1.8,2,8-0.9,6.9c-1.4-0.5-4.6,0.4-7.1,2.2c-3.9,2.7-9.1,3.3-38.8,4.3 c-56.2,1.9-64,2.3-73,3.3c-20.7,2.4-46.4,21-54.3,39.3c-7.8,18.2-13.1,11-7.9,19.8c5,8.5,3.4,48-2,48c-1.3,0-3-2.6-3.8-5.9 c-2.2-9.1-5.4-11.2-4-18.7c2.6-13.3,3-21.1,1.3-22.2c-1.1-0.6-2.1,0.5-2.6,2.7c-8.8,43.1-10.1,46.5-17.3,46.5 c-4.4,0-4.7-5.1-1-18.2c2.2-7.8-3.4-2.7-7.1,6.5c-2,4.9-5.6,10.4-8,12.2c-7.2,5.2-2.5,9.5-6.3,19.1c-2.7,6.9-6.5,22.1-7.5,29.8 c-1.1,8.6-8.5,28.4-11.7,31c-1.3,1.1-2.4,3-2.4,4.2c0,1.2-1.3,3.2-3,4.4c-6.4,4.7-6.5,12-12.6,10.6c-3.6-0.9-15.7,14.6-23.1,29.3 C4266.7,733.3,4196.2,795.2,4181,796.9z M4403.9,586.5c4.4-8.1,6.9,1.3,8,30.3c0.8,20.1,0.6,23.7-1.5,23.7 C4406.8,640.4,4400.9,592,4403.9,586.5z M4402.7,575c0-6.4,3.9-5.8,4.7,0.7c0.4,3.2-0.2,4.5-2.1,4.5 C4403.6,580.2,4402.7,578.6,4402.7,575z M4401.1,741.2c0,12.4-6.4,24.7-5.7,24.7c-4.8,14.5-7,8.3-3.4-9.6 C4396.2,735.3,4401.1,727.2,4401.1,741.2z M4367.4,740.4L4367.4,740.4c-5.9,13-6.7,5.1-1.5-15.6c5.8-23.5,11.4-51.5,12.7-63.5 c1.4-13.1,8-38.9,10.7-41.6C4398.5,610.5,4380.1,712.3,4367.4,740.4z M4377.2,581.9c-3.4,0-4.3-1.4-3.3-5.2 c1.1-4.2,4.5-3.2,5.2,1.6C4379.3,580.5,4378.7,581.9,4377.2,581.9z M4336.9,675.2L4336.9,675.2c-5,10.1-6.7,11.9-8.4,9.2 c-1.3-2.2,1.9-11.8,13-65.7c4.5-21.6,8.3-28.4,16.3-28.4c7.5,0,7.1,4.6-3.4,36.8C4347.8,646.9,4343.4,662.2,4336.9,675.2z M4335.7,702.7c-6.5,16.1-23.2,48-29.8,57v0c-21.9,29.3,5.2-24.4,9-37.2c1.7-5.7,1.2-2,10-16.4 C4333.7,691.6,4341.1,689.3,4335.7,702.7z M4211.8,799.4c-19.1,0-4-6.8,28-40.6c41.1-43.3,45.1-45.5,23-12.7 c-11.9,17.7-17.1,24.3-35.6,45C4220.3,798.9,4219.3,799.4,4211.8,799.4z M4273.7,797.8c-4.6,0-5.6-4-2.3-9.1c4.4-6.8,1-5.1-6.1,3 c0.2,0-8.4,10.3-15.8,8.4c-11.7-2.9-26.5,0.4-9.8-15.8c9.3-8.9,14.9-18,21.9-28.4c6.9-10.3,7-6.4,16.3-24.1 c26-49.5,50.9-73.5,41.3-39.9c-2.9,10.1-5.2,19.1-5.2,20.1c0,1.7-26.1,45.6-35.9,60.3c-5.3,8-4.6,11.2,1.3,5.7 c3.7-3.5,7.8-4.8,7.8-2.5C4287.3,780.1,4276.5,797.8,4273.7,797.8z M4288,796c-1.2-1.9,10.5-19.2,17.5-25.7 c7.3-6.9,1.8,16.4-5.6,23.8C4298.2,795.7,4288.8,797.3,4288,796z M4319.2,815.3c-2,1.2-4-1.9-2.6-4.1c1.5-2.5,4.2-2,4.2,0.7 C4320.7,813.2,4320,814.7,4319.2,815.3z M4357.7,788.5c-2.1,9.6-11.8,14.7-11.9,6.3c0-2.4-0.7-2.1-3.4,1.3c-3.1,3.9-3.5,4-5.5,1.3 c-2.8-3.6-3.8-0.8-4.2-0.8c-2.7,2.7-25.3,3-26.4,0.4c-0.4-1.1,0.9-5.7,2.8-10.2c7.9-18.2,24.8-60.5,26.8-67.3 c2.7-9.1,6.6-12.8,6.6-6.4c0,10.8-12.3,54-17.9,62.6c-3.1,4.9-0.3,9.2,3.4,5.2c2.6-2.8,8.7-19.7,10.3-28.4 c1.6-8.7,6.9-22.6,9.9-40.2c3-17.1,19.4-79.4,22.5-87.6c2.3-6,2.3-15,0-17.3c-4.4-4.4-1.1-18.1,4.3-18.1h5c0,48.6-0.7,34.6-6.7,72 c-3.4,21.1-13.3,59.3-17.6,68.3c-4.4,9.2-1.6,7.6-8.2,22.1c-5.1,11.2-12.5,35.8-11.2,37.1c1,1,5.1-8.3,8.6-19.6 c3.2-10.3,5.4-13.8,7.7-12.4c2.1,1.3-0.1,18.6-3.1,24.7c-3.3,6.5-0.2,7.4,0.7,4.9C4354.6,774.6,4360.4,776.3,4357.7,788.5z M4377.5,781.4c-4.2,20.9-6,23.4-12.3,16.4c-2.5-2.8-2.7-4.4-1.1-11.8c2.7-12.4,2.4-15.1-1.5-15.1c-4.4,0-4.6,0.9,4.8-18.9 c16.2-34.1,18.7-59.8,22-59.8c2.3,0,1.9,9.2-0.9,20.9c-2.8,11.6-3.1,17.6-0.9,17.6c3.3,0,2.1-24.9,8.5-20.9 c4.8,3-4.1,40.2-11.6,48.5C4382.6,760.5,4379.9,769.6,4377.5,781.4z M4406.9,772.1c-1.4,3.3-2.5,9.6-2.5,14.1 c0,8.4-2.9,13.3-8.1,13.3c-8,0.1-14.6,6.4-6.3-8.6c11.1-20.1,16.7-38.4,17.4-56.7c0.4-9.7,1.4-18.5,2.4-19.7c5.7-6.9,8,17,2.8,30 C4408,756.3,4410.6,763.3,4406.9,772.1z M4415.8,790.5c-0.3,1.7-2,3.3-3.7,3.7c-2.2,0.4-2.9-0.3-2.5-2.5c0.3-1.7,2-3.3,3.7-3.7 C4415.6,787.6,4416.3,788.3,4415.8,790.5z M4414.4,781c-2.2,0-2.2-6.7,0-6.7C4416.7,774.3,4416.7,781,4414.4,781z M4637.4,943.6 c-2.5,2.5-4.3-1.3-2.3-4.8c1.6-2.8,1.7-2.8,2.8,0.1C4638,938.6,4639,942,4637.4,943.6z M4657.6,643c-3.2,7.9-7.1,40.9-7.2,60.8 c0,7.7-1,15.6-2.1,17.6c-2.7,4.8-2.4,19.7-3.7,34.6c-5.4,59.4-1.2,49.4-0.1,81.2c0.4,12.5,1.6,22.9,3.3,27.4 c5.9,16.4,1.6,47.6-8.1,58.5c-6.9,7.8-23,12.9-57.9,18.5h0c-32.8,5.2-21.3,1.9-63.6-2.9c-42.1-4.7-36.9-7.7,14.2-8.2 c50.6-0.5,87.3-4.8,79.8-9.5c-0.9-0.6-7.2,0.1-14,1.6c-34,7.2-171.7,2.6-170.1-5.7c1.2-6,100,1.2,100-4.1c0-7.8-54.2-1.4-56.3-7 c-1.5-3.8-0.8-4.1,15.5-5.9c20.7-2.4,38.2-13,24-14.6c-12.8-1.4-21.9-5.4-12.3-5.4c3.8,0,12.7-4.9,11.7-6.5 c-0.5-0.7-6.3-0.3-12.9,0.9c-10.7,2-49.8,5.5-62,5.6c-3.2,0-4.3,0.7-3.6,2.4c4.2,11,60.3,1.1,48.5,10.9c-1.6,1.3-10,2.3-23.6,2.6 c-22.4,0.6-24.9,1.1-19.3,4.1c5.7,3,4.2,6.2-3.4,7.3c-11.2,1.5-11.2,1.4-12.1-21.1c-1.1-28.9-1.8-18.7,1-43.8l42.1-0.2 c64-0.4,96.6-4.7,59.3-7.9c-72.7-6.3-103.4-6.5-87.5-0.8c6.4,2.3,7.9,6.5,2.5,6.5c-9.1,0-18.5-7.1-12.5-9.4 c5.9-2.3-7.1-13.4,14.7-8.7c9.3,2,38.1,1,55.6-1.9c5.5-0.9,13.4-2.2,17.6-2.9c14.9-2.5,10.5-7.8-7.5-8.9 c-21.5-1.4-22.6-6.6-31.7-6.6c-14.4,0-6.2-4.6,10.4-5.8c34.8-2.6,26.5-12.9,36.5-7.5c5.4,2.9,11.2-2.1,7.1-6.1 c-4.2-4.1-90.6-7.2-94.5-3.4c-12.8,12.8,78,1.1,63.3,10.2c-0.8,0.5-16,1.8-33.9,2.8c-37.4,2.2-35.9,1.8-28.1,9 c6.2,5.7,5.2,5.4,38.2,10.4c22.5,3.4,4.6,8.2-25.5,6.9c-24.8-1.1-24-0.2-23.4-25.6c0.5-22.8,12.1-34.2,20.9-20.5 c1.3,2.1,7.4,0,50.8-2.4c30.8-1.7,35.9-2.6,36-6.6c0-0.6-10-1.6-22.1-2.2c-39.2-2.2-54.5-7.8-24.2-9c9.3-0.3,12.9-1.1,12.4-2.5 c-0.5-1.4-5.5-1.9-17.7-1.5c-14.5,0.5-17.1,0.2-18-2.2c-1.8-4.6,0.3-5,28.5-4.5c26.1,0.5,30.6-0.2,28-4.2c-1.1-1.6-50.3-4.5-69.1-4 c-5.4,0.1-8-0.5-8.7-2.2c-0.8-2,2.6-2.4,21.1-2.5c21.4-0.1,22.2-0.3,25.7-4.3c3.4-3.9,4.4-4.1,14.4-3.2c7.6,0.7,11.1,0.4,12-1 c3.2-5.1-3.3-6.4-41-8.4c-44.8-2.4-47.7-2.9-47.7-8.5c0-4.4,11.8-5.4,28.3-2.3c5.3,1,7,0.6,8.7-1.8c3.4-4.6,25.3-2.7,63.8-4.1 c3-0.1,2.6-4.6-0.6-5.8c-1.5-0.6-13.5-1-26.8-1c-23.7,0-31.9-2.3-20.8-5.9c8-2.5,1.6-3.4-24.4-3.4c-30.5,0-32.5-0.6-32.5-10.9 c0-6.3-0.4-6.3,22.1-3c65.5,9.6,75.8,10.1,75.8,3.9c0-2.8-1.3-3.4-7.9-3.9c-8.5-0.5-10-2.4-4.6-5.7c5.8-3.6,4.3-3.8-36.9-4.2 c-44.7-0.4-46.8-0.9-46.8-9.7c0-6.6,0-6.6,9.1-3.5c20.9,7.3,89.6,10,89.6,3.5c0-2.5-6.9-3.8-27.3-5.3c-24.6-1.8-22.6-10.6,2.4-10.6 c27.5,0,19.5-5.8-9.8-7.2c-10.1-0.5-14.6-1.4-17-3.5c-2.5-2.3-7.5-3.1-23-3.9c-22.5-1.1-27.3-3-27.3-10.7c0-5.8,2.8-6.2,16.8-2.3 c12.8,3.5,56.9,6.5,76.1,9.1c30.7,4.2,40.6-0.3,11.6-5.3c-24.4-4.2-30.7-2.1-35.1-5.5c-2.2-1.7-7.5-2.5-16.1-2.5 c-19.1-0.1-53.4-9-55.5-14.4c-1.8-4.6,1.6-5.7,10-3.3c13.3,3.9,97.8,16,97.8,11.2c0-2.7-5.8-4.6-18.8-5.9 c-10.4-1.1-12.2-2.1-11.5-6.4c1.3-8.1-74.3-0.6-81.9-14.7c-4.3-8,2.4-8.1,25.2-0.4c15,5.1,40.7,4.8,52.7-0.6 c9.4-4.2,69.5-4,154.8,0.4c36.7,1.9,26.9,12.5,15.7,62.6C4661.4,631.4,4659.1,639.3,4657.6,643z M4428.2,726.2 c2-0.4,2.9,0.4,2.9,2.7c0,4,2.7,6.4,8.9,7.9c6,1.5,7.5,5.2,3.4,8.3h0c-3.9,3-13,3.2-15.4,0.4 C4424.9,741.5,4424.9,726.8,4428.2,726.2z M4426.2,717.4c0-4.6,2.6-5.5,9.6-3.2c11.5,3.7,14,4.9,13,6.6 C4446.5,724.4,4426.2,721.4,4426.2,717.4z M4455,718.7c4.9-1.8,10.2,3.8,2.1,3.8C4452.8,722.5,4451.4,720,4455,718.7z M4473.3,722.1c-5.4,0.4-7.1,0-6.6-1.7c0.9-2.6,11.8-3,13-0.5C4479.6,719.9,4480.8,721.6,4473.3,722.1z M4424.8,628.3 c0.9-6.4,14.8-5.2,14.8,1.3c0,1.8-2,2.5-7.6,2.5C4424.9,632.1,4424.3,631.8,4424.8,628.3z M4426.4,544.3c12,3.8,26.6,7.3,26.6,9.3 l0,0c0,3.3-31-1-35.8-5C4411,543.4,4416.1,541,4426.4,544.3z M4663.2,811.7c-2.6-2.6-1.1-10.6,2-10.6c2.8,0,7,6.1,7,10.1 C4672.2,813,4664.9,813.4,4663.2,811.7z M4709.8,860.5c-6.9-2.7-42.7-9.1-42.7-30.3c0-9.6,2.6-9.5,14.8,0.7 c16.4,13.8,27.5,20.5,34,20.5c6.6,0,15,3.9,14.5,6.6l0,0C4729.9,860.4,4714.5,862.3,4709.8,860.5z M4961.8,818.7 c-8.1,28.3-29.8,34.5-124.8,35.4v0c-69.6,0.7-69.3,3.1-76.9-2.2c-1.8-1.3-6.5-2.3-10.5-2.3c-28,0-80.7-45.8-80.7-70 c0-10-8.1-1.5-6-12.3c3-15.4,4.7-37.6,5.3-71.6c0.8-40.8,0.5-38.9,13.5-78.7c16.1-49.1,16.3-55.1,2.3-60.4 c-10.7-4.1-16.7-10.2-20.6-13.6c-92.7,1.5-80.1-1.3-102-1.3c-1.8,0-2.9-1.3-2.9-3.5c0-3.4-0.4-3.4-36.4-2.4 c-68.9,2-82.4,1.4-82.4-4.1c0-3.3,19.9-6.8,38.9-6.8c20.1,0,10.4-7-19.8-3.2c-24.6,3.1-24.3-1.7,0.4-6.9c8.1-1.7,18.5-4.3,23-5.7 c12.2-3.8,33-1.5,62.9-4.9c25.1-2.9,14-0.8,39.9-0.1c20.6,0.5,24.5,1.8,29.5,2.8c-11-9.5-12.6-9.9-28.5-17.9 c-110,0.6-85.6,0.9-123,5.4c-8,1-10.9,2-10.9,3.8c0,2.7,1.1,2.7,15.9,1c8.7-1,15.6,0.7,13,3.3c-1.9,1.9-31.6,9.1-37.1,9 c-23.2-0.4-23.2-0.4-23.4,7.1c-0.2,7.5-11,7.3-11-0.2c0-8.2,31.4-30.3,43-30.3c2.8,0,7.2-0.7,9.9-1.6c15-4.8,153.9-8.5,229.9-6 c33.5,1.1,94.3-1.4,106.3-4.3c9.6-2.3,23.7-2.1,25.3-3.7c0.6-0.6,5.2-1.2,10.2-1.2c5,0,11.3-1.2,14-2.6c7.8-4,8.6,0.9,16.4-3.2 c7.3-3.8,13.6-1.1,27.4-5.9c16.6-5.8,7.2-0.4,28.9-10.9c18.6-9,16.7-8.8,20.1-1.8c2.8,5.8,1,19.5-4.4,34.4 c-2.2,6-2.6,34.9-4.8,43.4c-3.3,12.5-0.6,89.5,3.9,113c0.5,2.8,2.2,11.8,3.7,20.1c4.8,26.1,5,9.6,8.4,49.1 c1.3,15.3,3.5,30.5,4.8,33.7C4962.3,764.6,4966.7,801.5,4961.8,818.7z M4551.7,493.4c24.9-1.4,33.6-0.7,34.7,2.5 c2.4,7.1-25.1-0.9-42.8,2.1c-13.3,2.3-49.3,4.1-50.9,2.5C4489.1,496.9,4489.7,496.8,4551.7,493.4z"/> <path d="M4524.9,856.1c-14.8-2.1-75.2-5.2-81.1-4.1c-6.5,1.2-6.6,4.3-0.1,4.3c6.6,0,9.8,6.6-5.5,6.7c-10.1,0-6.7,3.4,1,3.4 c6.1,0,8.5,1.6,8.7,1.6c4.1,2.7,39.9-0.7,53.6-5c3.2-1,11.5-1.6,18.4-1.4C4534.8,862.2,4538.5,858.1,4524.9,856.1z"/> <path d="M229.8,858c-3.4,0-3,6.7-6.8,13.9c-5.7,11.1,0.2,9,5.5,1.2C232.8,866.7,233.6,858,229.8,858z"/> <path d="M146.1,619.1c21.2,4.9,22.6,5.6,22.6,2.1C168.6,618.3,163.5,618.8,146.1,619.1z"/> <path d="M140.2,617c-6.6-4.3-14.8,1.7-3.9,1.6C141.1,618.6,142.1,618.2,140.2,617z"/> <path d="M1401.2,863.6c-3.8,1.4-19.3,2.7-19.3,4.5c0,0.7,3.2,0.9,7.1,0.5c11.3-1.2,14.6-2.2,14.6-4.1 C1403.7,863.5,1402.6,863.1,1401.2,863.6z"/> <polygon points="1382,868.1 1382,868.1 1382,868.1 "/> <path d="M1430.9,863.7c-0.5,0.5,0.2,2.5,0.4,2.5c1.3,2.1,10.9,2.4,10.9,0.3C1442.2,865,1432.1,862.5,1430.9,863.7z"/> <path d="M1460.6,862.2c-2.5-1.5-4,1.7-9.2,3c0.2,0-3.5,0.8,2.8,1C1460.5,866.4,1463.9,864.2,1460.6,862.2z"/> <path d="M1392.8,838.8c-22.6,3.2-48.7,3.2-55-0.1c-6.3-3.3-42.5-3.6-46.9-0.3c-5.5,4,4.9,6.9,4.9,6.7c8.5,2.1,72.3,1.1,83.7-1.3 c6.4-1.4,15.1-2.5,19.2-2.5c7.1,0,13.4-2.2,11.6-4C1409.9,836.8,1402,837.5,1392.8,838.8z"/> <path d="M1462.2,827.9c-6.8,3.6-22.2-2.5-16.4,4.4v0c3.7,4.5,33.3-0.3,33.3-5.4C1479,824.5,1467.3,825.2,1462.2,827.9z"/> <path d="M1470.2,797.1c4-4-1.7-6.2-13.9-5.4c-13,0.8-17.1,2.5-14.8,6.1C1442.7,799.9,1468.1,799.3,1470.2,797.1z"/> <path d="M1466.3,762.6c-17.4,2.8-19.1,3.3-19.1,5.3c0,2.4,30,0.6,32.5-2C1483.6,762.1,1478,760.7,1466.3,762.6z"/> <polygon points="1447.2,767.9 1447.2,767.9 1447.2,767.9 "/> <path d="M1469.8,731.9c-17.1,3.6-22.8,0.5-23.8,3.6l0,0c-1.4,4.3,34.3,1.8,35.9-2.4C1483.3,729.3,1482.2,729.2,1469.8,731.9z"/> <path d="M1463.4,705.1c-23.1,3.2,12.3,5.1,12.3,1C1475.7,703.8,1474.2,703.6,1463.4,705.1z"/> <path d="M1467.9,677.9c-13.3,1.8-19,0-19,3.6c0,2.8,1.8,3,16.5,1.4c7.5-0.8,10.3-1.7,10.3-3.6 C1475.7,677.3,1474.2,677,1467.9,677.9z"/> <path d="M1450.6,647.2L1450.6,647.2c0,3.2,22.5,1.2,23.1-2c0.9-4.8-5.5,0.1-17.6,0.2C1453,645.5,1450.6,646.3,1450.6,647.2z"/> <path d="M1452.3,624.6c0-2.8-0.7-2.9-6.3-1.5c-2.1,0.6-3.8,1.7-3.8,2.5C1442.2,627.2,1452.3,628.3,1452.3,624.6z"/> <path d="M1445.6,602.1L1445.6,602.1C1445.6,602.1,1445.6,602.1,1445.6,602.1z"/> <path d="M1466.4,602.1c2.3-3.7-20.8-5.5-20.8,0C1445.6,604.1,1465.2,604.1,1466.4,602.1z"/> <path d="M3648.8,853.9c-7.1,1.3-46.1-2.5-46.1-4.5c0-1.8-2.1-1.5,18.4-2.4c20.2-0.9,26.2-1.9,24.1-4c-0.8-0.8-5.3-0.8-9.9-0.1 c-31.9,5.2-149.5-1.8-145,1.4c1.3,0.9,20.6,2.2,43,2.8c37.1,1.1,40.8,1.5,41.7,4.2c1.2,3.9,7.1,5.3,17.9,4.1 c14.5-1.5,56.4,5.2,63,1.1C3659.7,854.2,3655.5,852.7,3648.8,853.9z"/> <path d="M3481.9,840.6c-7-2.2-25.1-2.6-24.4-0.6c0.9,2.9,17.4,4,21.7,4.4C3482.7,844.7,3485,841.5,3481.9,840.6z"/> <path d="M3604.4,834.9c-2.3,1.4,8,1.2,51.5-1c3.9-0.2,7.7-1,8.4-1.7C3666,830.3,3607.5,832.9,3604.4,834.9z"/> <path d="M3639.6,809.7c0-1.1,1.1-1.9,2.5-1.9s2.5-0.9,2.5-1.9c0-1.4-4.3-1.6-15.3-0.8c-23.1,1.6-38.2,0.5-38.2,2.8 c0,0.9,1.1,1.7,2.4,1.7c1.3,0,3,0.9,3.6,1.9c2,3.2-72.9,0.2-116.9-4.5c-7.8-0.8-11.3-0.6-11.3,0.6c0,4,40.2,7.1,36.5,7.1 c35.4,4.4,164.4,2.2,169.5-2.9C3678.3,808.2,3639.6,813.3,3639.6,809.7z M3632,811.3L3632,811.3c-1.3,2-12.5,2-12.5,0 C3619.5,805.5,3633.2,809.2,3632,811.3z"/> <path d="M3633,785.3c-5.8-3-6.1-1.6-82-3.9c-57-1.8-65.7-1.7-63.6,0.3c1.3,1.2,62.2,4.4,83.8,4.4c26.7,0,21.3,2.2,22.9,2.2 c2.2,2.6,49.8,3.6,51.4,1.1c0.5-0.9-1-1.6-3.4-1.6C3639.7,787.7,3635.6,786.6,3633,785.3z"/> <path d="M3654.6,767.6c-1.8,0-3.3-1.1-3.3-2.3c0-1.9-6.4-2.3-36.8-2.4c-20.2,0-37.5-0.5-38.3-1c-1.9-1.2-87.2-1.5-88.3-0.4 c-3.6,3.6,4.4,4.4,41.8,4.2c47.7-0.2,71.5,1.3,71.5,4.5c0,2.1,6.3,3,6.3,2.9c8,0.9,5.8,0.1,31.9-1.5 C3654.7,770.7,3666.4,767.6,3654.6,767.6z"/> <path d="M3642.1,742.2c-3.8-0.2-119.8-9-120.1-9c-19.6-1.7-16.1,1.8,4.2,4.1c36.4,4.2,58.9,3.1,65.1,7.6l0,0 c3.5,2.5,8,2.8,35.8,2.3C3665.8,746.6,3673.8,743.9,3642.1,742.2z"/> <path d="M3659.7,725.6c0-3.4-69-0.2-67.6,2.1C3593.7,730.4,3659.7,728.3,3659.7,725.6z"/> <path d="M3479.3,709.4c2.3,6.9,147.6,8.9,156.7,7c10.8-2.2,2.8-3.6-21.1-3.8C3554.1,712.1,3477.8,704.9,3479.3,709.4z"/> <path d="M3667.2,703.4c-19.3-3-76.1-0.7-76.1,0.7C3591,708.7,3652.9,706.4,3667.2,703.4z"/> <path d="M3510.7,674.8c-13.3-1.4-25.8-2.7-27.6-3c-2-0.2-3.3,0.6-3.3,2.1c0,2.7,32.8,8,51.9,8.3c14.9,0.2,13.3,3.4,55.2,4.9 c59.3,2.1,81.8-0.3,76.9-8.3c-1.3-2.1-13.7-1.5-45.9,2.3C3582.7,685.3,3549.1,678.8,3510.7,674.8z"/> <path d="M3635.4,667.2c23.8,2.4,37.2,1.4,30.9-2.5c-3.6-2.2-76.3-3.2-77.7-1.1C3586.8,666.7,3613.5,664.9,3635.4,667.2z"/> <path d="M3547.5,646.7c-36.6-3.3-76.2-2.8-79.9,1.1c-2.9,3-2.7,3,7.9,1.7c13.3-1.7,40.6-1.1,54.9,1.2c22.8,3.6,90.4,1.4,143.4,9.9 c10,1.6,12.8,1.4,12.6-0.8C3686.3,654.2,3621.7,653.3,3547.5,646.7z"/> <path d="M3664.7,645.5c0-2.3-33.4-7.1-71.1-6.3c7.6,1.3,14.3,2.7,34.8,4.3c21.7,1.8,18,2.5,19.1,2.5 C3649.1,647.8,3664.7,647.3,3664.7,645.5z"/> <path d="M3674.4,625.3c-1-2.9-112.5-1.9-130.2-4.8c-11.6-1.9-66.6-2.5-71-0.8c-6.4,2.4-0.8,3.2,26.7,3.6c41.4,0.6,49.3,5,95.9,7.1 c38.4,1.8,31.6,2.6,33.5,2.6c2.3,2.3,28.5-0.3,31.7-3.1c1.7-1.5,5.6-2.8,8.6-2.8C3672.6,627.1,3674.7,626.3,3674.4,625.3z"/> <path d="M3671.4,610.3c-8.1,0-5.7-3.7-29.3-4.4c-29.9-0.9-44.7-5.4-48.4-2.4c-2.6,2.2-36.3-0.1-62-4.1c-20.8-3.3-58.6-4-64-5.3 c-2.6-0.6-3.8-0.1-3.8,1.6c0,6.2,36.2,2.6,59.7,7.2c28,5.5,120.6,8.1,122.5,10c1.6,1.6,28.5,0.8,29.5-0.9 C3676.2,611,3674.4,610.3,3671.4,610.3z"/> <path d="M3556.7,587.2c10.8,2.9,31.8,1.3,78.7,7.9c-1.6,0,19.8,2.3,28.5-1c6.4-2.5,0.9-3.9-17-4.3c-18.2-0.4-26.6-2.9-17.8-5.2 c3.6-0.9-17.9-1.9-17.9,0.6c0,2.5-32,0.5-53.6-3.4c-24.9-4.4-64.7-7.3-88.4-10.3c-13-1.7-22.9,0-15.2,2.6c9,3,17.4,4.3,28.3,4.3 C3496.2,578.5,3546.2,584.4,3556.7,587.2z"/> <path d="M3640.4,585.2L3640.4,585.2c15.8,2.2,46.4,1.9,45.6-0.4c-0.9-2.8-7.8-1.9-32.2-1.3C3637.2,583.9,3634,584.3,3640.4,585.2z"/> <path d="M3473.1,558.9c26.8,1.7,50.4,4.2,82.8,6.4c30.9,2.1,32.2,5.2,57.7,6.6v0c65,3.5,85.5,0.4,25.9-3.9 c-19.8-1.4-47.7-4.1-61.9-5.9c-40.5-5.1-123.4-9-124.3-5.9C3453.2,556.9,3462,558.2,3473.1,558.9z"/> <path d="M4533.4,521.9c-16.2,2.7-38.6-1-38.6,1.4c0,2.8,36.2,4.2,46,1.4c9.9-2.8,37.6-1.5,37.6-3.8 C4578.4,518.9,4547.4,519.6,4533.4,521.9z"/> <path d="M1215.5,793.8c-10.1,9.1-20.9,15.1-20.9,17.4c0,3.6,6.4,0.2,18.4-9.9c11.3-9.5,13.4-11.4,13.4-12.6 C1226.3,786.1,1221.5,788.4,1215.5,793.8z"/> <path d="M1251.6,777.7c-5.1,0-5,8.9-9.8,16.3c-2.3,3.5-2.2,3.7,0.7,3.3c5-0.8,7.3-2.8,7.3-6.4c0-1.8,1.1-5.6,2.6-8.3 C1254.7,778,1254.7,777.7,1251.6,777.7z"/> <path d="M1228.8,779.8c0.2,0-3.3,10.2,4.3-0.6c2.4-3.3,3.1-5.7,2.1-6.8C1233.1,770.4,1230.4,773.6,1228.8,779.8z"/> <path d="M1141.9,488.8c-3.7-1.4-3.4,3.9,0.3,4.9l0,0c4.5,1.2,26.6,1.3,29.6,0.1C1185,488.8,1146.8,490.7,1141.9,488.8z"/> <path d="M3571.6,461.4c-10.8-4.4-82.8-5.6-85.3-1.5c-1.2,1.9,58.7-1.2,58.7,1.1C3553.5,463.2,3576.7,463.5,3571.6,461.4z"/> <path d="M4293.7,733c3.3-6.2-1.7-3-6.4,4.2c-2.3,3.4-4.6,6.6-5.1,7.1c-3.7,3.3-30,45.1-30,47.8 C4252.1,798.9,4292.7,734.9,4293.7,733z"/> <path d="M4383.4,741.6c-5.6,7.3,0,7.2,1.5,3.3C4386.8,740.1,4385.9,738.3,4383.4,741.6z"/> <path d="M2556.8,143.7c-12.9,9.9-21.4,19.7-19.3,19.7c3.5,5.7,5.4-4.7,23.5-13.3c35.4-16.9,18.2-20.8,26.7-25.7 c4.9-2.8,16.8-14.5,19.2-14.5c2.3,0,14.1-11.2,26.3-20.1c11.6-8.4,21.5-19,32.4-26.6c19.4-13.7,41.6-41.4,23.1-25.6 c-7.8,6.7-27.3,18.2-36.5,24.8c-10.6,7.6-11.7,6.6-8.4,9c3.4,2.3-15.4,18.5-43.5,37.5C2583.8,120.1,2569,134.4,2556.8,143.7z"/> <path d="M3389.8,505.5c-2.7-2.7-25.5-2.9-23.2-0.1C3370.7,510.4,3394,509.7,3389.8,505.5z"/> <path d="M3374.6,495.4c1.4,1.4,1.3,1.4,4.6,0.1c4.1-1.6,3.1-4-1.5-4C3370.7,491.5,3374.6,495.6,3374.6,495.4z"/> <path d="M941.4,444.4c9.8,0.5,6.7-4.4-3.3-5.4c-18.4-1.9-48-2.5-48.9-1.1C886.4,442.3,900.9,442.3,941.4,444.4z"/> <path d="M326,416.7c-8.1-3-11.7-7-11.7-3.2c0,1.3,1.3,2.8,2.9,3.2C321.5,417.8,329,417.8,326,416.7z"/> <path d="M458.6,326.6c4.8,3.3,11.3,3.4,11.3,0.1c0-2.2-9.6-7.6-13.6-7.6C453.4,319.1,454.9,324,458.6,326.6z"/> <path d="M470.2,311.9c9.2,0.2,13,1.1,16.3,3.7c4.8,3.8,6.3,4.2,7.5,2.2c3-4.8-10.4-10.4-24.8-10.4 C453.1,307.4,454.1,311.5,470.2,311.9z"/> <path d="M1081.6,356c-3.5-0.1-9.2,2-9.2,3.5c0,0.8,0.6,1.5,1.3,1.4C1075.7,360.8,1083.4,356.1,1081.6,356z"/> <path d="M3828,350.9c-2.1,2.1,0.8,3,16.7,5.7c16.9,2.8,22,3,23.3,0.9C3870,354.5,3831,348,3828,350.9z"/> </g> </svg>