<?xml version='1.0' encoding='utf-8'?>
<svg xmlns:xlink="http://www.w3.org/1999/xlink" xmlns="http://www.w3.org/2000/svg" version="1.1" id="Layer_1" x="0px" y="0px" viewBox="0 0 5000 2307.291" enable-background="new 0 0 5000 2307.291"> <symbol id="New_Symbol" viewBox="-10 -210.9428 20 421.8857"> <circle cx="0" cy="200.9428" r="10"/> <circle cx="0" cy="169.3142" r="9.2857"/> <ellipse transform="matrix(0.7071 -0.7071 0.7071 0.7071 -97.3585 40.3272)" cx="0" cy="137.6857" rx="8.5714" ry="8.5714"/> <ellipse transform="matrix(0.7071 -0.7071 0.7071 0.7071 -97.3585 40.3272)" cx="0" cy="137.6857" rx="8.5714" ry="8.5714"/> <ellipse transform="matrix(0.2298 -0.9732 0.9732 0.2298 -103.22 81.6902)" cx="0" cy="106.0571" rx="7.8572" ry="7.8571"/> <ellipse transform="matrix(0.2298 -0.9732 0.9732 0.2298 -103.22 81.6902)" cx="0" cy="106.0571" rx="7.8572" ry="7.8571"/> <path d="M-7.1429,74.4285c0,3.9449,3.1979,7.1429,7.1429,7.1429c3.9449,0,7.1428-3.198,7.1428-7.1429 c0-3.9448-3.1979-7.1428-7.1428-7.1428C-3.9449,67.2857-7.1429,70.4837-7.1429,74.4285z"/> <path d="M-7.1429,74.4285c0,3.9449,3.1979,7.1429,7.1429,7.1429c3.9449,0,7.1428-3.198,7.1428-7.1429 c0-3.9448-3.1979-7.1428-7.1428-7.1428C-3.9449,67.2857-7.1429,70.4837-7.1429,74.4285z"/> <circle cx="0" cy="42.8" r="6.4286"/> <circle cx="0" cy="42.8" r="6.4286"/> <path d="M-5.7143,11.1714c0,3.1559,2.5583,5.7142,5.7143,5.7142c3.1559,0,5.7142-2.5583,5.7142-5.7142S3.1559,5.4571,0,5.4571 C-3.1559,5.4571-5.7143,8.0155-5.7143,11.1714z"/> <path d="M-5.7143,11.1714c0,3.1559,2.5583,5.7142,5.7143,5.7142c3.1559,0,5.7142-2.5583,5.7142-5.7142S3.1559,5.4571,0,5.4571 C-3.1559,5.4571-5.7143,8.0155-5.7143,11.1714z"/> <circle cx="0" cy="-20.4571" r="5"/> <circle cx="0" cy="-20.4571" r="5"/> <path d="M-4.2858-52.0858C-4.2858-49.7188-2.3669-47.8,0-47.8c2.3669,0,4.2857-1.9188,4.2857-4.2858S2.3669-56.3714,0-56.3714 C-2.3669-56.3714-4.2858-54.4527-4.2858-52.0858z"/> <path d="M-4.2858-52.0858C-4.2858-49.7188-2.3669-47.8,0-47.8c2.3669,0,4.2857-1.9188,4.2857-4.2858S2.3669-56.3714,0-56.3714 C-2.3669-56.3714-4.2858-54.4527-4.2858-52.0858z"/> <path d="M-3.5715-83.7143c0,1.9724,1.599,3.5714,3.5715,3.5714c1.9724,0,3.5714-1.599,3.5714-3.5714S1.9724-87.2857,0-87.2857 C-1.9725-87.2857-3.5715-85.6867-3.5715-83.7143z"/> <path d="M-3.5715-83.7143c0,1.9724,1.599,3.5714,3.5715,3.5714c1.9724,0,3.5714-1.599,3.5714-3.5714S1.9724-87.2857,0-87.2857 C-1.9725-87.2857-3.5715-85.6867-3.5715-83.7143z"/> <path d="M-2.8572-115.3429c0,1.5779,1.2792,2.8571,2.8572,2.8571c1.5779,0,2.8571-1.2792,2.8571-2.8571 c0-1.578-1.2792-2.8572-2.8571-2.8572C-1.578-118.2-2.8572-116.9209-2.8572-115.3429z"/> <path d="M-2.8572-115.3429c0,1.5779,1.2792,2.8571,2.8572,2.8571c1.5779,0,2.8571-1.2792,2.8571-2.8571 c0-1.578-1.2792-2.8572-2.8571-2.8572C-1.578-118.2-2.8572-116.9209-2.8572-115.3429z"/> <path d="M-2.1429-146.9715c0,1.1835,0.9594,2.1429,2.1429,2.1429c1.1834,0,2.1428-0.9595,2.1428-2.1429 c0-1.1833-0.9594-2.1428-2.1428-2.1428C-1.1835-149.1143-2.1429-148.1549-2.1429-146.9715z"/> <path d="M-2.1429-146.9715c0,1.1835,0.9594,2.1429,2.1429,2.1429c1.1834,0,2.1428-0.9595,2.1428-2.1429 c0-1.1833-0.9594-2.1428-2.1428-2.1428C-1.1835-149.1143-2.1429-148.1549-2.1429-146.9715z"/> <path d="M-1.4286-178.6001c0,0.7891,0.6396,1.4286,1.4286,1.4286c0.7889,0,1.4285-0.6395,1.4285-1.4286 c0-0.7889-0.6396-1.4286-1.4285-1.4286C-0.789-180.0287-1.4286-179.389-1.4286-178.6001z"/> <path d="M-1.4286-178.6001c0,0.7891,0.6396,1.4286,1.4286,1.4286c0.7889,0,1.4285-0.6395,1.4285-1.4286 c0-0.7889-0.6396-1.4286-1.4285-1.4286C-0.789-180.0287-1.4286-179.389-1.4286-178.6001z"/> <path d="M-0.7143-210.2286c0,0.3945,0.3198,0.7142,0.7143,0.7142c0.3945,0,0.7142-0.3197,0.7142-0.7142S0.3945-210.9428,0-210.9428 C-0.3945-210.9428-0.7143-210.6231-0.7143-210.2286z"/> <path d="M-0.7143-210.2286c0,0.3945,0.3198,0.7142,0.7143,0.7142c0.3945,0,0.7142-0.3197,0.7142-0.7142S0.3945-210.9428,0-210.9428 C-0.3945-210.9428-0.7143-210.6231-0.7143-210.2286z"/> </symbol> <g> <use xlink:href="#New_Symbol" width="20" height="421.8857" x="-10" y="-210.9428" transform="matrix(0.4695 1.2983 1.2983 -0.4695 343.5889 1446.0723)" overflow="visible"/> <use xlink:href="#New_Symbol" width="20" height="421.8857" x="-10" y="-210.9428" transform="matrix(0.5426 1.2695 1.2695 -0.5426 361.2704 1490.9305)" overflow="visible"/> <use xlink:href="#New_Symbol" width="20" height="421.8857" x="-10" y="-210.9428" transform="matrix(0.614 1.2366 1.2366 -0.614 381.4745 1534.7079)" overflow="visible"/> <use xlink:href="#New_Symbol" width="20" height="421.8857" x="-10" y="-210.9428" transform="matrix(0.6833 1.1997 1.1997 -0.6833 404.1349 1577.2644)" overflow="visible"/> <use xlink:href="#New_Symbol" width="20" height="421.8857" x="-10" y="-210.9428" transform="matrix(0.7502 1.159 1.159 -0.7502 429.175 1618.4667)" overflow="visible"/> <use xlink:href="#New_Symbol" width="20" height="421.8857" x="-10" y="-210.9428" transform="matrix(0.8145 1.1148 1.1148 -0.8145 456.506 1658.1824)" overflow="visible"/> <use xlink:href="#New_Symbol" width="20" height="421.8857" x="-10" y="-210.9428" transform="matrix(0.876 1.0671 1.0671 -0.876 486.0366 1696.2932)" overflow="visible"/> <use xlink:href="#New_Symbol" width="20" height="421.8857" x="-10" y="-210.9428" transform="matrix(0.9346 1.0162 1.0162 -0.9346 517.6639 1732.6805)" overflow="visible"/> <use xlink:href="#New_Symbol" width="20" height="421.8857" x="-10" y="-210.9428" transform="matrix(0.9901 0.9622 0.9622 -0.9901 551.2835 1767.2361)" overflow="visible"/> <use xlink:href="#New_Symbol" width="20" height="421.8857" x="-10" y="-210.9428" transform="matrix(1.0423 0.9053 0.9053 -1.0423 586.7841 1799.8553)" overflow="visible"/> <use xlink:href="#New_Symbol" width="20" height="421.8857" x="-10" y="-210.9428" transform="matrix(1.0913 0.8457 0.8457 -1.0913 624.0511 1830.4401)" overflow="visible"/> <use xlink:href="#New_Symbol" width="20" height="421.8857" x="-10" y="-210.9428" transform="matrix(1.1367 0.7835 0.7835 -1.1367 662.9664 1858.8975)" overflow="visible"/> <use xlink:href="#New_Symbol" width="20" height="421.8857" x="-10" y="-210.9428" transform="matrix(1.1787 0.7189 0.7189 -1.1787 703.4083 1885.1399)" overflow="visible"/> <use xlink:href="#New_Symbol" width="20" height="421.8857" x="-10" y="-210.9428" transform="matrix(1.217 0.652 0.652 -1.217 745.2502 1909.0845)" overflow="visible"/> <use xlink:href="#New_Symbol" width="20" height="421.8857" x="-10" y="-210.9428" transform="matrix(1.2515 0.583 0.583 -1.2515 788.3653 1930.6558)" overflow="visible"/> <use xlink:href="#New_Symbol" width="20" height="421.8857" x="-10" y="-210.9428" transform="matrix(1.2822 0.512 0.512 -1.2822 832.6164 1949.7813)" overflow="visible"/> <use xlink:href="#New_Symbol" width="20" height="421.8857" x="-10" y="-210.9428" transform="matrix(1.3088 0.4394 0.4394 -1.3088 877.8711 1966.399)" overflow="visible"/> <use xlink:href="#New_Symbol" width="20" height="421.8857" x="-10" y="-210.9428" transform="matrix(1.3314 0.3652 0.3652 -1.3314 923.9835 1980.4515)" overflow="visible"/> <use xlink:href="#New_Symbol" width="20" height="421.8857" x="-10" y="-210.9428" transform="matrix(1.3498 0.2899 0.2899 -1.3498 970.8116 1991.8926)" overflow="visible"/> <use xlink:href="#New_Symbol" width="20" height="421.8857" x="-10" y="-210.9428" transform="matrix(1.364 0.2136 0.2136 -1.364 1018.211 2000.6859)" overflow="visible"/> <use xlink:href="#New_Symbol" width="20" height="421.8857" x="-10" y="-210.9428" transform="matrix(1.3738 0.1368 0.1368 -1.3738 1066.0229 2006.8044)" overflow="visible"/> <use xlink:href="#New_Symbol" width="20" height="421.8857" x="-10" y="-210.9428" transform="matrix(1.3793 0.0598 0.0598 -1.3793 1114.1053 2010.2366)" overflow="visible"/> <use xlink:href="#New_Symbol" width="20" height="421.8857" x="-10" y="-210.9428" transform="matrix(1.3805 -0.017 -0.017 -1.3805 1162.3048 2010.9823)" overflow="visible"/> <use xlink:href="#New_Symbol" width="20" height="421.8857" x="-10" y="-210.9428" transform="matrix(1.3775 -0.0932 -0.0932 -1.3775 1210.464 2009.0568)" overflow="visible"/> <use xlink:href="#New_Symbol" width="20" height="421.8857" x="-10" y="-210.9428" transform="matrix(1.3703 -0.1683 -0.1683 -1.3703 1258.4458 2004.4895)" overflow="visible"/> <use xlink:href="#New_Symbol" width="20" height="421.8857" x="-10" y="-210.9428" transform="matrix(1.3593 -0.2419 -0.2419 -1.3593 1306.1187 1997.3228)" overflow="visible"/> <use xlink:href="#New_Symbol" width="20" height="421.8857" x="-10" y="-210.9428" transform="matrix(1.3445 -0.3137 -0.3137 -1.3445 1353.3319 1987.6171)" overflow="visible"/> <use xlink:href="#New_Symbol" width="20" height="421.8857" x="-10" y="-210.9428" transform="matrix(1.3265 -0.3828 -0.3828 -1.3265 1399.9689 1975.4442)" overflow="visible"/> <use xlink:href="#New_Symbol" width="20" height="421.8857" x="-10" y="-210.9428" transform="matrix(1.3068 -0.4453 -0.4453 -1.3068 1445.942 1960.9717)" overflow="visible"/> <use xlink:href="#New_Symbol" width="20" height="421.8857" x="-10" y="-210.9428" transform="matrix(1.2859 -0.5025 -0.5025 -1.2859 1491.2031 1944.4113)" overflow="visible"/> <use xlink:href="#New_Symbol" width="20" height="421.8857" x="-10" y="-210.9428" transform="matrix(1.2644 -0.5543 -0.5543 -1.2644 1535.7217 1925.9492)" overflow="visible"/> <use xlink:href="#New_Symbol" width="20" height="421.8857" x="-10" y="-210.9428" transform="matrix(1.2428 -0.6013 -0.6013 -1.2428 1579.4862 1905.7642)" overflow="visible"/> <use xlink:href="#New_Symbol" width="20" height="421.8857" x="-10" y="-210.9428" transform="matrix(1.2215 -0.6435 -0.6435 -1.2215 1622.5007 1884.0225)" overflow="visible"/> <use xlink:href="#New_Symbol" width="20" height="421.8857" x="-10" y="-210.9428" transform="matrix(1.2006 -0.6816 -0.6816 -1.2006 1664.7816 1860.8776)" overflow="visible"/> <use xlink:href="#New_Symbol" width="20" height="421.8857" x="-10" y="-210.9428" transform="matrix(1.1806 -0.7158 -0.7158 -1.1806 1706.3551 1836.4686)" overflow="visible"/> <use xlink:href="#New_Symbol" width="20" height="421.8857" x="-10" y="-210.9428" transform="matrix(1.1614 -0.7465 -0.7465 -1.1614 1747.2432 1810.9276)" overflow="visible"/> <use xlink:href="#New_Symbol" width="20" height="421.8857" x="-10" y="-210.9428" transform="matrix(1.1432 -0.774 -0.774 -1.1432 1787.4703 1784.3761)" overflow="visible"/> <use xlink:href="#New_Symbol" width="20" height="421.8857" x="-10" y="-210.9428" transform="matrix(1.1261 -0.7988 -0.7988 -1.1261 1827.0764 1756.9163)" overflow="visible"/> <use xlink:href="#New_Symbol" width="20" height="421.8857" x="-10" y="-210.9428" transform="matrix(1.11 -0.8209 -0.8209 -1.11 1866.1042 1728.6378)" overflow="visible"/> <use xlink:href="#New_Symbol" width="20" height="421.8857" x="-10" y="-210.9428" transform="matrix(1.095 -0.8408 -0.8408 -1.095 1904.5983 1699.6195)" overflow="visible"/> <use xlink:href="#New_Symbol" width="20" height="421.8857" x="-10" y="-210.9428" transform="matrix(1.0811 -0.8587 -0.8587 -1.0811 1942.589 1669.9417)" overflow="visible"/> <use xlink:href="#New_Symbol" width="20" height="421.8857" x="-10" y="-210.9428" transform="matrix(1.0682 -0.8746 -0.8746 -1.0682 1980.1035 1639.6804)" overflow="visible"/> <use xlink:href="#New_Symbol" width="20" height="421.8857" x="-10" y="-210.9428" transform="matrix(1.0564 -0.8889 -0.8889 -1.0564 2017.1688 1608.906)" overflow="visible"/> <use xlink:href="#New_Symbol" width="20" height="421.8857" x="-10" y="-210.9428" transform="matrix(1.0455 -0.9017 -0.9017 -1.0455 2053.8647 1577.6366)" overflow="visible"/> <use xlink:href="#New_Symbol" width="20" height="421.8857" x="-10" y="-210.9428" transform="matrix(1.0356 -0.9131 -0.9131 -1.0356 2090.1777 1545.9635)" overflow="visible"/> <use xlink:href="#New_Symbol" width="20" height="421.8857" x="-10" y="-210.9428" transform="matrix(1.0266 -0.9232 -0.9232 -1.0266 2126.1462 1513.9297)" overflow="visible"/> <use xlink:href="#New_Symbol" width="20" height="421.8857" x="-10" y="-210.9428" transform="matrix(1.0185 -0.9321 -0.9321 -1.0185 2161.8142 1481.5671)" overflow="visible"/> <use xlink:href="#New_Symbol" width="20" height="421.8857" x="-10" y="-210.9428" transform="matrix(1.0113 -0.9399 -0.9399 -1.0113 2197.2229 1448.9061)" overflow="visible"/> <use xlink:href="#New_Symbol" width="20" height="421.8857" x="-10" y="-210.9428" transform="matrix(1.0049 -0.9467 -0.9467 -1.0049 2232.4094 1415.9762)" overflow="visible"/> <use xlink:href="#New_Symbol" width="20" height="421.8857" x="-10" y="-210.9428" transform="matrix(0.9994 -0.9526 -0.9526 -0.9994 2267.4053 1382.8085)" overflow="visible"/> <use xlink:href="#New_Symbol" width="20" height="421.8857" x="-10" y="-210.9428" transform="matrix(0.9946 -0.9575 -0.9575 -0.9946 2302.2058 1349.4663)" overflow="visible"/> <use xlink:href="#New_Symbol" width="20" height="421.8857" x="-10" y="-210.9428" transform="matrix(0.9906 -0.9616 -0.9616 -0.9906 2336.8506 1315.9694)" overflow="visible"/> <use xlink:href="#New_Symbol" width="20" height="421.8857" x="-10" y="-210.9428" transform="matrix(0.9874 -0.9649 -0.9649 -0.9874 2371.374 1282.3395)" overflow="visible"/> <use xlink:href="#New_Symbol" width="20" height="421.8857" x="-10" y="-210.9428" transform="matrix(0.985 -0.9675 -0.9675 -0.985 2405.8064 1248.6006)" overflow="visible"/> <use xlink:href="#New_Symbol" width="20" height="421.8857" x="-10" y="-210.9428" transform="matrix(0.9832 -0.9692 -0.9692 -0.9832 2440.1729 1214.7811)" overflow="visible"/> <use xlink:href="#New_Symbol" width="20" height="421.8857" x="-10" y="-210.9428" transform="matrix(0.9823 -0.9702 -0.9702 -0.9823 2474.4805 1180.9255)" overflow="visible"/> <use xlink:href="#New_Symbol" width="20" height="421.8857" x="-10" y="-210.9428" transform="matrix(0.982 -0.9704 -0.9704 -0.982 2508.7754 1147.0398)" overflow="visible"/> <use xlink:href="#New_Symbol" width="20" height="421.8857" x="-10" y="-210.9428" transform="matrix(0.9825 -0.9699 -0.9699 -0.9825 2543.0967 1113.1365)" overflow="visible"/> <use xlink:href="#New_Symbol" width="20" height="421.8857" x="-10" y="-210.9428" transform="matrix(0.9837 -0.9687 -0.9687 -0.9837 2577.4595 1079.2521)" overflow="visible"/> <use xlink:href="#New_Symbol" width="20" height="421.8857" x="-10" y="-210.9428" transform="matrix(0.9857 -0.9667 -0.9667 -0.9857 2611.8523 1045.4487)" overflow="visible"/> <use xlink:href="#New_Symbol" width="20" height="421.8857" x="-10" y="-210.9428" transform="matrix(0.9884 -0.9639 -0.9639 -0.9884 2646.3315 1011.7236)" overflow="visible"/> <use xlink:href="#New_Symbol" width="20" height="421.8857" x="-10" y="-210.9428" transform="matrix(0.9918 -0.9604 -0.9604 -0.9918 2680.9292 978.0982)" overflow="visible"/> <use xlink:href="#New_Symbol" width="20" height="421.8857" x="-10" y="-210.9428" transform="matrix(0.9961 -0.956 -0.956 -0.9961 2715.6685 944.6042)" overflow="visible"/> <use xlink:href="#New_Symbol" width="20" height="421.8857" x="-10" y="-210.9428" transform="matrix(1.0011 -0.9508 -0.9508 -1.0011 2750.5681 911.2797)" overflow="visible"/> <use xlink:href="#New_Symbol" width="20" height="421.8857" x="-10" y="-210.9428" transform="matrix(1.0069 -0.9446 -0.9446 -1.0069 2785.6426 878.1677)" overflow="visible"/> <use xlink:href="#New_Symbol" width="20" height="421.8857" x="-10" y="-210.9428" transform="matrix(1.0135 -0.9375 -0.9375 -1.0135 2820.9297 845.2915)" overflow="visible"/> <use xlink:href="#New_Symbol" width="20" height="421.8857" x="-10" y="-210.9428" transform="matrix(1.021 -0.9293 -0.9293 -1.021 2856.4851 812.6622)" overflow="visible"/> <use xlink:href="#New_Symbol" width="20" height="421.8857" x="-10" y="-210.9428" transform="matrix(1.0294 -0.9201 -0.9201 -1.0294 2892.325 780.3303)" overflow="visible"/> <use xlink:href="#New_Symbol" width="20" height="421.8857" x="-10" y="-210.9428" transform="matrix(1.0386 -0.9096 -0.9096 -1.0386 2928.4775 748.3388)" overflow="visible"/> <use xlink:href="#New_Symbol" width="20" height="421.8857" x="-10" y="-210.9428" transform="matrix(1.0488 -0.8978 -0.8978 -1.0488 2964.9646 716.7408)" overflow="visible"/> <use xlink:href="#New_Symbol" width="20" height="421.8857" x="-10" y="-210.9428" transform="matrix(1.06 -0.8846 -0.8846 -1.06 3001.8025 685.5972)" overflow="visible"/> <use xlink:href="#New_Symbol" width="20" height="421.8857" x="-10" y="-210.9428" transform="matrix(1.0721 -0.8699 -0.8699 -1.0721 3039.0383 654.9478)" overflow="visible"/> <use xlink:href="#New_Symbol" width="20" height="421.8857" x="-10" y="-210.9428" transform="matrix(1.0852 -0.8534 -0.8534 -1.0852 3076.7285 624.8326)" overflow="visible"/> <use xlink:href="#New_Symbol" width="20" height="421.8857" x="-10" y="-210.9428" transform="matrix(1.0994 -0.8351 -0.8351 -1.0994 3114.9011 595.3212)" overflow="visible"/> <use xlink:href="#New_Symbol" width="20" height="421.8857" x="-10" y="-210.9428" transform="matrix(1.1147 -0.8146 -0.8146 -1.1147 3153.5857 566.489)" overflow="visible"/> <use xlink:href="#New_Symbol" width="20" height="421.8857" x="-10" y="-210.9428" transform="matrix(1.131 -0.7919 -0.7919 -1.131 3192.8125 538.4172)" overflow="visible"/> <use xlink:href="#New_Symbol" width="20" height="421.8857" x="-10" y="-210.9428" transform="matrix(1.1483 -0.7665 -0.7665 -1.1483 3232.637 511.1789)" overflow="visible"/> <use xlink:href="#New_Symbol" width="20" height="421.8857" x="-10" y="-210.9428" transform="matrix(1.1667 -0.7383 -0.7383 -1.1667 3273.094 484.8706)" overflow="visible"/> <use xlink:href="#New_Symbol" width="20" height="421.8857" x="-10" y="-210.9428" transform="matrix(1.186 -0.7068 -0.7068 -1.186 3314.1877 459.6174)" overflow="visible"/> <use xlink:href="#New_Symbol" width="20" height="421.8857" x="-10" y="-210.9428" transform="matrix(1.2061 -0.6719 -0.6719 -1.2061 3355.9707 435.5224)" overflow="visible"/> <use xlink:href="#New_Symbol" width="20" height="421.8857" x="-10" y="-210.9428" transform="matrix(1.2269 -0.6331 -0.6331 -1.2269 3398.4683 412.7159)" overflow="visible"/> <use xlink:href="#New_Symbol" width="20" height="421.8857" x="-10" y="-210.9428" transform="matrix(1.2482 -0.59 -0.59 -1.2482 3441.7002 391.3405)" overflow="visible"/> <use xlink:href="#New_Symbol" width="20" height="421.8857" x="-10" y="-210.9428" transform="matrix(1.2697 -0.5423 -0.5423 -1.2697 3485.6777 371.5507)" overflow="visible"/> <use xlink:href="#New_Symbol" width="20" height="421.8857" x="-10" y="-210.9428" transform="matrix(1.2909 -0.4896 -0.4896 -1.2909 3530.3989 353.5139)" overflow="visible"/> <use xlink:href="#New_Symbol" width="20" height="421.8857" x="-10" y="-210.9428" transform="matrix(1.3114 -0.4318 -0.4318 -1.3114 3575.8489 337.4061)" overflow="visible"/> <use xlink:href="#New_Symbol" width="20" height="421.8857" x="-10" y="-210.9428" transform="matrix(1.3305 -0.3687 -0.3687 -1.3305 3621.9919 323.4108)" overflow="visible"/> <use xlink:href="#New_Symbol" width="20" height="421.8857" x="-10" y="-210.9428" transform="matrix(1.3476 -0.3003 -0.3003 -1.3476 3668.7681 311.7133)" overflow="visible"/> <use xlink:href="#New_Symbol" width="20" height="421.8857" x="-10" y="-210.9428" transform="matrix(1.3618 -0.2269 -0.2269 -1.3618 3716.0918 302.4931)" overflow="visible"/> <use xlink:href="#New_Symbol" width="20" height="421.8857" x="-10" y="-210.9428" transform="matrix(1.3725 -0.1491 -0.1491 -1.3725 3763.8503 295.9152)" overflow="visible"/> <use xlink:href="#New_Symbol" width="20" height="421.8857" x="-10" y="-210.9428" transform="matrix(1.379 -0.0677 -0.0677 -1.379 3811.9058 292.1198)" overflow="visible"/> <use xlink:href="#New_Symbol" width="20" height="421.8857" x="-10" y="-210.9428" transform="matrix(1.3805 0.0161 0.0161 -1.3805 3860.0977 291.2127)" overflow="visible"/> <use xlink:href="#New_Symbol" width="20" height="421.8857" x="-10" y="-210.9428" transform="matrix(1.3769 0.1011 0.1011 -1.3769 3908.2466 293.2564)" overflow="visible"/> <use xlink:href="#New_Symbol" width="20" height="421.8857" x="-10" y="-210.9428" transform="matrix(1.3681 0.1857 0.1857 -1.3681 3956.1738 298.2654)" overflow="visible"/> <use xlink:href="#New_Symbol" width="20" height="421.8857" x="-10" y="-210.9428" transform="matrix(1.3542 0.2687 0.2687 -1.3542 4003.6992 306.2045)" overflow="visible"/> <use xlink:href="#New_Symbol" width="20" height="421.8857" x="-10" y="-210.9428" transform="matrix(1.3358 0.3488 0.3488 -1.3358 4050.6541 316.9912)" overflow="visible"/> <use xlink:href="#New_Symbol" width="20" height="421.8857" x="-10" y="-210.9428" transform="matrix(1.3136 0.4249 0.4249 -1.3136 4096.8901 330.5029)" overflow="visible"/> <use xlink:href="#New_Symbol" width="20" height="421.8857" x="-10" y="-210.9428" transform="matrix(1.2883 0.4963 0.4963 -1.2883 4142.2881 346.587)" overflow="visible"/> <use xlink:href="#New_Symbol" width="20" height="421.8857" x="-10" y="-210.9428" transform="matrix(1.2608 0.5626 0.5626 -1.2608 4186.7642 365.0741)" overflow="visible"/> <use xlink:href="#New_Symbol" width="20" height="421.8857" x="-10" y="-210.9428" transform="matrix(1.2319 0.6234 0.6234 -1.2319 4230.3081 385.8097)" overflow="visible"/> <use xlink:href="#New_Symbol" width="20" height="421.8857" x="-10" y="-210.9428" transform="matrix(1.2024 0.6786 0.6786 -1.2024 4272.8359 408.5457)" overflow="visible"/> <use xlink:href="#New_Symbol" width="20" height="421.8857" x="-10" y="-210.9428" transform="matrix(1.1687 0.735 0.735 -1.1687 4314.2734 433.2395)" overflow="visible"/> <use xlink:href="#New_Symbol" width="20" height="421.8857" x="-10" y="-210.9428" transform="matrix(1.1306 0.7923 0.7923 -1.1306 4354.4614 459.9243)" overflow="visible"/> <use xlink:href="#New_Symbol" width="20" height="421.8857" x="-10" y="-210.9428" transform="matrix(1.0879 0.85 0.85 -1.0879 4393.2373 488.6192)" overflow="visible"/> <use xlink:href="#New_Symbol" width="20" height="421.8857" x="-10" y="-210.9428" transform="matrix(1.0404 0.9075 0.9075 -1.0404 4430.4341 519.326)" overflow="visible"/> <use xlink:href="#New_Symbol" width="20" height="421.8857" x="-10" y="-210.9428" transform="matrix(0.9881 0.9643 0.9643 -0.9881 4465.8813 552.0255)" overflow="visible"/> <use xlink:href="#New_Symbol" width="20" height="421.8857" x="-10" y="-210.9428" transform="matrix(0.931 1.0195 1.0195 -0.931 4499.4092 586.6744)" overflow="visible"/> <use xlink:href="#New_Symbol" width="20" height="421.8857" x="-10" y="-210.9428" transform="matrix(0.8693 1.0726 1.0726 -0.8693 4530.8652 623.2197)" overflow="visible"/> <use xlink:href="#New_Symbol" width="20" height="421.8857" x="-10" y="-210.9428" transform="matrix(0.8034 1.1228 1.1228 -0.8034 4560.0962 661.5765)" overflow="visible"/> <use xlink:href="#New_Symbol" width="20" height="421.8857" x="-10" y="-210.9428" transform="matrix(0.7337 1.1695 1.1695 -0.7337 4586.9565 701.6286)" overflow="visible"/> <use xlink:href="#New_Symbol" width="20" height="421.8857" x="-10" y="-210.9428" transform="matrix(0.6608 1.2122 1.2122 -0.6608 4611.3213 743.2386)" overflow="visible"/> <use xlink:href="#New_Symbol" width="20" height="421.8857" x="-10" y="-210.9428" transform="matrix(0.5853 1.2504 1.2504 -0.5853 4633.0889 786.257)" overflow="visible"/> <use xlink:href="#New_Symbol" width="20" height="421.8857" x="-10" y="-210.9428" transform="matrix(0.5078 1.2838 1.2838 -0.5078 4652.1841 830.5318)" overflow="visible"/> <use xlink:href="#New_Symbol" width="20" height="421.8857" x="-10" y="-210.9428" transform="matrix(0.429 1.3123 1.3123 -0.429 4668.5483 875.8854)" overflow="visible"/> <use xlink:href="#New_Symbol" width="20" height="421.8857" x="-10" y="-210.9428" transform="matrix(0.3496 1.3356 1.3356 -0.3496 4682.1455 922.1383)" overflow="visible"/> <use xlink:href="#New_Symbol" width="20" height="421.8857" x="-10" y="-210.9428" transform="matrix(0.27 1.354 1.354 -0.27 4692.9644 969.1219)" overflow="visible"/> <use xlink:href="#New_Symbol" width="20" height="421.8857" x="-10" y="-210.9428" transform="matrix(0.1907 1.3674 1.3674 -0.1907 4701.0078 1016.6586)" overflow="visible"/> <use xlink:href="#New_Symbol" width="20" height="421.8857" x="-10" y="-210.9428" transform="matrix(0.1122 1.3761 1.3761 -0.1122 4706.2944 1064.5786)" overflow="visible"/> <use xlink:href="#New_Symbol" width="20" height="421.8857" x="-10" y="-210.9428" transform="matrix(0.0347 1.3802 1.3802 -0.0347 4708.856 1112.722)" overflow="visible"/> <use xlink:href="#New_Symbol" width="20" height="421.8857" x="-10" y="-210.9428" transform="matrix(-0.0416 1.38 1.38 0.0416 4708.7314 1160.9331)" overflow="visible"/> <use xlink:href="#New_Symbol" width="20" height="421.8857" x="-10" y="-210.9428" transform="matrix(-0.1165 1.3757 1.3757 0.1165 4705.9668 1209.0651)" overflow="visible"/> <use xlink:href="#New_Symbol" width="20" height="421.8857" x="-10" y="-210.9428" transform="matrix(-0.1899 1.3675 1.3675 0.1899 4700.6113 1256.9779)" overflow="visible"/> <use xlink:href="#New_Symbol" width="20" height="421.8857" x="-10" y="-210.9428" transform="matrix(-0.2619 1.3555 1.3555 0.2619 4692.7168 1304.5385)" overflow="visible"/> <use xlink:href="#New_Symbol" width="20" height="421.8857" x="-10" y="-210.9428" transform="matrix(-0.3324 1.34 1.34 0.3324 4682.335 1351.6189)" overflow="visible"/> <use xlink:href="#New_Symbol" width="20" height="421.8857" x="-10" y="-210.9428" transform="matrix(-0.4014 1.321 1.321 0.4014 4669.5166 1398.0952)" overflow="visible"/> <use xlink:href="#New_Symbol" width="20" height="421.8857" x="-10" y="-210.9428" transform="matrix(-0.4691 1.2985 1.2985 0.4691 4654.311 1443.8463)" overflow="visible"/> <use xlink:href="#New_Symbol" width="20" height="421.8857" x="-10" y="-210.9428" transform="matrix(-0.5354 1.2726 1.2726 0.5354 4636.7666 1488.7528)" overflow="visible"/> <use xlink:href="#New_Symbol" width="20" height="421.8857" x="-10" y="-210.9428" transform="matrix(-0.6004 1.2433 1.2433 0.6004 4616.9302 1532.6949)" overflow="visible"/> <use xlink:href="#New_Symbol" width="20" height="421.8857" x="-10" y="-210.9428" transform="matrix(-0.664 1.2104 1.2104 0.664 4594.8472 1575.552)" overflow="visible"/> <use xlink:href="#New_Symbol" width="20" height="421.8857" x="-10" y="-210.9428" transform="matrix(-0.7264 1.1741 1.1741 0.7264 4570.5635 1617.2018)" overflow="visible"/> <use xlink:href="#New_Symbol" width="20" height="421.8857" x="-10" y="-210.9428" transform="matrix(-0.7874 1.1341 1.1341 0.7874 4544.125 1657.5181)" overflow="visible"/> <use xlink:href="#New_Symbol" width="20" height="421.8857" x="-10" y="-210.9428" transform="matrix(-0.847 1.0903 1.0903 0.847 4515.5815 1696.3717)" overflow="visible"/> <use xlink:href="#New_Symbol" width="20" height="421.8857" x="-10" y="-210.9428" transform="matrix(-0.9049 1.0427 1.0427 0.9049 4484.9849 1733.6295)" overflow="visible"/> <use xlink:href="#New_Symbol" width="20" height="421.8857" x="-10" y="-210.9428" transform="matrix(-0.9612 0.9911 0.9911 0.9612 4452.3931 1769.1548)" overflow="visible"/> <use xlink:href="#New_Symbol" width="20" height="421.8857" x="-10" y="-210.9428" transform="matrix(-1.0154 0.9355 0.9355 1.0154 4417.8726 1802.8082)" overflow="visible"/> <use xlink:href="#New_Symbol" width="20" height="421.8857" x="-10" y="-210.9428" transform="matrix(-1.0673 0.8758 0.8758 1.0673 4381.4995 1834.4476)" overflow="visible"/> <use xlink:href="#New_Symbol" width="20" height="421.8857" x="-10" y="-210.9428" transform="matrix(-1.1165 0.8121 0.8121 1.1165 4343.3599 1863.9333)" overflow="visible"/> <use xlink:href="#New_Symbol" width="20" height="421.8857" x="-10" y="-210.9428" transform="matrix(-1.1626 0.7446 0.7446 1.1626 4303.5542 1891.1272)" overflow="visible"/> <use xlink:href="#New_Symbol" width="20" height="421.8857" x="-10" y="-210.9428" transform="matrix(-1.2052 0.6734 0.6734 1.2052 4262.2007 1915.896)" overflow="visible"/> <use xlink:href="#New_Symbol" width="20" height="421.8857" x="-10" y="-210.9428" transform="matrix(-1.2439 0.5989 0.5989 1.2439 4219.4253 1938.1208)" overflow="visible"/> <use xlink:href="#New_Symbol" width="20" height="421.8857" x="-10" y="-210.9428" transform="matrix(-1.2783 0.5216 0.5216 1.2783 4175.3726 1957.6946)" overflow="visible"/> <use xlink:href="#New_Symbol" width="20" height="421.8857" x="-10" y="-210.9428" transform="matrix(-1.3079 0.4421 0.4421 1.3079 4130.209 1974.5251)" overflow="visible"/> <use xlink:href="#New_Symbol" width="20" height="421.8857" x="-10" y="-210.9428" transform="matrix(-1.3326 0.361 0.361 1.3326 4084.0989 1988.5487)" overflow="visible"/> <use xlink:href="#New_Symbol" width="20" height="421.8857" x="-10" y="-210.9428" transform="matrix(-1.3521 0.2791 0.2791 1.3521 4037.2109 1999.7257)" overflow="visible"/> <use xlink:href="#New_Symbol" width="20" height="421.8857" x="-10" y="-210.9428" transform="matrix(-1.3665 0.1972 0.1972 1.3665 3989.7292 2008.0399)" overflow="visible"/> <use xlink:href="#New_Symbol" width="20" height="421.8857" x="-10" y="-210.9428" transform="matrix(-1.3757 0.116 0.116 1.3757 3941.8472 2013.5027)" overflow="visible"/> <use xlink:href="#New_Symbol" width="20" height="421.8857" x="-10" y="-210.9428" transform="matrix(-1.3801 0.0363 0.0363 1.3801 3893.7351 2016.1555)" overflow="visible"/> <use xlink:href="#New_Symbol" width="20" height="421.8857" x="-10" y="-210.9428" transform="matrix(-1.38 -0.0412 -0.0412 1.38 3845.5552 2016.0636)" overflow="visible"/> <use xlink:href="#New_Symbol" width="20" height="421.8857" x="-10" y="-210.9428" transform="matrix(-1.3757 -0.116 -0.116 1.3757 3797.4568 2013.3127)" overflow="visible"/> <use xlink:href="#New_Symbol" width="20" height="421.8857" x="-10" y="-210.9428" transform="matrix(-1.3678 -0.1876 -0.1876 1.3678 3749.5762 2008.0055)" overflow="visible"/> <use xlink:href="#New_Symbol" width="20" height="421.8857" x="-10" y="-210.9428" transform="matrix(-1.3567 -0.2558 -0.2558 1.3567 3702.0308 2000.2576)" overflow="visible"/> <use xlink:href="#New_Symbol" width="20" height="421.8857" x="-10" y="-210.9428" transform="matrix(-1.3429 -0.3204 -0.3204 1.3429 3654.917 1990.192)" overflow="visible"/> <use xlink:href="#New_Symbol" width="20" height="421.8857" x="-10" y="-210.9428" transform="matrix(-1.3269 -0.3812 -0.3812 1.3269 3608.3083 1977.9338)" overflow="visible"/> <use xlink:href="#New_Symbol" width="20" height="421.8857" x="-10" y="-210.9428" transform="matrix(-1.3092 -0.4383 -0.4383 1.3092 3562.2886 1963.6171)" overflow="visible"/> <use xlink:href="#New_Symbol" width="20" height="421.8857" x="-10" y="-210.9428" transform="matrix(-1.2901 -0.4917 -0.4917 1.2901 3516.9431 1947.3833)" overflow="visible"/> <use xlink:href="#New_Symbol" width="20" height="421.8857" x="-10" y="-210.9428" transform="matrix(-1.27 -0.5415 -0.5415 1.27 3472.2849 1929.3513)" overflow="visible"/> <use xlink:href="#New_Symbol" width="20" height="421.8857" x="-10" y="-210.9428" transform="matrix(-1.2492 -0.5879 -0.5879 1.2492 3428.2932 1909.6198)" overflow="visible"/> <use xlink:href="#New_Symbol" width="20" height="421.8857" x="-10" y="-210.9428" transform="matrix(-1.228 -0.6311 -0.6311 1.228 3385.0911 1888.3516)" overflow="visible"/> <use xlink:href="#New_Symbol" width="20" height="421.8857" x="-10" y="-210.9428" transform="matrix(-1.2066 -0.6709 -0.6709 1.2066 3342.5962 1865.6117)" overflow="visible"/> <use xlink:href="#New_Symbol" width="20" height="421.8857" x="-10" y="-210.9428" transform="matrix(-1.1868 -0.7054 -0.7054 1.1868 3300.8333 1841.587)" overflow="visible"/> <use xlink:href="#New_Symbol" width="20" height="421.8857" x="-10" y="-210.9428" transform="matrix(-1.1676 -0.7367 -0.7367 1.1676 3259.7571 1816.418)" overflow="visible"/> <use xlink:href="#New_Symbol" width="20" height="421.8857" x="-10" y="-210.9428" transform="matrix(-1.1492 -0.7652 -0.7652 1.1492 3219.3352 1790.2035)" overflow="visible"/> <use xlink:href="#New_Symbol" width="20" height="421.8857" x="-10" y="-210.9428" transform="matrix(-1.1315 -0.791 -0.791 1.1315 3179.5334 1763.0352)" overflow="visible"/> <use xlink:href="#New_Symbol" width="20" height="421.8857" x="-10" y="-210.9428" transform="matrix(-1.1148 -0.8144 -0.8144 1.1148 3140.3162 1734.9973)" overflow="visible"/> <use xlink:href="#New_Symbol" width="20" height="421.8857" x="-10" y="-210.9428" transform="matrix(-1.099 -0.8356 -0.8356 1.099 3101.6709 1706.1852)" overflow="visible"/> <use xlink:href="#New_Symbol" width="20" height="421.8857" x="-10" y="-210.9428" transform="matrix(-1.0842 -0.8547 -0.8547 1.0842 3063.5698 1676.679)" overflow="visible"/> <use xlink:href="#New_Symbol" width="20" height="421.8857" x="-10" y="-210.9428" transform="matrix(-1.0704 -0.8719 -0.8719 1.0704 3025.9731 1646.5438)" overflow="visible"/> <use xlink:href="#New_Symbol" width="20" height="421.8857" x="-10" y="-210.9428" transform="matrix(-1.0576 -0.8874 -0.8874 1.0576 2988.8425 1615.84)" overflow="visible"/> <use xlink:href="#New_Symbol" width="20" height="421.8857" x="-10" y="-210.9428" transform="matrix(-1.0458 -0.9013 -0.9013 1.0458 2952.1409 1584.623)" overflow="visible"/> <use xlink:href="#New_Symbol" width="20" height="421.8857" x="-10" y="-210.9428" transform="matrix(-1.035 -0.9137 -0.9137 1.035 2915.8315 1552.9447)" overflow="visible"/> <use xlink:href="#New_Symbol" width="20" height="421.8857" x="-10" y="-210.9428" transform="matrix(-1.0251 -0.9248 -0.9248 1.0251 2879.8804 1520.8529)" overflow="visible"/> <use xlink:href="#New_Symbol" width="20" height="421.8857" x="-10" y="-210.9428" transform="matrix(-1.0161 -0.9346 -0.9346 1.0161 2844.2532 1488.3925)" overflow="visible"/> <use xlink:href="#New_Symbol" width="20" height="421.8857" x="-10" y="-210.9428" transform="matrix(-1.0081 -0.9433 -0.9433 1.0081 2808.9175 1455.6058)" overflow="visible"/> <use xlink:href="#New_Symbol" width="20" height="421.8857" x="-10" y="-210.9428" transform="matrix(-1.001 -0.9508 -0.9508 1.001 2773.8418 1422.5327)" overflow="visible"/> <use xlink:href="#New_Symbol" width="20" height="421.8857" x="-10" y="-210.9428" transform="matrix(-0.9948 -0.9573 -0.9573 0.9948 2738.9949 1389.2104)" overflow="visible"/> <use xlink:href="#New_Symbol" width="20" height="421.8857" x="-10" y="-210.9428" transform="matrix(-0.9894 -0.9629 -0.9629 0.9894 2704.3496 1355.6779)" overflow="visible"/> <use xlink:href="#New_Symbol" width="20" height="421.8857" x="-10" y="-210.9428" transform="matrix(-0.985 -0.9675 -0.9675 0.985 2669.8804 1321.973)" overflow="visible"/> <use xlink:href="#New_Symbol" width="20" height="421.8857" x="-10" y="-210.9428" transform="matrix(-0.9813 -0.9711 -0.9711 0.9813 2635.5789 1288.1494)" overflow="visible"/> <use xlink:href="#New_Symbol" width="20" height="421.8857" x="-10" y="-210.9428" transform="matrix(-0.9785 -0.974 -0.974 0.9785 2601.364 1254.1871)" overflow="visible"/> <use xlink:href="#New_Symbol" width="20" height="421.8857" x="-10" y="-210.9428" transform="matrix(-0.9766 -0.9759 -0.9759 0.9766 2567.2417 1220.1508)" overflow="visible"/> <use xlink:href="#New_Symbol" width="20" height="421.8857" x="-10" y="-210.9428" transform="matrix(-0.9754 -0.9771 -0.9771 0.9754 2533.1599 1186.0469)" overflow="visible"/> <use xlink:href="#New_Symbol" width="20" height="421.8857" x="-10" y="-210.9428" transform="matrix(-0.9751 -0.9774 -0.9774 0.9751 2499.1016 1151.9155)" overflow="visible"/> <use xlink:href="#New_Symbol" width="20" height="421.8857" x="-10" y="-210.9428" transform="matrix(-0.9756 -0.9769 -0.9769 0.9756 2465.0315 1117.7794)" overflow="visible"/> <use xlink:href="#New_Symbol" width="20" height="421.8857" x="-10" y="-210.9428" transform="matrix(-0.977 -0.9755 -0.9755 0.977 2430.9231 1083.6697)" overflow="visible"/> <use xlink:href="#New_Symbol" width="20" height="421.8857" x="-10" y="-210.9428" transform="matrix(-0.9791 -0.9733 -0.9733 0.9791 2396.7451 1049.613)" overflow="visible"/> <use xlink:href="#New_Symbol" width="20" height="421.8857" x="-10" y="-210.9428" transform="matrix(-0.9821 -0.9703 -0.9703 0.9821 2362.4739 1015.6448)" overflow="visible"/> <use xlink:href="#New_Symbol" width="20" height="421.8857" x="-10" y="-210.9428" transform="matrix(-0.986 -0.9664 -0.9664 0.986 2328.0967 981.8118)" overflow="visible"/> <use xlink:href="#New_Symbol" width="20" height="421.8857" x="-10" y="-210.9428" transform="matrix(-0.9907 -0.9615 -0.9615 0.9907 2293.5688 948.131)" overflow="visible"/> <use xlink:href="#New_Symbol" width="20" height="421.8857" x="-10" y="-210.9428" transform="matrix(-0.9963 -0.9558 -0.9558 0.9963 2258.8604 914.6353)" overflow="visible"/> <use xlink:href="#New_Symbol" width="20" height="421.8857" x="-10" y="-210.9428" transform="matrix(-1.0028 -0.9489 -0.9489 1.0028 2223.9407 881.3594)" overflow="visible"/> <use xlink:href="#New_Symbol" width="20" height="421.8857" x="-10" y="-210.9428" transform="matrix(-1.0102 -0.9411 -0.9411 1.0102 2188.7795 848.3408)" overflow="visible"/> <use xlink:href="#New_Symbol" width="20" height="421.8857" x="-10" y="-210.9428" transform="matrix(-1.0185 -0.9321 -0.9321 1.0185 2153.3472 815.6195)" overflow="visible"/> <use xlink:href="#New_Symbol" width="20" height="421.8857" x="-10" y="-210.9428" transform="matrix(-1.0278 -0.9218 -0.9218 1.0278 2117.6128 783.2387)" overflow="visible"/> <use xlink:href="#New_Symbol" width="20" height="421.8857" x="-10" y="-210.9428" transform="matrix(-1.038 -0.9103 -0.9103 1.038 2081.5352 751.2351)" overflow="visible"/> <use xlink:href="#New_Symbol" width="20" height="421.8857" x="-10" y="-210.9428" transform="matrix(-1.0492 -0.8973 -0.8973 1.0492 2045.0737 719.6509)" overflow="visible"/> <use xlink:href="#New_Symbol" width="20" height="421.8857" x="-10" y="-210.9428" transform="matrix(-1.0614 -0.8829 -0.8829 1.0614 2008.1946 688.5386)" overflow="visible"/> <use xlink:href="#New_Symbol" width="20" height="421.8857" x="-10" y="-210.9428" transform="matrix(-1.0747 -0.8667 -0.8667 1.0747 1970.8639 657.9562)" overflow="visible"/> <use xlink:href="#New_Symbol" width="20" height="421.8857" x="-10" y="-210.9428" transform="matrix(-1.0889 -0.8487 -0.8487 1.0889 1933.0491 627.9672)" overflow="visible"/> <use xlink:href="#New_Symbol" width="20" height="421.8857" x="-10" y="-210.9428" transform="matrix(-1.1042 -0.8287 -0.8287 1.1042 1894.7191 598.642)" overflow="visible"/> <use xlink:href="#New_Symbol" width="20" height="421.8857" x="-10" y="-210.9428" transform="matrix(-1.1205 -0.8066 -0.8066 1.1205 1855.8442 570.0574)" overflow="visible"/> <use xlink:href="#New_Symbol" width="20" height="421.8857" x="-10" y="-210.9428" transform="matrix(-1.1377 -0.7821 -0.7821 1.1377 1816.3977 542.2972)" overflow="visible"/> <use xlink:href="#New_Symbol" width="20" height="421.8857" x="-10" y="-210.9428" transform="matrix(-1.1559 -0.755 -0.755 1.1559 1776.3253 515.4332)" overflow="visible"/> <use xlink:href="#New_Symbol" width="20" height="421.8857" x="-10" y="-210.9428" transform="matrix(-1.1749 -0.7251 -0.7251 1.1749 1735.6005 489.5632)" overflow="visible"/> <use xlink:href="#New_Symbol" width="20" height="421.8857" x="-10" y="-210.9428" transform="matrix(-1.1946 -0.6921 -0.6921 1.1946 1694.1924 464.788)" overflow="visible"/> <use xlink:href="#New_Symbol" width="20" height="421.8857" x="-10" y="-210.9428" transform="matrix(-1.2149 -0.6558 -0.6558 1.2149 1652.1125 441.2381)" overflow="visible"/> <use xlink:href="#New_Symbol" width="20" height="421.8857" x="-10" y="-210.9428" transform="matrix(-1.2356 -0.616 -0.616 1.2356 1609.3185 419.0164)" overflow="visible"/> <use xlink:href="#New_Symbol" width="20" height="421.8857" x="-10" y="-210.9428" transform="matrix(-1.2563 -0.5725 -0.5725 1.2563 1565.8015 398.2489)" overflow="visible"/> <use xlink:href="#New_Symbol" width="20" height="421.8857" x="-10" y="-210.9428" transform="matrix(-1.2768 -0.5251 -0.5251 1.2768 1521.562 379.0683)" overflow="visible"/> <use xlink:href="#New_Symbol" width="20" height="421.8857" x="-10" y="-210.9428" transform="matrix(-1.2968 -0.4738 -0.4738 1.2968 1476.6174 361.6131)" overflow="visible"/> <use xlink:href="#New_Symbol" width="20" height="421.8857" x="-10" y="-210.9428" transform="matrix(-1.3157 -0.4184 -0.4184 1.3157 1430.9919 346.021)" overflow="visible"/> <use xlink:href="#New_Symbol" width="20" height="421.8857" x="-10" y="-210.9428" transform="matrix(-1.3331 -0.3592 -0.3592 1.3331 1384.7335 332.4303)" overflow="visible"/> <use xlink:href="#New_Symbol" width="20" height="421.8857" x="-10" y="-210.9428" transform="matrix(-1.3484 -0.2964 -0.2964 1.3484 1337.9021 320.9711)" overflow="visible"/> <use xlink:href="#New_Symbol" width="20" height="421.8857" x="-10" y="-210.9428" transform="matrix(-1.3613 -0.2304 -0.2304 1.3613 1290.5782 311.7628)" overflow="visible"/> <use xlink:href="#New_Symbol" width="20" height="421.8857" x="-10" y="-210.9428" transform="matrix(-1.3711 -0.1618 -0.1618 1.3711 1242.8606 304.9073)" overflow="visible"/> <use xlink:href="#New_Symbol" width="20" height="421.8857" x="-10" y="-210.9428" transform="matrix(-1.3776 -0.0913 -0.0913 1.3776 1194.8577 300.4836)" overflow="visible"/> <use xlink:href="#New_Symbol" width="20" height="421.8857" x="-10" y="-210.9428" transform="matrix(-1.3805 -0.016 -0.016 1.3805 1146.6697 298.562)" overflow="visible"/> <use xlink:href="#New_Symbol" width="20" height="421.8857" x="-10" y="-210.9428" transform="matrix(-1.3789 0.0687 0.0687 1.3789 1098.4572 299.4841)" overflow="visible"/> <use xlink:href="#New_Symbol" width="20" height="421.8857" x="-10" y="-210.9428" transform="matrix(-1.3722 0.1526 0.1526 1.3722 1050.395 303.3528)" overflow="visible"/> <use xlink:href="#New_Symbol" width="20" height="421.8857" x="-10" y="-210.9428" transform="matrix(-1.3604 0.2353 0.2353 1.3604 1002.6597 310.1321)" overflow="visible"/> <use xlink:href="#New_Symbol" width="20" height="421.8857" x="-10" y="-210.9428" transform="matrix(-1.3439 0.3162 0.3162 1.3439 955.4207 319.7684)" overflow="visible"/> <use xlink:href="#New_Symbol" width="20" height="421.8857" x="-10" y="-210.9428" transform="matrix(-1.3229 0.395 0.395 1.3229 908.8389 332.1935)" overflow="visible"/> <use xlink:href="#New_Symbol" width="20" height="421.8857" x="-10" y="-210.9428" transform="matrix(-1.2977 0.4713 0.4713 1.2977 863.0651 347.3279)" overflow="visible"/> <use xlink:href="#New_Symbol" width="20" height="421.8857" x="-10" y="-210.9428" transform="matrix(-1.2685 0.545 0.545 1.2685 818.2426 365.0838)" overflow="visible"/> <use xlink:href="#New_Symbol" width="20" height="421.8857" x="-10" y="-210.9428" transform="matrix(-1.2356 0.616 0.616 1.2356 774.5058 385.3669)" overflow="visible"/> <use xlink:href="#New_Symbol" width="20" height="421.8857" x="-10" y="-210.9428" transform="matrix(-1.1992 0.6842 0.6842 1.1992 731.9804 408.0796)" overflow="visible"/> <use xlink:href="#New_Symbol" width="20" height="421.8857" x="-10" y="-210.9428" transform="matrix(-1.1595 0.7495 0.7495 1.1595 690.7845 433.1226)" overflow="visible"/> <use xlink:href="#New_Symbol" width="20" height="421.8857" x="-10" y="-210.9428" transform="matrix(-1.1166 0.8119 0.8119 1.1166 651.0303 460.3958)" overflow="visible"/> <use xlink:href="#New_Symbol" width="20" height="421.8857" x="-10" y="-210.9428" transform="matrix(-1.0708 0.8715 0.8715 1.0708 612.8251 489.7993)" overflow="visible"/> <use xlink:href="#New_Symbol" width="20" height="421.8857" x="-10" y="-210.9428" transform="matrix(-1.022 0.9282 0.9282 1.022 576.2726 521.2336)" overflow="visible"/> <use xlink:href="#New_Symbol" width="20" height="421.8857" x="-10" y="-210.9428" transform="matrix(-0.9704 0.9821 0.9821 0.9704 541.474 554.5991)" overflow="visible"/> <use xlink:href="#New_Symbol" width="20" height="421.8857" x="-10" y="-210.9428" transform="matrix(-0.9159 1.0331 1.0331 0.9159 508.5293 589.7964)" overflow="visible"/> <use xlink:href="#New_Symbol" width="20" height="421.8857" x="-10" y="-210.9428" transform="matrix(-0.8585 1.0812 1.0812 0.8585 477.5372 626.725)" overflow="visible"/> <use xlink:href="#New_Symbol" width="20" height="421.8857" x="-10" y="-210.9428" transform="matrix(-0.7984 1.1264 1.1264 0.7984 448.5959 665.2823)" overflow="visible"/> <use xlink:href="#New_Symbol" width="20" height="421.8857" x="-10" y="-210.9428" transform="matrix(-0.7355 1.1684 1.1684 0.7355 421.8036 705.3629)" overflow="visible"/> <use xlink:href="#New_Symbol" width="20" height="421.8857" x="-10" y="-210.9428" transform="matrix(-0.6698 1.2073 1.2073 0.6698 397.2577 746.8558)" overflow="visible"/> <use xlink:href="#New_Symbol" width="20" height="421.8857" x="-10" y="-210.9428" transform="matrix(-0.6014 1.2427 1.2427 0.6014 375.0534 789.6455)" overflow="visible"/> <use xlink:href="#New_Symbol" width="20" height="421.8857" x="-10" y="-210.9428" transform="matrix(-0.5305 1.2746 1.2746 0.5305 355.2828 833.6105)" overflow="visible"/> <use xlink:href="#New_Symbol" width="20" height="421.8857" x="-10" y="-210.9428" transform="matrix(-0.4571 1.3027 1.3027 0.4571 338.0331 878.622)" overflow="visible"/> <use xlink:href="#New_Symbol" width="20" height="421.8857" x="-10" y="-210.9428" transform="matrix(-0.3816 1.3268 1.3268 0.3816 323.3849 924.544)" overflow="visible"/> <use xlink:href="#New_Symbol" width="20" height="421.8857" x="-10" y="-210.9428" transform="matrix(-0.3041 1.3467 1.3467 0.3041 311.4095 971.2334)" overflow="visible"/> <use xlink:href="#New_Symbol" width="20" height="421.8857" x="-10" y="-210.9428" transform="matrix(-0.2251 1.3621 1.3621 0.2251 302.1666 1018.5412)" overflow="visible"/> <use xlink:href="#New_Symbol" width="20" height="421.8857" x="-10" y="-210.9428" transform="matrix(-0.145 1.373 1.373 0.145 295.7021 1066.3145)" overflow="visible"/> <use xlink:href="#New_Symbol" width="20" height="421.8857" x="-10" y="-210.9428" transform="matrix(-0.0643 1.3791 1.3791 0.0643 292.0471 1114.3768)" overflow="visible"/> <use xlink:href="#New_Symbol" width="20" height="421.8857" x="-10" y="-210.9428" transform="matrix(0.0164 1.3805 1.3805 -0.0164 291.2111 1162.5602)" overflow="visible"/> <use xlink:href="#New_Symbol" width="20" height="421.8857" x="-10" y="-210.9428" transform="matrix(0.0965 1.3772 1.3772 -0.0965 293.1831 1210.7043)" overflow="visible"/> <use xlink:href="#New_Symbol" width="20" height="421.8857" x="-10" y="-210.9428" transform="matrix(0.1754 1.3694 1.3694 -0.1754 297.9333 1258.6597)" overflow="visible"/> <use xlink:href="#New_Symbol" width="20" height="421.8857" x="-10" y="-210.9428" transform="matrix(0.2527 1.3573 1.3573 -0.2527 305.4135 1306.2808)" overflow="visible"/> <use xlink:href="#New_Symbol" width="20" height="421.8857" x="-10" y="-210.9428" transform="matrix(0.3276 1.3412 1.3412 -0.3276 315.5457 1353.3801)" overflow="visible"/> <use xlink:href="#New_Symbol" width="20" height="421.8857" x="-10" y="-210.9428" transform="matrix(0.3997 1.3215 1.3215 -0.3997 328.2446 1399.8488)" overflow="visible"/> </g> </svg>