<?xml version='1.0' encoding='utf-8'?>
<svg xmlns="http://www.w3.org/2000/svg" version="1.1" id="Ebene_1" x="0px" y="0px" width="756.618px" height="405.601px" viewBox="0 0 756.618 405.601" enable-background="new 0 0 756.618 405.601"> <g> <g> <polygon points="718.246,382.15 374.129,102.187 24.215,391.328 12.112,376.682 374.074,77.585 730.283,367.449 "/> </g> <g> <rect x="411.616" y="46.636" transform="matrix(0.4857 0.8741 -0.8741 0.4857 279.5267 -362.8523)" width="73.051" height="19"/> </g> <g> <rect x="505.982" y="29.962" transform="matrix(0.0039 1 -1 0.0039 578.3738 -501.6948)" width="70.053" height="19.001"/> </g> <g> <rect x="617.94" y="39.774" transform="matrix(0.8133 0.5818 -0.5818 0.8133 161.1201 -350.919)" width="19" height="71.719"/> </g> <g> <rect x="679.167" y="117.54" transform="matrix(0.281 0.9597 -0.9597 0.281 642.2501 -550.6897)" width="19" height="71.532"/> </g> <g> <rect x="657.296" y="244.285" transform="matrix(0.9713 0.2378 -0.2378 0.9713 80.1918 -157.236)" width="69.118" height="19"/> </g> <g> <path d="M630.096,261.135l-17.785-6.686c0.076-0.203,8.01-21.767,8.298-47.786c0.368-33.345-11.495-58.245-35.26-74.009 c-24.235-16.076-51.744-20.282-81.763-12.507c-23.049,5.97-39.026,17.103-39.186,17.215l-10.983-15.503 c0.742-0.527,18.495-12.996,44.715-19.924c35.219-9.305,69.011-4.157,97.719,14.887c29.215,19.379,44.343,50.721,43.749,90.637 C639.164,236.688,630.466,260.15,630.096,261.135z"/> </g> </g> <g> <path fill="#FFD500" d="M602.56,253.354c0,0,32.469-72.087-18.946-110.412c-33.931-25.292-76.731-23.374-111.649,0.453 L602.56,253.354z"/> </g> </svg>