<?xml version="1.0" standalone="no"?><!DOCTYPE svg PUBLIC "-//W3C//DTD SVG 1.1//EN" "http://www.w3.org/Graphics/SVG/1.1/DTD/svg11.dtd"><svg t="1655774473671" class="icon" viewBox="0 0 1024 1024" version="1.1" xmlns="http://www.w3.org/2000/svg" p-id="6515" xmlns:xlink="http://www.w3.org/1999/xlink" width="200" height="200"><defs><style type="text/css">@font-face { font-family: feedback-iconfont; src: url("//at.alicdn.com/t/font_1031158_u69w8yhxdu.woff2?t=1630033759944") format("woff2"), url("//at.alicdn.com/t/font_1031158_u69w8yhxdu.woff?t=1630033759944") format("woff"), url("//at.alicdn.com/t/font_1031158_u69w8yhxdu.ttf?t=1630033759944") format("truetype"); }
</style></defs><path d="M512 74.666667C270.933333 74.666667 74.666667 270.933333 74.666667 512S270.933333 949.333333 512 949.333333 949.333333 753.066667 949.333333 512 753.066667 74.666667 512 74.666667z m0 810.666666c-204.8 0-373.333333-168.533333-373.333333-373.333333S307.2 138.666667 512 138.666667 885.333333 307.2 885.333333 512 716.8 885.333333 512 885.333333z" p-id="6516" fill="#8a8a8a"></path><path d="M546.133333 309.333333c-12.8-12.8-32-12.8-44.8-2.133333-12.8 12.8-12.8 32-2.133333 44.8l119.466667 128H341.333333c-17.066667 0-32 14.933333-32 32s14.933333 32 32 32h277.333334l-119.466667 128c-12.8 12.8-10.666667 34.133333 2.133333 44.8 6.4 6.4 14.933333 8.533333 21.333334 8.533333 8.533333 0 17.066667-4.266667 23.466666-10.666666l170.666667-181.333334c10.666667-12.8 10.666667-32 0-44.8l-170.666667-179.2z" p-id="6517" fill="#8a8a8a"></path></svg>