<?xml version="1.0" standalone="no"?><!DOCTYPE svg PUBLIC "-//W3C//DTD SVG 1.1//EN" "http://www.w3.org/Graphics/SVG/1.1/DTD/svg11.dtd"><svg t="1656342443972" class="icon" viewBox="0 0 1024 1024" version="1.1" xmlns="http://www.w3.org/2000/svg" p-id="5024" xmlns:xlink="http://www.w3.org/1999/xlink" width="200" height="200"><defs><style type="text/css">@font-face { font-family: feedback-iconfont; src: url("//at.alicdn.com/t/font_1031158_u69w8yhxdu.woff2?t=1630033759944") format("woff2"), url("//at.alicdn.com/t/font_1031158_u69w8yhxdu.woff?t=1630033759944") format("woff"), url("//at.alicdn.com/t/font_1031158_u69w8yhxdu.ttf?t=1630033759944") format("truetype"); }
</style></defs><path d="M992 512c0-12-6-24-18-30l-108-60 108-60c12 0 18-12 18-30 0-12-6-24-18-30L530 68c-12-6-24-6-30 0L50 302c-12 6-18 18-18 30s6 24 18 30l108 60-108 60c-12 6-18 18-18 30s6 24 18 30l108 60-108 60c-12 0-18 12-18 30 0 12 6 24 18 30l444 234c6 0 12 6 18 6 6 0 12 0 18-6l444-234c12-6 18-18 18-30s-6-24-18-30l-108-60 108-60c12-6 18-18 18-30zM140 332L512 140 884 332 512 530 140 332z m744 360L512 884 140 692l90-48 264 138c6 0 12 6 18 6 6 0 12 0 18-6l264-138 90 48z m-372 18L140 512l90-48 264 138c6 0 12 6 18 6 6 0 12 0 18-6l264-138 90 48L512 710z" p-id="5025" fill="#adb5bd"></path></svg>