<?xml version="1.0" standalone="no"?><!DOCTYPE svg PUBLIC "-//W3C//DTD SVG 1.1//EN" "http://www.w3.org/Graphics/SVG/1.1/DTD/svg11.dtd"><svg t="1656075074399" class="icon" viewBox="0 0 1024 1024" version="1.1" xmlns="http://www.w3.org/2000/svg" p-id="29305" xmlns:xlink="http://www.w3.org/1999/xlink" width="200" height="200"><defs><style type="text/css">@font-face { font-family: feedback-iconfont; src: url("//at.alicdn.com/t/font_1031158_u69w8yhxdu.woff2?t=1630033759944") format("woff2"), url("//at.alicdn.com/t/font_1031158_u69w8yhxdu.woff?t=1630033759944") format("woff"), url("//at.alicdn.com/t/font_1031158_u69w8yhxdu.ttf?t=1630033759944") format("truetype"); }
</style></defs><path d="M768 554.666667a42.666667 42.666667 0 0 1-42.666667-42.666667 213.333333 213.333333 0 1 0-28.586666 106.666667A126.08 126.08 0 0 0 768 640a128 128 0 0 0 128-128 384 384 0 1 0-112.426667 271.573333l-60.586666-60.586666A298.666667 298.666667 0 1 1 810.666667 512a42.666667 42.666667 0 0 1-42.666667 42.666667z m-256 85.333333a128 128 0 1 1 128-128 128 128 0 0 1-128 128z" p-id="29306" fill="#5a29e4"></path></svg>