<?xml version="1.0" standalone="no"?><!DOCTYPE svg PUBLIC "-//W3C//DTD SVG 1.1//EN" "http://www.w3.org/Graphics/SVG/1.1/DTD/svg11.dtd"><svg class="icon" width="200px" height="200.00px" viewBox="0 0 1024 1024" version="1.1" xmlns="http://www.w3.org/2000/svg"><path fill="#a37bca" d="M768 554.666667a42.666667 42.666667 0 0 1-42.666667-42.666667 213.333333 213.333333 0 1 0-28.586666 106.666667A126.08 126.08 0 0 0 768 640a128 128 0 0 0 128-128 384 384 0 1 0-112.426667 271.573333l-60.586666-60.586666A298.666667 298.666667 0 1 1 810.666667 512a42.666667 42.666667 0 0 1-42.666667 42.666667z m-256 85.333333a128 128 0 1 1 128-128 128 128 0 0 1-128 128z" /></svg>