<?xml version="1.0" standalone="no"?><!DOCTYPE svg PUBLIC "-//W3C//DTD SVG 1.1//EN" "http://www.w3.org/Graphics/SVG/1.1/DTD/svg11.dtd"><svg t="1690851603768" class="icon" viewBox="0 0 1024 1024" version="1.1" xmlns="http://www.w3.org/2000/svg" p-id="24907" xmlns:xlink="http://www.w3.org/1999/xlink" width="128" height="128"><path d="M897.9 437.6L580.5 156c-41-41-102.4-41-143.4 0l-297 286.7c-20.5 15.4-30.7 41-30.7 66.6 0 25.6 10.2 51.2 30.7 71.7 5.1 5.1 10.2 5.1 15.4 5.1h71.7v215c0 56.3 46.1 97.3 102.4 97.3h92.2c10.2 0 20.5-10.2 20.5-20.5V724.3c0-35.8 30.7-61.4 66.6-61.4 35.8 0 66.6 30.7 66.6 66.6V878c0 10.2 10.2 20.5 20.5 20.5h92c56.3 0 102.4-46.1 102.4-97.3V586h87c5.1 0 10.2 0 15.4-5.1 20.5-20.5 30.7-51.1 30.7-76.7 5.1-20.5-5.1-46.1-25.6-66.6zM867.3 546H770c-9.7 0-19.4 3.2-20.4 12.9-0.1 0.8-0.2 1.6-0.2 2.4v239.8c0 30.7-25.6 56.3-56.3 56.3h-76.8V719.2c-5.1-56.3-51.2-102.4-107.5-102.4-61.4 0-107.5 46.1-107.5 107.5v128h-71.7c-30.7 0-56.3-25.6-56.3-56.3V565.6c0-10.2-10.2-20.5-20.5-20.5h-87c-10.2-10.2-15.4-20.5-15.4-35.8 0-15.4 5.1-30.7 15.4-41l302.1-286.7c20.5-20.5 56.3-20.5 81.9 0l312.3 281.6c10.2 10.2 15.4 25.6 15.4 41 0 10.2-5.1 31.6-10.2 41.8z" fill="#8a8a8a" p-id="24908"></path></svg>