<?xml version="1.0" standalone="no"?><!DOCTYPE svg PUBLIC "-//W3C//DTD SVG 1.1//EN" "http://www.w3.org/Graphics/SVG/1.1/DTD/svg11.dtd"><svg t="1690851974761" class="icon" viewBox="0 0 1024 1024" version="1.1" xmlns="http://www.w3.org/2000/svg" p-id="36052" xmlns:xlink="http://www.w3.org/1999/xlink" width="128" height="128"><path d="M933.21318359 451.50839844L591.9171875 96.59814453C570.74433594 74.6140625 542.35917969 62.39726562 512.00351562 62.39726562c-30.36357422 0-58.74785156 12.09726563-79.9171875 34.20087891L90.90195313 451.50839844c-35.24414063 36.64423828-30.70722656 68.28310547-24.89414063 81.54667968 4.190625 9.42275391 18.14589844 35.128125 58.51230469 35.128125h50.0211914v273.01728516c0 61.99628906 44.55 120.39169922 107.82949219 120.39169922h145.29199219V672.64208984c0-30.94013672-4.65380859-48.27568359 26.99033203-48.27568359h114.81064453c31.640625 0 26.98681641 17.21425781 26.98681641 48.27568359v288.95009766h145.17597656c63.27949219 0 107.83476563-58.39541016 107.83476563-120.39169922V568.18232422h50.01679687c40.36640625 0 54.32695312-25.82490234 58.51230469-35.128125 5.81572266-13.26357422 10.35439453-44.9015625-24.77636719-81.54667969z m-33.73154297 60.48896484h-106.32128906v329.2022461c0 30.93925781-20.00654297 64.09423828-51.64628906 64.09423828H652.52128906V672.64033203c0-62.0015625-19.89052734-104.45888672-83.17353515-104.45888672H454.53710937c-63.28388672 0-83.17705078 42.45644531-83.17705078 104.45888672v232.76953125H282.36992187c-31.640625 0-51.64716797-33.15673828-51.64716796-64.096875V512.11601562H124.40410156c-1.04589844 0-1.86064453-3.84082031-2.67451172-3.95595703 1.97490234-3.375 5.35166016-11.98125 10.93271485-17.79873046L473.95830078 135.6875c10.12236328-10.7015625 24.54697266-17.10087891 38.50839844-16.98486328 13.95703125-0.11513672 27.45087891 6.39931641 37.68574219 16.98486328l341.1852539 354.55693359c5.58105469 5.81396484 8.95869141 14.42373047 10.81845703 17.80136719-0.70136719 0.11425781-1.63125 3.94892578-2.67714843 3.94892578l0.00263671 0.00615235z" fill="#8a8a8a" p-id="36053"></path></svg>