<?xml version="1.0" standalone="no"?><!DOCTYPE svg PUBLIC "-//W3C//DTD SVG 1.1//EN" "http://www.w3.org/Graphics/SVG/1.1/DTD/svg11.dtd"><svg t="1690851494494" class="icon" viewBox="0 0 1024 1024" version="1.1" xmlns="http://www.w3.org/2000/svg" p-id="23771" xmlns:xlink="http://www.w3.org/1999/xlink" width="128" height="128"><path d="M849.59197473 125.23018519L139.22930586 391.72854662a23.35052669 23.35052669 0 0 0-14.95414244 21.65490745c-0.12257519 9.70384955 5.61801843 18.46795771 14.40255493 22.04306141l318.42928099 129.25528056 119.51057092 320.39047893c3.06437293 8.23295069 10.35758221 13.89182751 18.7335381 14.87242563l2.7170774 0.14300521a22.79893918 22.79893918 0 0 0 21.20546682-15.36272638l259.51158924-729.54564933a23.8612558 23.8612558 0 0 0-5.31158128-24.55584682 22.3290685 22.3290685 0 0 0-23.9021142-5.43415649zM793.65694081 211.64552314l-196.63064161 552.75171747-91.91077952-246.37564122-253.62799211-102.96295445 542.16941324-203.4131218z" p-id="23772" fill="#8a8a8a"></path></svg>