<?xml version="1.0" standalone="no"?><!DOCTYPE svg PUBLIC "-//W3C//DTD SVG 1.1//EN" "http://www.w3.org/Graphics/SVG/1.1/DTD/svg11.dtd"><svg t="1656343510647" class="icon" viewBox="0 0 1024 1024" version="1.1" xmlns="http://www.w3.org/2000/svg" p-id="5674" xmlns:xlink="http://www.w3.org/1999/xlink" width="200" height="200"><defs><style type="text/css">@font-face { font-family: feedback-iconfont; src: url("//at.alicdn.com/t/font_1031158_u69w8yhxdu.woff2?t=1630033759944") format("woff2"), url("//at.alicdn.com/t/font_1031158_u69w8yhxdu.woff?t=1630033759944") format("woff"), url("//at.alicdn.com/t/font_1031158_u69w8yhxdu.ttf?t=1630033759944") format("truetype"); }
</style></defs><path d="M258.9696 716.8h411.9552v24.064c0 54.6816 13.2096 79.36 39.6288 83.6608 23.2448-3.8912 40.2432-23.9616 40.2432-47.5136V276.0704c-1.4336-71.9872 29.0816-114.3808 88.8832-114.3808V209.92c-29.0816 0-41.6768 17.5104-40.7552 65.6384v501.4528c0 47.8208-35.0208 88.3712-82.2272 95.3344v1.024H234.9056c-53.248 0-96.3584-43.1104-96.3584-96.3584V716.8h72.2944V246.8864c0-53.248 43.1104-96.3584 96.3584-96.3584h489.472c57.6512 0 88.8832 37.888 88.8832 102.6048v113.8688h-110.592v-48.2304h62.3616v-65.6384c0-39.936-11.9808-54.4768-40.7552-54.4768H307.2c-26.624 0-48.2304 21.6064-48.2304 48.2304V716.8z m99.2256 108.4416h280.8832c-8.192-16.2816-13.312-36.5568-15.2576-60.2112H186.6752v12.0832c0 26.624 21.6064 48.2304 48.2304 48.2304l123.2896-0.1024z m-17.1008-427.7248c-13.312 0-24.064-10.752-24.064-24.064s10.752-24.064 24.064-24.064h325.2224c13.312 0 24.064 10.752 24.064 24.064s-10.752 24.064-24.064 24.064H341.0944z m0.1024 132.608c-13.312 0-24.064-10.752-24.064-24.064s10.752-24.064 24.064-24.064h164.5568c13.312 0 24.064 10.752 24.064 24.064s-10.752 24.064-24.064 24.064H341.1968z" p-id="5675" fill="#adb5bd"></path></svg>