<?xml version="1.0" standalone="no"?><!DOCTYPE svg PUBLIC "-//W3C//DTD SVG 1.1//EN" "http://www.w3.org/Graphics/SVG/1.1/DTD/svg11.dtd"><svg t="1656343498650" class="icon" viewBox="0 0 1024 1024" version="1.1" xmlns="http://www.w3.org/2000/svg" p-id="5466" xmlns:xlink="http://www.w3.org/1999/xlink" width="200" height="200"><defs><style type="text/css">@font-face { font-family: feedback-iconfont; src: url("//at.alicdn.com/t/font_1031158_u69w8yhxdu.woff2?t=1630033759944") format("woff2"), url("//at.alicdn.com/t/font_1031158_u69w8yhxdu.woff?t=1630033759944") format("woff"), url("//at.alicdn.com/t/font_1031158_u69w8yhxdu.ttf?t=1630033759944") format("truetype"); }
</style></defs><path d="M527.36 368.64h174.08a20.48 20.48 0 0 0 0-40.96h-174.08a20.48 20.48 0 0 0 0 40.96zM706.56 491.52H327.68a20.48 20.48 0 0 0 0 40.96h378.88a20.48 20.48 0 0 0 0-40.96zM706.56 655.36H327.68a20.48 20.48 0 0 0 0 40.96h378.88a20.48 20.48 0 0 0 0-40.96z" p-id="5467" fill="#adb5bd"></path><path d="M757.76 71.68H266.24a122.88 122.88 0 0 0-122.88 122.88v634.88a122.88 122.88 0 0 0 122.88 122.88h491.52a122.88 122.88 0 0 0 122.88-122.88V194.56A122.88 122.88 0 0 0 757.76 71.68z m81.92 757.76a81.92 81.92 0 0 1-81.92 81.92H266.24a81.92 81.92 0 0 1-81.92-81.92V194.56a81.92 81.92 0 0 1 81.92-81.92h491.52a81.92 81.92 0 0 1 81.92 81.92z" p-id="5468" fill="#adb5bd"></path></svg>