<?xml version="1.0" standalone="no"?><!DOCTYPE svg PUBLIC "-//W3C//DTD SVG 1.1//EN" "http://www.w3.org/Graphics/SVG/1.1/DTD/svg11.dtd"><svg t="1656342788199" class="icon" viewBox="0 0 1024 1024" version="1.1" xmlns="http://www.w3.org/2000/svg" p-id="2988" xmlns:xlink="http://www.w3.org/1999/xlink" width="200" height="200"><defs><style type="text/css">@font-face { font-family: feedback-iconfont; src: url("//at.alicdn.com/t/font_1031158_u69w8yhxdu.woff2?t=1630033759944") format("woff2"), url("//at.alicdn.com/t/font_1031158_u69w8yhxdu.woff?t=1630033759944") format("woff"), url("//at.alicdn.com/t/font_1031158_u69w8yhxdu.ttf?t=1630033759944") format("truetype"); }
</style></defs><path d="M661.648 118H249.104c-39.088 0-70.304 31.752-70.304 70.304v647.392c0 39.096 31.752 70.304 70.304 70.304h525.8c38.552 0 70.296-31.752 70.296-70.304V301.56L661.648 118z m12.664 74.704l96.176 96.184H684.584c-5.408 0-10.272-4.864-10.272-10.272V192.704z m126.928 642.992a26.24 26.24 0 0 1-26.344 26.352H249.104a26.24 26.24 0 0 1-26.344-26.352V188.304a26.24 26.24 0 0 1 26.344-26.344v-0.464h381.328v117.192c0 29.824 24.416 54.16 54.16 54.16h116.656v502.848z" p-id="2989" fill="#adb5bd"></path><path d="M348.68 386.072h188.968a21.84 21.84 0 0 0 21.944-21.936 21.84 21.84 0 0 0-21.944-21.944H348.68a21.832 21.832 0 0 0-21.944 21.944 21.84 21.84 0 0 0 21.944 21.936zM674.848 644.8H348.68c-12.208 0-21.944 9.744-21.944 21.944s9.736 21.944 21.944 21.944h326.168c12.208 0 21.944-9.744 21.944-21.944S687.064 644.8 674.848 644.8zM348.68 495.856a21.824 21.824 0 0 0-21.944 21.944 21.832 21.832 0 0 0 21.944 21.936h326.168a21.832 21.832 0 0 0 21.944-21.936 21.832 21.832 0 0 0-21.944-21.944H348.68z" p-id="2990" fill="#adb5bd"></path></svg>