<?xml version="1.0" standalone="no"?><!DOCTYPE svg PUBLIC "-//W3C//DTD SVG 1.1//EN" "http://www.w3.org/Graphics/SVG/1.1/DTD/svg11.dtd"><svg t="1656343425607" class="icon" viewBox="0 0 1024 1024" version="1.1" xmlns="http://www.w3.org/2000/svg" p-id="5267" xmlns:xlink="http://www.w3.org/1999/xlink" width="200" height="200"><defs><style type="text/css">@font-face { font-family: feedback-iconfont; src: url("//at.alicdn.com/t/font_1031158_u69w8yhxdu.woff2?t=1630033759944") format("woff2"), url("//at.alicdn.com/t/font_1031158_u69w8yhxdu.woff?t=1630033759944") format("woff"), url("//at.alicdn.com/t/font_1031158_u69w8yhxdu.ttf?t=1630033759944") format("truetype"); }
</style></defs><path d="M793.6 85.333c54.356 0 99.81 39.95 102.293 91.55l0.107 4.45v661.334c0 52.243-43.944 93.643-97.763 95.902l-4.637 0.098H230.4c-54.356 0-99.81-39.95-102.293-91.55l-0.107-4.45V181.333c0-52.243 43.944-93.643 97.763-95.902l4.637-0.098h563.2z m-563.2 64c-20.702 0-36.643 13.502-38.264 29.34l-0.136 2.66v661.334c0 16.064 14.852 30.41 34.995 31.877l3.405 0.123h563.2c20.702 0 36.643-13.502 38.264-29.34l0.136-2.66V181.333c0-16.064-14.852-30.41-34.995-31.877l-3.405-0.123h-36.267v246.598L640 336.192l-117.333 59.74V149.332H230.4zM586.667 291.52L640 264.405l53.333 27.136V149.333H586.667V291.52z" p-id="5268" fill="#adb5bd"></path></svg>