<?xml version="1.0" standalone="no"?><!DOCTYPE svg PUBLIC "-//W3C//DTD SVG 1.1//EN" "http://www.w3.org/Graphics/SVG/1.1/DTD/svg11.dtd"><svg t="1714395541974" class="icon" viewBox="0 0 1024 1024" version="1.1" xmlns="http://www.w3.org/2000/svg" p-id="5873" xmlns:xlink="http://www.w3.org/1999/xlink" width="200" height="200"><path d="M153.6 204.8a51.2 51.2 0 1 1 51.2 51.2 51.2 51.2 0 0 1-51.2-51.2z m153.6 0a51.2 51.2 0 1 1 51.2 51.2 51.2 51.2 0 0 1-51.2-51.2z m153.6 0a51.2 51.2 0 1 1 51.2 51.2 51.2 51.2 0 0 1-51.2-51.2z m460.8 307.2V102.4H102.4v204.8h819.2v102.4H102.4v512h409.6v102.4H102.4a102.4 102.4 0 0 1-102.4-102.4V102.4a102.4 102.4 0 0 1 102.4-102.4h819.2a102.4 102.4 0 0 1 102.4 102.4v409.6h-102.4z m-204.8 0a204.0832 204.0832 0 0 1 172.7488 313.9072l125.6448 125.696L942.7968 1024l-128-128A202.6496 202.6496 0 0 1 716.8 921.6a204.8 204.8 0 0 1 0-409.6z m0 307.2a102.4 102.4 0 1 0-102.4-102.4 102.4 102.4 0 0 0 102.4 102.4z" fill="#8a8a8a" p-id="5874"></path></svg>