<?xml version="1.0" standalone="no"?><!DOCTYPE svg PUBLIC "-//W3C//DTD SVG 1.1//EN" "http://www.w3.org/Graphics/SVG/1.1/DTD/svg11.dtd"><svg t="1714395933337" class="icon" viewBox="0 0 1024 1024" version="1.1" xmlns="http://www.w3.org/2000/svg" p-id="6091" xmlns:xlink="http://www.w3.org/1999/xlink" width="200" height="200"><path d="M960 0a64 64 0 0 1 64 64v448h-64V320H64v640h448v64H64a64 64 0 0 1-64-64V64a64 64 0 0 1 64-64h896z m-129.6 513.6a224 224 0 0 1 20.992 292.544l160 160a32 32 0 0 1-45.248 45.248l-160-160a224 224 0 1 1 24.256-337.792z m-271.552 45.248a160 160 0 1 0 226.304 226.304 160 160 0 0 0-226.304-226.304zM960 64H64v192h896V64zM160 128a32 32 0 1 1 0 64 32 32 0 0 1 0-64z m128 0a32 32 0 1 1 0 64 32 32 0 0 1 0-64z m128 0a32 32 0 1 1 0 64 32 32 0 0 1 0-64z" fill="#8a8a8a" fill-opacity=".85" p-id="6092"></path></svg>