<?xml version="1.0" standalone="no"?><!DOCTYPE svg PUBLIC "-//W3C//DTD SVG 1.1//EN" "http://www.w3.org/Graphics/SVG/1.1/DTD/svg11.dtd"><svg t="1714396527399" class="icon" viewBox="0 0 1030 1024" version="1.1" xmlns="http://www.w3.org/2000/svg" p-id="2360" xmlns:xlink="http://www.w3.org/1999/xlink" width="201.171875" height="200"><path d="M509.23741 1019.395683H92.086331a92.086331 92.086331 0 0 1-92.086331-92.08633V92.086331a92.086331 92.086331 0 0 1 92.086331-92.086331h761.093525a92.086331 92.086331 0 0 1 92.086331 92.086331v378.935252a29.007194 29.007194 0 1 1-58.014388 0V92.086331a33.151079 33.151079 0 0 0-34.071943-32.230216H92.086331a33.151079 33.151079 0 0 0-34.071943 32.230216v839.366906a33.151079 33.151079 0 0 0 34.071943 32.230216h417.151079a29.007194 29.007194 0 0 1 0 58.014389z" fill="#8a8a8a" p-id="2361"></path><path d="M343.021583 214.561151h73.669064q43.280576 0 41.438849 41.438849-5.52518 234.359712-169.438849 330.129496-37.755396 23.482014-52.489208 0t17.956834-41.438849a334.273381 334.273381 0 0 0 97.611511-92.08633 361.438849 361.438849 0 0 0-66.76259-62.618705l-16.115108 30.84892q-17.956835 23.482014-37.755395 14.273382a24.863309 24.863309 0 0 1-12.431655-37.755396 679.136691 679.136691 0 0 0 66.302158-189.697842 26.705036 26.705036 0 0 1 34.071943-25.323741q29.007194 1.841727 23.942446 32.230216z m41.438849 52.489209H331.05036a451.683453 451.683453 0 0 1-21.640288 72.287769 861.928058 861.928058 0 0 1 67.683453 59.395684 310.330935 310.330935 0 0 0 23.482015-113.726619q1.841727-19.798561-16.115108-17.956834z m108.201439 314.014388V200.28777q0-19.798561 25.323741-21.640288t27.165467 19.798561V282.705036a18.877698 18.877698 0 0 1 19.798561 9.208633q30.848921 43.280576 74.129497 110.043166 16.115108 30.848921-7.366907 41.438848a24.402878 24.402878 0 0 1-37.755395-9.208633q-21.640288-34.071942-46.043166-72.287769v218.244604a25.323741 25.323741 0 0 1-27.165468 25.323741q-28.086331-0.460432-28.08633-24.402878z" fill="#8a8a8a" p-id="2362"></path><path d="M112.345324 746.359712m20.719424 0l304.805756 0q20.719424 0 20.719424 20.719425l0 16.575539q0 20.719424-20.719424 20.719425l-304.805756 0q-20.719424 0-20.719424-20.719425l0-16.575539q0-20.719424 20.719424-20.719425Z" fill="#8a8a8a" p-id="2363"></path><path d="M806.215827 631.71223a134.446043 134.446043 0 0 0-87.942446 236.201439 138.129496 138.129496 0 0 0 20.258993 14.733813 135.366906 135.366906 0 0 0 67.683453 17.956835 133.52518 133.52518 0 0 0 68.143885-19.33813 128 128 0 0 0 20.258993-14.733813 134.446043 134.446043 0 0 0-88.402878-236.201439z m65.381295 225.611511a111.884892 111.884892 0 0 1-65.381295 21.179856 111.884892 111.884892 0 0 1-37.294964-6.446043 109.122302 109.122302 0 0 1-28.086331-14.733813 112.345324 112.345324 0 1 1 130.76259 0z" p-id="2364" fill="#8a8a8a"></path><path d="M806.215827 910.273381a145.035971 145.035971 0 0 1-72.287769-19.338129 150.100719 150.100719 0 0 1-22.10072-15.654676 144.115108 144.115108 0 1 1 188.776979 0 138.129496 138.129496 0 0 1-21.640288 15.654676 143.194245 143.194245 0 0 1-72.748202 19.338129z m0-269.352518a125.23741 125.23741 0 0 0-81.956834 219.6259 124.776978 124.776978 0 0 0 145.035971 13.352518 119.251799 119.251799 0 0 0 18.877698-13.352518 125.23741 125.23741 0 0 0-81.956835-219.6259z m0 246.791367a121.093525 121.093525 0 0 1-40.057554-6.906475 118.791367 118.791367 0 0 1-30.388489-16.115108 121.553957 121.553957 0 1 1 141.81295 0 121.553957 121.553957 0 0 1-70.906475 23.021583z m0-224.230216a102.676259 102.676259 0 0 0-59.856115 184.172662 100.374101 100.374101 0 0 0 25.784173 13.352518 102.676259 102.676259 0 1 0 34.071942-199.827338z" p-id="2365" fill="#8a8a8a"></path><path d="M972.892086 1019.395683a10.589928 10.589928 0 0 1 0 2.76259zM618.820144 1019.395683a8.28777 8.28777 0 0 1 0-2.762589 26.705036 26.705036 0 0 0 0 3.223021zM640.920863 1019.395683a8.28777 8.28777 0 0 1 0 2.76259 12.431655 12.431655 0 0 1 0-2.76259zM890.935252 924.546763l-4.143885-4.143885a11.05036 11.05036 0 0 1 4.143885 4.143885z" fill="#8a8a8a" p-id="2366"></path><path d="M876.539256 855.564905m12.992103-18.444805l10.340653-14.680558q12.992103-18.444804 31.436907-5.452701l89.589049 63.104499q18.444804 12.992103 5.452701 31.436907l-10.340653 14.680559q-12.992103 18.444804-31.436907 5.452701l-89.589049-63.1045q-18.444804-12.992103-5.452701-31.436907Z" p-id="2367" fill="#8a8a8a"></path></svg>