<?xml version="1.0" standalone="no"?><!DOCTYPE svg PUBLIC "-//W3C//DTD SVG 1.1//EN" "http://www.w3.org/Graphics/SVG/1.1/DTD/svg11.dtd"><svg t="1656074037624" class="icon" viewBox="0 0 1872 1024" version="1.1" xmlns="http://www.w3.org/2000/svg" p-id="6987" xmlns:xlink="http://www.w3.org/1999/xlink" width="365.625" height="200"><defs><style type="text/css">@font-face { font-family: feedback-iconfont; src: url("//at.alicdn.com/t/font_1031158_u69w8yhxdu.woff2?t=1630033759944") format("woff2"), url("//at.alicdn.com/t/font_1031158_u69w8yhxdu.woff?t=1630033759944") format("woff"), url("//at.alicdn.com/t/font_1031158_u69w8yhxdu.ttf?t=1630033759944") format("truetype"); }
</style></defs><path d="M1764.059429 594.490514H108.397714a78.848 78.848 0 0 1-78.833371-78.848V121.4464a78.848 78.848 0 0 1 78.848-78.833371h1655.632457a78.848 78.848 0 0 1 78.848 78.848v394.181485a78.848 78.848 0 0 1-78.848 78.848z" fill="#DCF3F9" p-id="6988"></path><path d="M1764.059429 42.613029H108.397714a78.848 78.848 0 0 0-78.833371 78.848V515.657143a78.848 78.848 0 0 0 78.848 78.848h1655.632457a78.848 78.848 0 0 0 78.848-78.848V121.461029a78.848 78.848 0 0 0-78.848-78.848z m19.690057 473.044114c0 10.869029-8.835657 19.704686-19.704686 19.704686H108.412343a19.733943 19.733943 0 0 1-19.719314-19.704686V121.461029c0-10.883657 8.850286-19.719314 19.719314-19.719315h1655.632457c10.869029 0 19.704686 8.850286 19.704686 19.719315V515.657143z" fill="#C3E4ED" p-id="6989"></path><path d="M1312.9728 380.679314l492.324571 192.658286c45.728914 17.890743 50.980571 80.501029 8.879543 105.764571l-175.542857 105.325715-105.340343 175.542857c-25.263543 42.130286-87.873829 36.864-105.764571-8.864914l-192.658286-492.324572a60.269714 60.269714 0 1 1 78.087314-78.101943z" fill="#FC8059" p-id="6990"></path><path d="M1814.176914 679.102171l-175.542857 105.325715-390.2464-390.231772a60.269714 60.269714 0 0 1 64.585143-13.5168l492.324571 192.658286c45.728914 17.890743 50.980571 80.501029 8.879543 105.764571z" fill="#AD3C1E" p-id="6991"></path><path d="M370.541714 381.293714c0 50.907429-48.625371 92.306286-108.397714 92.306286h-78.848a29.549714 29.549714 0 1 1 0-59.128686h78.848c26.243657 0 49.269029-15.506286 49.269029-33.1776 0-17.671314-23.010743-33.1776-49.269029-33.1776h-39.424c-59.772343 0-108.397714-41.398857-108.397714-92.306285 0-50.907429 48.625371-92.306286 108.397714-92.306286h78.848a29.549714 29.549714 0 1 1 0 59.128686h-78.848c-26.243657 0-49.269029 15.506286-49.269029 33.1776 0 17.671314 23.025371 33.1776 49.269029 33.1776h39.424c59.772343 0 108.397714 41.413486 108.397714 92.306285z m551.5264 58.1632a29.549714 29.549714 0 1 1-58.397257 9.172115l-10.869028-69.134629h-116.970058l-10.8544 69.134629a29.549714 29.549714 0 1 1-58.411885-9.172115l32.080457-204.288c6.524343-41.530514 46.767543-71.68 95.670857-71.68 48.932571 0 89.161143 30.149486 95.670857 71.68l32.080457 204.288z m-78.555428-119.105828l-11.936915-76.010057c-1.6384-10.430171-16.354743-21.7088-37.258971-21.7088-20.918857 0-35.620571 11.264-37.258971 21.7088l-11.936915 76.010057h98.391772z m-329.084343-97.718857h78.848a29.549714 29.549714 0 1 0 0-59.128686h-78.848c-59.772343 0-108.397714 41.398857-108.397714 92.306286v125.498514c0 50.8928 48.625371 92.306286 108.397714 92.306286h78.848a29.549714 29.549714 0 1 0 0-59.128686h-78.848c-26.243657 0-49.269029-15.506286-49.269029-33.1776v-33.192229h128.117029a29.549714 29.549714 0 1 0 0-59.128685h-128.117029v-33.1776c0-17.671314 23.025371-33.1776 49.269029-33.1776z m1343.502628 347.253028c-1.009371 1.7408-2.165029 3.349943-3.466971 4.8128a88.502857 88.502857 0 0 1 17.671314 46.2848 88.122514 88.122514 0 0 1-42.744685 83.470629l-169.223315 101.522285-101.522285 169.223315a88.064 88.064 0 0 1-83.470629 42.744685 88.137143 88.137143 0 0 1-75.190857-56.056685L1267.799771 624.054857H108.412343C48.625371 624.054857 0 575.444114 0 515.657143V121.461029C0 61.674057 48.64 13.048686 108.397714 13.048686h1655.661715c59.757714 0 108.397714 48.64 108.397714 108.397714V515.657143a108.397714 108.397714 0 0 1-14.526172 54.228114z m-44.719542 56.042057a29.008457 29.008457 0 0 0-18.680686-25.058743L1308.803657 410.799543a29.330286 29.330286 0 0 1-13.765486-4.432457 30.690743 30.690743 0 0 0-25.746285 8.733257 30.705371 30.705371 0 0 0-6.875429 32.899657L1455.045486 940.324571a28.993829 28.993829 0 0 0 25.058743 18.680686 28.9792 28.9792 0 0 0 27.823542-14.248228l105.325715-175.542858c2.501486-4.169143 5.997714-7.650743 10.152228-10.1376l175.542857-105.325714a28.9792 28.9792 0 0 0 14.248229-27.823543z m0.1024-504.466285a49.327543 49.327543 0 0 0-49.269029-49.283658H108.412343a49.327543 49.327543 0 0 0-49.283657 49.283658V515.657143a49.327543 49.327543 0 0 0 49.283657 49.269028h1136.259657l-35.869257-91.662628a29.549714 29.549714 0 0 1-29.549714-13.487543l-70.158629-111.659886H1086.025143a29.549714 29.549714 0 1 1 0-59.128685h39.789714c26.097371-0.146286 48.903314-15.579429 48.903314-33.1776 0-17.671314-23.025371-33.1776-49.269028-33.1776H1036.726857v221.403428a29.549714 29.549714 0 1 1-59.128686 0V193.067886a29.549714 29.549714 0 0 1 29.564343-29.564343h118.272c59.757714 0 108.397714 41.398857 108.397715 92.306286 0 36.366629-24.824686 67.8912-60.810972 82.929371l37.0688 58.997029a89.746286 89.746286 0 0 1 17.364114-24.429715v-0.014628a89.8048 89.8048 0 0 1 53.672229-25.775543v-91.706514c0-50.907429 48.64-92.306286 108.397714-92.306286h78.848a29.549714 29.549714 0 1 1 0 59.128686h-78.848c-26.243657 0-49.269029 15.506286-49.269028 33.1776v103.818971l201.040457 78.672457V193.067886a29.549714 29.549714 0 1 1 59.128686 0v95.919543h98.552685v-95.919543a29.549714 29.549714 0 1 1 59.128686 0v250.967771a29.549714 29.549714 0 1 1-59.128686 0v-95.919543h-98.552685v95.919543c0 5.749029-1.6384 11.117714-4.461715 15.652572l209.92 82.139428c0.263314-0.526629 0.541257-1.038629 0.833829-1.550628 4.3008-7.445943 6.582857-15.945143 6.582857-24.619886V121.4464z" fill="#4C4C4C" p-id="6992"></path></svg>