<?xml version="1.0" standalone="no"?><!DOCTYPE svg PUBLIC "-//W3C//DTD SVG 1.1//EN" "http://www.w3.org/Graphics/SVG/1.1/DTD/svg11.dtd"><svg t="1714395504191" class="icon" viewBox="0 0 1024 1024" version="1.1" xmlns="http://www.w3.org/2000/svg" p-id="5641" xmlns:xlink="http://www.w3.org/1999/xlink" width="200" height="200"><path d="M111.943 1024C51.777 1024 0 972.361 0 912.39V111.64C0 51.639 51.777 0 111.943 0h800C972.166 0 1024 51.639 1024 111.639v71.528c0 24.25-18.193 43.972-42.5 43.972-24.305 0-42.5-19.722-42.5-43.972v-71.528C939 100.306 923.389 85 912.027 85H111.943C100.61 85 85 100.306 85 111.639v800.75c0 11.333 15.61 26.61 26.943 26.61h643.111c24.278 0 44.056 18.277 44.056 42.527 0 24.223-19.777 42.473-44.056 42.473H111.943z" p-id="5642" fill="#8a8a8a"></path><path d="M976.999 998.861c-12.777 0-24.944-5.527-33.416-15.139L757.277 769.417l-6.444 3.361c-41.167 21.611-85.334 32.556-131.334 32.556-156 0-282.944-127-282.944-283.111s126.944-283.111 282.944-283.111c156.167 0 283.223 127 283.223 283.111 0 68.527-25.139 134.777-70.806 186.5l-5.306 6.139 183.778 211.028c15.944 18.36 13.944 46.277-4.417 62.277-7.916 6.889-18.222 10.694-28.972 10.694z m-357.5-671.666c-107.389 0-194.806 87.444-194.806 194.917 0 107.417 87.417 194.778 194.806 194.778 107.5 0 194.944-87.361 194.944-194.778 0.056-51.889-20.194-100.777-57.027-137.667-36.889-36.917-85.861-57.25-137.917-57.25zM200.416 796l-2.861-5.333c-24.277 0-44.056-15.5-44.056-39.834 0-24.277 19.778-39.833 44.056-39.833h97.111c17.611 29 39.944 57 66.5 85h-160.75z m-2.861-256c-24.277 0-44.056-18.167-44.056-42.5 0-24.278 19.778-42.5 44.056-42.5h59.056c-4.222 29-6.333 43.944-6.333 65.777 0 7.167 0.333 19.223 0.777 19.223h-53.5z m0-227c-24.277 0-44.056-18.222-44.056-42.5 0-24.333 19.778-42.5 44.056-42.5h196.139c-31.86 28-59.36 56-81.75 85H197.555z" p-id="5643" fill="#8a8a8a"></path></svg>