<?xml version="1.0" standalone="no"?><!DOCTYPE svg PUBLIC "-//W3C//DTD SVG 1.1//EN" "http://www.w3.org/Graphics/SVG/1.1/DTD/svg11.dtd"><svg t="1656342193194" class="icon" viewBox="0 0 1024 1024" version="1.1" xmlns="http://www.w3.org/2000/svg" p-id="3907" xmlns:xlink="http://www.w3.org/1999/xlink" width="200" height="200"><defs><style type="text/css">@font-face { font-family: feedback-iconfont; src: url("//at.alicdn.com/t/font_1031158_u69w8yhxdu.woff2?t=1630033759944") format("woff2"), url("//at.alicdn.com/t/font_1031158_u69w8yhxdu.woff?t=1630033759944") format("woff"), url("//at.alicdn.com/t/font_1031158_u69w8yhxdu.ttf?t=1630033759944") format("truetype"); }
</style></defs><path d="M826 64H198a70 70 0 0 0-70 70v786a40 40 0 0 0 67.72 28.82l315.1-181.92L836 954.63h0.09c0.55 0.32 1.11 0.62 1.68 0.91h0.09c0.57 0.29 1.14 0.57 1.73 0.83h0.11c0.56 0.25 1.12 0.49 1.7 0.71l0.2 0.08c0.52 0.21 1.06 0.4 1.59 0.58l0.34 0.11c0.48 0.16 1 0.31 1.45 0.45l0.52 0.14c0.42 0.12 0.85 0.23 1.28 0.33l0.71 0.16 1.12 0.22 0.9 0.17 1 0.14 1.06 0.13c0.28 0 0.57 0.06 0.86 0.09l1.15 0.09h3.9c0.38 0 0.76 0 1.13-0.05h0.63c0.49 0 1-0.08 1.47-0.14h0.18a39.68 39.68 0 0 0 17.72-6.65l0.17-0.12c0.46-0.32 0.91-0.64 1.35-1l0.62-0.49c0.29-0.23 0.59-0.45 0.87-0.69s0.51-0.44 0.76-0.66 0.47-0.4 0.69-0.61 0.49-0.45 0.73-0.68l0.69-0.68c0.2-0.2 0.39-0.41 0.58-0.61s0.54-0.56 0.8-0.85l0.4-0.47c0.32-0.36 0.63-0.72 0.93-1.1l0.21-0.27c0.37-0.46 0.72-0.92 1.06-1.4l0.05-0.06a40 40 0 0 0 5.48-10.63c0.2-0.58 0.37-1.17 0.54-1.76l0.06-0.22c0.15-0.52 0.27-1 0.4-1.55 0-0.16 0.07-0.31 0.1-0.47 0.1-0.43 0.19-0.88 0.27-1.32l0.12-0.71c0.06-0.37 0.12-0.74 0.17-1.12l0.12-0.92 0.09-1c0-0.35 0.06-0.71 0.08-1.07s0-0.58 0.05-0.88v-1.12V134a70 70 0 0 0-70-70z m-10 786.72l-225.18-130-80-46.19-80 46.19L208 849.36V184a40 40 0 0 1 40-40h528a40 40 0 0 1 40 40z" fill="#adb5bd" p-id="3908"></path><path d="M664 256H360a40 40 0 0 0 0 80h304a40 40 0 0 0 0-80z" fill="#adb5bd" p-id="3909"></path></svg>