<?xml version="1.0" standalone="no"?><!DOCTYPE svg PUBLIC "-//W3C//DTD SVG 1.1//EN" "http://www.w3.org/Graphics/SVG/1.1/DTD/svg11.dtd"><svg t="1693879291954" class="icon" viewBox="0 0 1024 1024" version="1.1" xmlns="http://www.w3.org/2000/svg" p-id="25744" xmlns:xlink="http://www.w3.org/1999/xlink" width="128" height="128"><path d="M597.056 171.2c4.288 0 8.576 0.32 12.544 0.96l154.88 24.448c29.696 4.736 57.92 32.896 62.656 62.656l24.512 154.88c4.736 29.696 1.152 61.504-30.08 92.736l-330.24 329.92a54.656 54.656 0 0 1-77.44 0l-227.264-227.2a54.848 54.848 0 0 1 0-77.376L516.8 202.24c18.368-18.432 52.16-31.04 80.256-31.04m0-68.16c-47.168 0-97.664 20.032-128.64 51.072L138.368 484.032a122.88 122.88 0 0 0 0 173.76l227.264 227.2c23.232 23.168 54.144 35.968 87.04 35.968 32.96 0 63.936-12.8 87.04-36.032l330.112-329.856c42.048-41.984 58.56-93.056 49.28-151.68l-24.576-154.752c-9.28-58.624-60.544-109.952-119.232-119.296l-155.008-24.512a149.76 149.76 0 0 0-23.232-1.792z m2.944 252.352a68.16 68.16 0 1 1 136.32 0.128 68.16 68.16 0 0 1-136.32-0.128z" fill="#8a8a8a" p-id="25745"></path></svg>