<?xml version="1.0" standalone="no"?><!DOCTYPE svg PUBLIC "-//W3C//DTD SVG 1.1//EN" "http://www.w3.org/Graphics/SVG/1.1/DTD/svg11.dtd"><svg t="1690799244719" class="icon" viewBox="0 0 1024 1024" version="1.1" xmlns="http://www.w3.org/2000/svg" p-id="18048" xmlns:xlink="http://www.w3.org/1999/xlink" width="128" height="128"><path d="M544 960c262.4 0 480-217.6 480-480S806.4 0 544 0 64 217.6 64 480 281.6 960 544 960z m0-64C313.6 896 128 710.4 128 480S313.6 64 544 64 960 249.6 960 480 774.4 896 544 896z" fill="#5a29e4" p-id="18049"></path><path d="M544 704c19.2 0 32-12.8 32-32V364.8l70.4 76.8c12.8 6.4 38.4 6.4 51.2 0 6.4-6.4 6.4-19.2 6.4-25.6s0-19.2-6.4-25.6l-128-128c-6.4 0-6.4-6.4-12.8-6.4h-25.6c-6.4 0-12.8 6.4-12.8 6.4l-128 128c-6.4 12.8-12.8 44.8 0 51.2s38.4 6.4 51.2-6.4L512 364.8v307.2c0 19.2 12.8 32 32 32z" p-id="18050" fill="#5a29e4"></path></svg>