<?xml version="1.0" standalone="no"?><!DOCTYPE svg PUBLIC "-//W3C//DTD SVG 1.1//EN" "http://www.w3.org/Graphics/SVG/1.1/DTD/svg11.dtd"><svg t="1690851164054" class="icon" viewBox="0 0 1024 1024" version="1.1" xmlns="http://www.w3.org/2000/svg" p-id="20179" xmlns:xlink="http://www.w3.org/1999/xlink" width="128" height="128"><path d="M535.466667 264.533333c-12.8-12.8-32-12.8-44.8 0l-128 128c-12.8 12.8-12.8 32 0 44.8 12.8 12.8 32 12.8 44.8 0l72.533333-72.533333v371.2c0 17.066667 14.933333 32 32 32s32-14.933333 32-32V364.8l72.533333 72.533333c6.4 6.4 14.933333 8.533333 23.466667 8.533334s17.066667-2.133333 23.466667-8.533334c12.8-12.8 12.8-32 0-44.8l-128-128z" fill="#8a8a8a" p-id="20180"></path><path d="M512 36.266667c-264.533333 0-480 213.333333-480 477.866666S247.466667 992 512 992s480-213.333333 480-477.866667S776.533333 36.266667 512 36.266667z m0 891.733333c-230.4 0-416-185.6-416-413.866667S281.6 100.266667 512 100.266667s416 185.6 416 413.866666S742.4 928 512 928z" fill="#8a8a8a" p-id="20181"></path></svg>