<?xml version="1.0" standalone="no"?><!DOCTYPE svg PUBLIC "-//W3C//DTD SVG 1.1//EN" "http://www.w3.org/Graphics/SVG/1.1/DTD/svg11.dtd"><svg class="icon" width="200px" height="200.00px" viewBox="0 0 1024 1024" version="1.1" xmlns="http://www.w3.org/2000/svg"><path fill="#a37bca" d="M426.666667 626.176v-2.645333c0-107.008 86.016-197.034667 202.794666-223.274667C613.930667 302.037333 510.250667 221.866667 379.733333 221.866667 238.08 221.866667 128 316.288 128 425.813333c0 41.344 15.36 81.066667 44.373333 115.114667 1.365333 1.621333 3.541333 4.010667 6.485334 7.04a152.234667 152.234667 0 0 1 42.752 95.488 154.112 154.112 0 0 1 100.821333-18.858667c7.082667 1.109333 12.885333 1.962667 17.28 2.56A309.504 309.504 0 0 0 426.666667 626.133333z m19.498666 83.242667a392.917333 392.917333 0 0 1-117.461333 2.346666 813.056 813.056 0 0 1-19.370667-2.858666 68.778667 68.778667 0 0 0-46.08 9.045333l-81.237333 48.981333a34.389333 34.389333 0 0 1-20.906667 4.992 33.749333 33.749333 0 0 1-31.104-36.309333l6.4-75.989333a66.773333 66.773333 0 0 0-18.730666-52.181334 236.245333 236.245333 0 0 1-10.282667-11.178666C66.688 548.48 42.666667 489.514667 42.666667 425.770667 42.666667 266.026667 193.578667 136.533333 379.733333 136.533333c173.226667 0 315.861333 112.085333 334.933334 256.341334 143.872 6.528 258.133333 107.306667 258.133333 230.656 0 50.901333-19.456 97.962667-52.437333 136.106666-2.176 2.56-4.949333 5.546667-8.32 8.96a52.906667 52.906667 0 0 0-15.189334 41.642667l5.162667 60.714667a27.093333 27.093333 0 0 1-25.173333 29.013333 28.16 28.16 0 0 1-16.938667-4.010667l-65.834667-39.125333a56.405333 56.405333 0 0 0-37.290666-7.210667c-6.272 0.981333-11.52 1.706667-15.701334 2.261334a329.386667 329.386667 0 0 1-41.344 2.645333c-114.944 0-213.248-60.074667-253.568-145.109333z m297.685334 55.893333a141.866667 141.866667 0 0 1 71.509333 7.424 138.666667 138.666667 0 0 1 35.882667-64.085333c2.133333-2.133333 3.712-3.84 4.522666-4.778667 20.864-24.106667 31.701333-51.754667 31.701334-80.341333 0-76.970667-81.194667-145.664-187.733334-145.664-106.538667 0-187.733333 68.693333-187.733333 145.664s81.194667 145.664 187.733333 145.664c10.282667 0 20.48-0.682667 30.464-1.962667 3.413333-0.426667 8.021333-1.066667 13.653334-1.962667z" /></svg>