<?xml version="1.0" standalone="no"?><!DOCTYPE svg PUBLIC "-//W3C//DTD SVG 1.1//EN" "http://www.w3.org/Graphics/SVG/1.1/DTD/svg11.dtd"><svg t="1656075039322" class="icon" viewBox="0 0 1024 1024" version="1.1" xmlns="http://www.w3.org/2000/svg" p-id="27604" xmlns:xlink="http://www.w3.org/1999/xlink" width="200" height="200"><defs><style type="text/css">@font-face { font-family: feedback-iconfont; src: url("//at.alicdn.com/t/font_1031158_u69w8yhxdu.woff2?t=1630033759944") format("woff2"), url("//at.alicdn.com/t/font_1031158_u69w8yhxdu.woff?t=1630033759944") format("woff"), url("//at.alicdn.com/t/font_1031158_u69w8yhxdu.ttf?t=1630033759944") format("truetype"); }
</style></defs><path d="M446.225067 247.1936c32.426667 0 59.392 10.513067 78.370133 29.764267 20.821333 21.162667 31.061333 52.224 28.637867 90.350933 40.8576-7.509333 73.659733-13.312 102.638933-13.312 61.5424 0 90.999467 25.6 105.301333 46.353067 11.946667 17.3056 23.995733 47.3088 13.1072 94.208 37.649067 22.528 66.1504 46.7968 85.538134 73.045333 20.957867 28.3648 31.470933 59.153067 31.470933 92.8768 0 34.304-11.264 70.8608-32.802133 105.608533-21.367467 34.372267-52.906667 67.1744-91.4432 94.8224C681.984 921.941333 568.6272 955.733333 447.658667 955.733333c-107.076267 0-215.995733-28.910933-294.843734-81.408C80.964267 826.436267 34.133333 759.125333 34.133333 676.522667c0-86.528 50.858667-186.948267 144.657067-282.282667 89.941333-91.374933 192.580267-147.080533 267.434667-147.080533z m0 70.9632c-47.2064 0-132.573867 39.799467-217.531734 126.122667-78.336 79.633067-124.245333 164.1472-124.245333 232.277333 0 29.2864 9.557333 57.207467 27.579733 82.602667 18.602667 26.180267 46.148267 49.629867 81.5104 69.290666 64.580267 35.84 149.9136 56.32 234.120534 56.32 102.6048 0 199.441067-27.7504 272.5888-78.404266 61.201067-42.3936 100.693333-97.962667 100.693333-145.885867 0-22.596267-8.772267-40.0384-20.855467-53.3504-19.797333-21.845333-48.128-33.006933-63.7952-37.956267-12.458667-3.7888-28.7744-9.693867-37.2736-27.409066-5.802667-12.1856-6.109867-26.624 0.341334-43.008 9.8304-25.156267 12.5952-45.568 4.096-57.890134-7.850667-11.3664-24.917333-15.9744-47.581867-15.9744-30.993067 0-70.8608 9.966933-139.1616 33.553067-14.7456 0-27.5456-6.485333-35.362133-17.3056-4.744533-6.485333-12.219733-20.650667-5.188267-42.9056 5.358933-17.408 7.7824-33.109333 7.168-46.08-0.546133-10.786133-3.072-19.592533-8.6016-25.1904-6.212267-6.280533-16.042667-8.8064-28.501333-8.8064zM732.091733 136.533333c71.0656 0 135.509333 29.149867 182.203734 76.253867A260.437333 260.437333 0 0 1 989.866667 396.629333a263.509333 263.509333 0 0 1-7.202134 61.303467c-22.698667 42.734933-58.368 19.3536-61.781333 13.585067-3.413333-5.768533-9.1136-19.592533-6.587733-30.242134 3.4816-14.609067 5.256533-29.5936 5.256533-44.6464a189.371733 189.371733 0 0 0-54.954667-133.632 186.026667 186.026667 0 0 0-155.989333-53.998933c-10.3424 0-29.422933-4.334933-36.317867-17.646933-6.894933-13.312-0.273067-32.904533 4.744534-39.424 5.358933-7.031467 13.380267-11.9808 23.005866-13.380267 10.615467-1.297067 21.333333-1.979733 32.085334-1.979733z" fill="#5a29e4" p-id="27605"></path><path d="M719.735467 267.1616c14.779733-7.441067 83.2512 4.778667 107.963733 28.398933a135.236267 135.236267 0 0 1 39.936 121.344 31.8464 31.8464 0 0 1-26.624 26.112c-13.585067 0.4096-22.596267-3.754667-28.672-11.093333a32.0512 32.0512 0 0 1-6.9632-26.0096c0.477867-33.314133-7.3728-50.926933-21.0944-64a68.9152 68.9152 0 0 0-47.786667-19.285333c-12.219733 0.034133-19.933867-3.345067-25.565866-8.9088a31.6416 31.6416 0 0 1-9.4208-21.777067c-0.3072-8.533333 3.447467-17.339733 18.2272-24.7808z" fill="#5a29e4" p-id="27606"></path></svg>