<?xml version="1.0" standalone="no"?><!DOCTYPE svg PUBLIC "-//W3C//DTD SVG 1.1//EN" "http://www.w3.org/Graphics/SVG/1.1/DTD/svg11.dtd"><svg t="1692932118976" class="icon" viewBox="0 0 1024 1024" version="1.1" xmlns="http://www.w3.org/2000/svg" p-id="35289" width="24" height="24"><path d="M453.888 284.16h319.36c20.330667 0 36.821333 16.469333 36.821333 36.821333v407.082667c0 20.330667-16.490667 36.821333-36.821333 36.821333H249.856a36.821333 36.821333 0 0 1-36.821333-36.821333V320.981333c0-20.352 16.469333-36.821333 36.821333-36.821333h59.584a21.333333 21.333333 0 1 0 0-42.666667h-59.584a79.488 79.488 0 0 0-79.488 79.488v407.082667a79.488 79.488 0 0 0 79.488 79.488h523.392a79.488 79.488 0 0 0 79.488-79.488V320.981333a79.488 79.488 0 0 0-79.488-79.488h-319.36a21.333333 21.333333 0 1 0 0 42.666667z" fill="#696969" p-id="35290"></path><path d="M582.677333 619.946667a25.6 25.6 0 0 0 40.874667 0.277333l104.597333-136.618667a21.333333 21.333333 0 1 0-33.877333-25.92l-90.837333 118.656-71.488-96.170666a25.6 25.6 0 0 0-40.426667-0.853334l-75.050667 92.586667-91.818666-114.602667a21.333333 21.333333 0 1 0-33.28 26.666667l105.045333 131.157333a25.6 25.6 0 0 0 35.968 3.968l2.048-1.834666 1.834667-2.026667 74.56-91.968 71.850666 96.682667z" fill="#696969" p-id="35291"></path></svg>